<?xml version="1.0" standalone="no"?>
<!DOCTYPE svg PUBLIC "-//W3C//DTD SVG 1.1//EN" "http://www.w3.org/Graphics/SVG/1.1/DTD/svg11.dtd" >
<svg xmlns="http://www.w3.org/2000/svg" xmlns:xlink="http://www.w3.org/1999/xlink" version="1.1">
<metadata>
Created by FontForge 20161116 at Wed Jun  2 13:47:34 2004
 By Jimmy Warting
| copyright (c) James Arboghast 2004 | all rights reserved worldwide | published 2004 by Sentinel Type | Adam Gorry is an asserted mark of Adam Gorry | FREEWARE: this font is free and may be freely distributed without permission from the publisher | no license fee is payable for personal or non-profit use; for commercial use (or any use) please make a cash donation to a Leukaemia foundation or research fund of your choice | In 1997, Adam aged 3 was diagnosed with Leukaemia; in 2002 he beat it with the help of modern medicine and much love from his family. When you use this font spare a thought for Leukaemia sufferers worldwide; your donation will make a difference |
</metadata>
<defs>
<font id="AdamGorry-Lights" horiz-adv-x="797" >
  <font-face 
    font-family="AdamGorry-Lights"
    font-weight="300"
    font-stretch="normal"
    units-per-em="1000"
    panose-1="2 15 7 2 2 2 4 2 2 4"
    ascent="800"
    descent="-200"
    x-height="677"
    cap-height="694"
    bbox="-28 -191 1178 917"
    underline-thickness="35"
    underline-position="-90"
    unicode-range="U+000D-FB02"
  />
<missing-glyph horiz-adv-x="586" 
d="M49 -173h488v861h-488v-861zM103 -118v751h379v-751h-379z" />
    <glyph glyph-name=".notdef" horiz-adv-x="586" 
d="M49 -173h488v861h-488v-861zM103 -118v751h379v-751h-379z" />
    <glyph glyph-name=".null" horiz-adv-x="0" 
 />
    <glyph glyph-name=".null" horiz-adv-x="0" 
 />
    <glyph glyph-name="CR" unicode="&#xd;" horiz-adv-x="316" 
 />
    <glyph glyph-name="space" unicode=" " horiz-adv-x="258" 
 />
    <glyph glyph-name="space" unicode="&#xa0;" horiz-adv-x="258" 
 />
    <glyph glyph-name="exclam" unicode="!" horiz-adv-x="284" 
d="M55 74c0 -47 37 -86 85 -86c47 0 84 39 84 86s-37 85 -84 85c-48 0 -85 -37 -85 -85zM140 704c-48 0 -79 -28 -79 -96v-312c0 -68 31 -96 79 -96c45 0 79 28 79 96v312c0 68 -34 96 -79 96zM115 74c0 15 12 26 27 26c12 0 24 -11 24 -26s-12 -25 -24 -25
c-15 0 -27 10 -27 25zM159 282c0 -12 -10 -18 -18 -18c-12 0 -20 6 -20 18c0 11 8 20 20 20c8 0 18 -9 18 -20zM159 369c0 -12 -10 -19 -18 -19c-12 0 -20 7 -20 19c0 11 8 19 20 19c8 0 18 -8 18 -19zM159 455c0 -12 -10 -19 -18 -19c-12 0 -20 7 -20 19c0 11 8 19 20 19
c8 0 18 -8 18 -19zM159 541c0 -12 -10 -20 -18 -20c-12 0 -20 8 -20 20c0 11 8 19 20 19c8 0 18 -8 18 -19zM159 628c0 -12 -10 -20 -18 -20c-12 0 -20 8 -20 20c0 9 8 18 20 18c8 0 18 -9 18 -18z" />
    <glyph glyph-name="quotedbl" unicode="&#x22;" horiz-adv-x="316" 
d="M84 478c29 0 46 18 46 49v129c0 32 -16 48 -47 48c-29 0 -45 -16 -45 -48v-129c0 -31 15 -49 46 -49zM232 478c32 0 46 18 46 49v129c0 32 -14 48 -47 48c-28 0 -44 -16 -44 -48v-129c0 -31 16 -49 45 -49zM70 649c0 9 7 15 15 15s14 -6 14 -15c0 -5 -6 -13 -14 -13
s-15 8 -15 13zM70 591c0 9 7 14 15 14s14 -5 14 -14c0 -7 -6 -14 -14 -14s-15 7 -15 14zM70 534c0 8 7 14 15 14s14 -6 14 -14s-6 -14 -14 -14s-15 6 -15 14zM220 649c0 9 6 15 13 15c8 0 14 -6 14 -15c0 -5 -6 -13 -14 -13c-7 0 -13 8 -13 13zM220 591c0 9 6 14 13 14
c8 0 14 -5 14 -14c0 -7 -6 -14 -14 -14c-7 0 -13 7 -13 14zM220 534c0 8 6 14 13 14c8 0 14 -6 14 -14s-6 -14 -14 -14c-7 0 -13 6 -13 14z" />
    <glyph glyph-name="numbersign" unicode="#" horiz-adv-x="690" 
d="M273 275l13 134h129l-13 -134h-129zM164 181l-12 -123c-3 -39 14 -58 46 -58s52 21 55 58l12 123h128l-11 -123c-3 -39 12 -58 45 -58c31 0 51 21 54 58l12 123h74c37 0 59 16 63 47c1 28 -18 47 -53 47h-74l12 134h75c36 0 57 17 60 48c3 28 -17 48 -52 48h-74l13 131
c3 39 -13 58 -45 58c-31 0 -54 -22 -55 -58l-12 -131h-129l12 131c3 39 -13 58 -44 58c-32 0 -53 -22 -56 -58l-13 -131h-74c-35 0 -58 -19 -59 -48s17 -48 50 -48h74l-12 -134h-73c-37 0 -59 -16 -60 -47c-4 -29 14 -47 50 -47h73zM245 639c0 9 7 14 15 14
c7 0 13 -5 13 -14s-6 -14 -13 -14c-8 0 -15 5 -15 14zM239 577c0 9 7 14 15 14s14 -5 14 -14s-6 -15 -14 -15s-15 6 -15 15zM233 515c0 8 7 14 15 14s15 -6 15 -14s-7 -14 -15 -14s-15 6 -15 14zM228 453c0 9 6 15 14 15s15 -6 15 -15s-7 -15 -15 -15s-14 6 -14 15zM223 391
c0 8 5 14 13 14s15 -6 15 -14s-7 -14 -15 -14s-13 6 -13 14zM217 329c0 9 6 15 13 15c8 0 15 -6 15 -15s-7 -15 -15 -15c-7 0 -13 6 -13 15zM211 267c0 8 7 14 14 14s14 -6 14 -14s-7 -14 -14 -14s-14 6 -14 14zM204 205c0 9 7 15 15 15c7 0 13 -6 13 -15s-5 -15 -12 -15
c-9 0 -16 6 -16 15zM197 143c0 8 7 14 15 14s14 -6 14 -14s-6 -14 -14 -14s-15 6 -15 14zM192 81c0 9 7 15 15 15s15 -6 15 -15s-7 -15 -15 -15s-15 6 -15 15zM474 639c0 9 6 14 14 14s15 -5 15 -14s-7 -14 -15 -14s-14 5 -14 14zM468 577c0 9 7 14 14 14c8 0 15 -5 15 -14
s-7 -15 -15 -15c-7 0 -14 6 -14 15zM463 515c0 8 6 14 14 14c7 0 14 -6 14 -14s-7 -14 -14 -14c-8 0 -14 6 -14 14zM457 453c0 9 7 15 14 15c8 0 14 -6 14 -15s-6 -15 -14 -15c-7 0 -14 6 -14 15zM451 391c0 8 7 14 15 14c7 0 13 -6 13 -14s-6 -14 -13 -14
c-8 0 -15 6 -15 14zM445 329c0 9 7 15 15 15s14 -6 14 -15s-6 -15 -14 -15s-15 6 -15 15zM439 267c0 8 7 14 15 14s14 -6 14 -14s-6 -14 -14 -14s-15 6 -15 14zM433 205c0 9 6 15 14 15s15 -6 15 -15s-6 -15 -14 -15c-9 0 -15 6 -15 15zM427 143c0 8 6 14 13 14
c8 0 15 -6 15 -14s-7 -14 -15 -14c-7 0 -13 6 -13 14zM422 81c0 9 6 15 14 15c7 0 14 -6 14 -15s-7 -15 -14 -15c-8 0 -14 6 -14 15zM166 459c0 9 7 14 15 14c7 0 13 -5 13 -14s-6 -15 -13 -15c-8 0 -15 6 -15 15zM104 459c0 9 6 14 14 14s15 -5 15 -14s-7 -15 -15 -15
s-14 6 -14 15zM345 459c0 9 6 14 13 14c8 0 15 -5 15 -14s-7 -15 -15 -15c-7 0 -13 6 -13 15zM285 459c0 9 7 14 15 14c7 0 13 -5 13 -14s-6 -15 -13 -15c-8 0 -15 6 -15 15zM401 459c0 9 7 14 15 14s14 -5 14 -14s-6 -15 -14 -15s-15 6 -15 15zM576 459c0 9 7 14 14 14
c8 0 14 -5 14 -14s-6 -15 -14 -15c-7 0 -14 6 -14 15zM514 459c0 9 6 14 14 14s15 -5 15 -14s-7 -15 -15 -15s-14 6 -14 15zM145 228c0 8 6 14 14 14s15 -6 15 -14s-7 -14 -15 -14s-14 6 -14 14zM83 228c0 8 7 14 15 14c7 0 13 -6 13 -14s-6 -14 -13 -14c-8 0 -15 6 -15 14z
M323 228c0 8 7 14 15 14s14 -6 14 -14s-6 -14 -14 -14s-15 6 -15 14zM265 228c0 8 5 14 13 14s15 -6 15 -14s-7 -14 -15 -14s-13 6 -13 14zM381 228c0 8 6 14 14 14c7 0 14 -6 14 -14s-7 -14 -14 -14c-8 0 -14 6 -14 14zM555 228c0 8 6 14 14 14s15 -6 15 -14
s-7 -14 -15 -14s-14 6 -14 14zM493 228c0 8 7 14 15 14c7 0 13 -6 13 -14s-6 -14 -13 -14c-8 0 -15 6 -15 14z" />
    <glyph glyph-name="dollar" unicode="$" horiz-adv-x="537" 
d="M325 710v26c0 47 -22 72 -69 72c-43 0 -68 -25 -68 -72v-37c-35 -9 -69 -30 -100 -62c-31 -31 -46 -76 -46 -134c0 -101 62 -164 182 -207c43 -16 73 -30 88 -42c15 -11 23 -29 23 -54c0 -40 -31 -71 -88 -71c-25 0 -50 7 -75 20s-43 20 -56 20c-47 0 -78 -33 -78 -76
c0 -30 19 -56 57 -78c27 -17 61 -28 102 -32v-35c0 -47 23 -72 68 -72c47 0 69 25 69 72v44c35 10 66 26 93 49c48 41 72 95 72 164c0 57 -15 101 -46 131c-30 30 -81 59 -154 86c-62 23 -93 50 -93 81c0 41 30 64 77 64c23 0 43 -5 60 -16c17 -10 32 -15 45 -15
c45 0 71 26 71 74c0 29 -16 54 -49 73c-23 14 -51 23 -85 27zM248 -59c0 12 10 20 19 20c11 0 19 -8 19 -20c0 -8 -8 -18 -19 -18c-9 0 -19 10 -19 18zM238 746c0 11 9 19 20 19s18 -8 18 -19s-7 -19 -18 -19s-20 8 -20 19zM95 93c0 12 7 18 18 18c12 0 20 -6 20 -18
c0 -11 -8 -20 -20 -20c-11 0 -18 9 -18 20zM162 60c0 9 9 18 20 18c9 0 18 -9 18 -18c0 -11 -9 -20 -18 -20c-11 0 -20 9 -20 20zM236 52c0 12 9 18 20 18c12 0 18 -6 18 -18c0 -11 -6 -20 -18 -20c-11 0 -20 9 -20 20zM310 66c0 12 8 20 19 20c12 0 19 -8 19 -20
c0 -8 -7 -18 -19 -18c-11 0 -19 10 -19 18zM371 107c0 12 10 20 19 20c11 0 19 -8 19 -20c0 -8 -8 -18 -19 -18c-9 0 -19 10 -19 18zM402 173c0 12 9 18 20 18s18 -6 18 -18c0 -11 -7 -20 -18 -20s-20 9 -20 20zM398 248c0 12 9 19 20 19c12 0 19 -7 19 -19
c0 -11 -7 -19 -19 -19c-11 0 -20 8 -20 19zM351 304c0 11 8 18 19 18c12 0 19 -7 19 -18s-7 -20 -19 -20c-11 0 -19 9 -19 20zM286 342c0 11 10 18 19 18c11 0 19 -7 19 -18s-8 -20 -19 -20c-9 0 -19 9 -19 20zM217 371c0 12 9 19 18 19c12 0 20 -7 20 -19
c0 -11 -8 -19 -20 -19c-9 0 -18 8 -18 19zM148 411c0 12 9 19 20 19c12 0 19 -7 19 -19c0 -11 -7 -19 -19 -19c-11 0 -20 8 -20 19zM404 615c0 -12 -9 -19 -18 -19c-12 0 -20 7 -20 19c0 11 8 19 20 19c9 0 18 -8 18 -19zM330 643c0 -12 -10 -19 -19 -19c-11 0 -19 7 -19 19
c0 9 8 19 19 19c9 0 19 -10 19 -19zM250 640c0 -12 -9 -19 -20 -19c-9 0 -18 7 -18 19c0 9 9 19 18 19c11 0 20 -10 20 -19zM179 611c0 -11 -9 -19 -20 -19c-12 0 -18 8 -18 19s6 20 18 20c11 0 20 -9 20 -20zM138 549c0 -11 -9 -19 -20 -19c-12 0 -18 8 -18 19s6 19 18 19
c11 0 20 -8 20 -19zM141 472c0 -11 -9 -19 -20 -19c-12 0 -19 8 -19 19c0 9 7 19 19 19c11 0 20 -10 20 -19z" />
    <glyph glyph-name="percent" unicode="%" horiz-adv-x="835" 
d="M598 154c0 31 23 53 50 53c28 0 50 -22 50 -53c0 -27 -22 -51 -50 -51c-27 0 -50 24 -50 51zM499 154c0 -43 14 -79 43 -109s65 -45 106 -45c42 0 77 15 106 45c29 31 43 67 43 109c0 44 -14 81 -43 111s-64 45 -106 45c-41 0 -77 -15 -106 -45c-29 -29 -43 -66 -43 -111
zM617 695c-23 13 -48 10 -71 -30l-341 -599c-19 -33 -9 -55 15 -70c23 -13 47 -11 68 25l343 603c19 32 9 58 -14 71zM578 647c0 9 7 15 14 15c8 0 14 -6 14 -15c0 -8 -6 -14 -14 -14c-7 0 -14 6 -14 14zM545 591c0 9 6 14 14 14c7 0 14 -5 14 -14c0 -8 -7 -14 -14 -14
c-8 0 -14 6 -14 14zM511 532c0 9 7 15 14 15c8 0 15 -6 15 -15s-7 -14 -15 -14c-7 0 -14 5 -14 14zM477 472c0 9 6 14 14 14s15 -5 15 -14c0 -8 -7 -14 -15 -14s-14 6 -14 14zM441 410c0 9 7 15 15 15s14 -6 14 -15s-6 -14 -14 -14s-15 5 -15 14zM405 348c0 8 7 14 15 14
s14 -6 14 -14s-6 -14 -14 -14s-15 6 -15 14zM371 286c0 9 7 15 15 15c7 0 13 -6 13 -15s-6 -15 -13 -15c-8 0 -15 6 -15 15zM338 228c0 8 6 14 14 14c7 0 14 -6 14 -14s-7 -14 -14 -14c-8 0 -14 6 -14 14zM303 165c0 9 6 15 13 15c8 0 15 -6 15 -15s-7 -15 -15 -15
c-7 0 -13 6 -13 15zM634 48c0 9 7 14 14 14c8 0 15 -5 15 -14s-7 -15 -15 -15c-7 0 -14 6 -14 15zM233 44c0 9 7 15 15 15s15 -6 15 -15s-7 -15 -15 -15s-15 6 -15 15zM689 63c0 9 7 15 15 15s14 -6 14 -15c0 -7 -6 -13 -14 -13s-15 6 -15 13zM737 153c0 9 7 15 15 15
c7 0 14 -6 14 -15s-7 -13 -14 -13c-8 0 -15 4 -15 13zM532 153c0 9 7 15 15 15c7 0 14 -6 14 -15s-7 -13 -14 -13c-8 0 -15 4 -15 13zM634 260c0 8 7 13 14 13c8 0 15 -5 15 -13c0 -9 -7 -15 -15 -15c-7 0 -14 6 -14 15zM687 247c0 9 6 15 14 15s14 -6 14 -15
s-6 -15 -14 -15s-14 6 -14 15zM723 209c0 9 6 15 14 15s15 -6 15 -15s-7 -15 -15 -15s-14 6 -14 15zM724 102c0 7 6 13 14 13s15 -6 15 -13c0 -9 -7 -15 -15 -15s-14 6 -14 15zM546 209c0 9 6 15 14 15c7 0 14 -6 14 -15s-7 -15 -14 -15c-8 0 -14 6 -14 15zM582 247
c0 9 6 15 14 15s14 -6 14 -15s-6 -15 -14 -15s-14 6 -14 15zM578 63c0 9 7 15 14 15c8 0 14 -6 14 -15c0 -7 -6 -13 -14 -13c-7 0 -14 6 -14 13zM545 102c0 7 6 13 14 13c7 0 14 -6 14 -13c0 -9 -7 -15 -14 -15c-8 0 -14 6 -14 15zM138 540c0 29 22 52 49 52
c28 0 50 -23 50 -52c0 -28 -22 -52 -50 -52c-27 0 -49 24 -49 52zM38 540c0 -43 14 -80 43 -110c29 -29 65 -44 106 -44c42 0 77 15 106 45s44 66 44 109s-15 79 -44 109c-29 31 -64 46 -106 46c-41 0 -77 -15 -106 -45s-43 -67 -43 -110zM174 433c0 8 8 14 13 14
c8 0 15 -6 15 -14s-7 -14 -15 -14c-5 0 -13 6 -13 14zM229 449c0 9 6 15 14 15s15 -6 15 -15s-7 -14 -15 -14s-14 5 -14 14zM276 539c0 9 7 14 15 14s14 -5 14 -14s-6 -15 -14 -15s-15 6 -15 15zM71 539c0 9 7 14 15 14s15 -5 15 -14s-7 -15 -15 -15s-15 6 -15 15zM174 645
c0 8 8 14 13 14c8 0 15 -6 15 -14c0 -9 -7 -14 -15 -14c-5 0 -13 5 -13 14zM226 632c0 9 6 14 14 14s15 -5 15 -14c0 -8 -7 -14 -15 -14s-14 6 -14 14zM263 594c0 9 6 14 13 14c8 0 15 -5 15 -14c0 -8 -7 -14 -15 -14c-7 0 -13 6 -13 14zM264 486c0 9 5 15 13 15
s15 -6 15 -15s-7 -14 -15 -14s-13 5 -13 14zM85 594c0 9 7 14 15 14c5 0 13 -5 13 -14c0 -8 -8 -14 -13 -14c-8 0 -15 6 -15 14zM121 632c0 9 7 14 15 14s13 -5 13 -14c0 -8 -5 -14 -13 -14s-15 6 -15 14zM117 449c0 9 7 15 15 15s14 -6 14 -15s-6 -14 -14 -14s-15 5 -15 14
zM84 486c0 9 7 15 15 15c7 0 13 -6 13 -15s-6 -14 -13 -14c-8 0 -15 5 -15 14zM267 104c0 8 6 14 14 14s15 -6 15 -14s-7 -14 -15 -14s-14 6 -14 14z" />
    <glyph glyph-name="ampersand" unicode="&#x26;" horiz-adv-x="701" 
d="M418 168c-36 -39 -75 -61 -114 -64c-59 -4 -98 28 -103 83c-3 44 24 84 75 116zM312 462c-39 28 -58 53 -61 80c-3 31 23 60 59 63c44 4 74 -22 74 -53c3 -36 -19 -67 -72 -90zM186 396c-104 -63 -151 -136 -140 -225c5 -63 31 -112 78 -149s105 -51 172 -44
c87 4 161 39 212 96c52 -52 79 -66 106 -63c37 3 63 35 60 72c-1 13 -6 25 -14 37s-27 33 -56 62c60 64 78 101 77 133c-4 37 -34 64 -66 60c-14 -1 -27 -9 -40 -24s-34 -42 -64 -80l-105 103c77 57 109 116 102 188c-5 49 -27 87 -67 116c-39 29 -89 41 -148 34
c-59 -4 -106 -23 -140 -58c-34 -34 -50 -74 -47 -121c5 -48 31 -90 80 -137zM319 42c0 -12 -9 -20 -18 -20c-12 0 -20 8 -20 20c0 11 8 19 20 19c9 0 18 -8 18 -19zM140 241c0 -12 -9 -18 -20 -18c-12 0 -18 6 -18 18c0 11 6 20 18 20c11 0 20 -9 20 -20zM136 163
c0 -12 -9 -19 -20 -19c-12 0 -18 7 -18 19c0 11 6 20 18 20c11 0 20 -9 20 -20zM173 97c0 -12 -9 -20 -20 -20s-18 8 -18 20c0 9 7 18 18 18s20 -9 20 -18zM181 303c0 -12 -9 -20 -20 -20c-12 0 -18 8 -18 20c0 9 6 18 18 18c11 0 20 -9 20 -18zM396 61
c0 -11 -7 -19 -18 -19c-12 0 -20 8 -20 19c0 9 8 19 20 19c11 0 18 -10 18 -19zM465 104c0 -9 -9 -18 -20 -18s-18 9 -18 18c0 11 7 20 18 20s20 -9 20 -20zM507 194c0 -11 -9 -18 -20 -18s-19 7 -19 18s8 20 19 20s20 -9 20 -20zM238 50c0 -12 -9 -20 -18 -20
c-12 0 -20 8 -20 20c0 11 8 18 20 18c9 0 18 -7 18 -18zM320 661c0 12 9 19 20 19s18 -7 18 -19c0 -11 -7 -19 -18 -19s-20 8 -20 19zM352 427c0 12 8 19 19 19c12 0 19 -7 19 -19c0 -9 -7 -19 -19 -19c-11 0 -19 10 -19 19zM414 488c0 12 10 20 19 20c11 0 19 -8 19 -20
c0 -11 -8 -19 -19 -19c-9 0 -19 8 -19 19zM239 654c0 12 9 19 20 19s18 -7 18 -19c0 -11 -7 -19 -18 -19s-20 8 -20 19zM151 544c0 11 9 18 20 18c12 0 18 -7 18 -18s-6 -20 -18 -20c-11 0 -20 9 -20 20zM187 477c0 11 9 19 20 19c12 0 19 -8 19 -19s-7 -19 -19 -19
c-11 0 -20 8 -20 19zM175 611c0 12 9 20 18 20c12 0 20 -8 20 -20c0 -9 -8 -19 -20 -19c-9 0 -18 10 -18 19zM395 631c0 11 8 18 19 18c12 0 19 -7 19 -18s-7 -20 -19 -20c-11 0 -19 9 -19 20zM433 564c0 12 8 20 19 20c12 0 19 -8 19 -20c0 -9 -7 -18 -19 -18
c-11 0 -19 9 -19 18zM242 348c0 -11 -10 -19 -18 -19c-12 0 -20 8 -20 19c0 9 8 19 20 19c8 0 18 -10 18 -19zM622 84c0 -12 -10 -20 -19 -20c-12 0 -19 8 -19 20c0 11 7 19 19 19c9 0 19 -8 19 -19zM564 140c0 -12 -9 -20 -18 -20c-12 0 -20 8 -20 20c0 8 8 18 20 18
c9 0 18 -10 18 -18zM451 249c0 -12 -10 -20 -19 -20c-11 0 -19 8 -19 20c0 11 8 19 19 19c9 0 19 -8 19 -19zM335 361c0 -11 -9 -18 -20 -18s-18 7 -18 18s7 20 18 20s20 -9 20 -20zM393 306c0 -11 -8 -19 -19 -19c-12 0 -20 8 -20 19c0 9 8 19 20 19c11 0 19 -10 19 -19z
M279 416c0 -12 -9 -20 -18 -20c-12 0 -20 8 -20 20c0 11 8 19 20 19c9 0 18 -8 18 -19zM636 305c0 -12 -8 -20 -19 -20c-12 0 -19 8 -19 20c0 9 7 18 19 18c11 0 19 -9 19 -18zM589 241c0 -12 -9 -18 -20 -18s-19 6 -19 18c0 11 8 20 19 20s20 -9 20 -20z" />
    <glyph glyph-name="quotesingle" unicode="'" horiz-adv-x="168" 
d="M84 478c29 0 46 18 46 49v129c0 32 -16 48 -47 48c-29 0 -45 -16 -45 -48v-129c0 -31 15 -49 46 -49zM70 649c0 9 7 15 15 15s14 -6 14 -15c0 -5 -6 -13 -14 -13s-15 8 -15 13zM70 591c0 9 7 14 15 14s14 -5 14 -14c0 -7 -6 -14 -14 -14s-15 7 -15 14zM70 534
c0 8 7 14 15 14s14 -6 14 -14s-6 -14 -14 -14s-15 6 -15 14z" />
    <glyph glyph-name="parenleft" unicode="(" horiz-adv-x="292" 
d="M206 -41c37 0 67 21 62 61c0 2 -15 37 -46 104c-30 68 -45 139 -46 214s14 148 45 220s47 110 47 113c5 37 -25 59 -62 59c-33 0 -54 -24 -87 -103c-32 -79 -61 -174 -61 -281c0 -119 32 -226 64 -299s53 -88 84 -88zM191 600c0 -11 -7 -19 -18 -19c-12 0 -20 8 -20 19
s8 19 20 19c11 0 18 -8 18 -19zM164 528c0 -9 -10 -19 -19 -19c-11 0 -19 10 -19 19c0 12 8 20 19 20c9 0 19 -8 19 -20zM145 456c0 -11 -8 -19 -19 -19c-12 0 -20 8 -20 19c0 12 8 19 20 19c11 0 19 -7 19 -19zM135 382c0 -11 -9 -20 -20 -20c-12 0 -18 9 -18 20
s6 18 18 18c11 0 20 -7 20 -18zM135 305c0 -9 -9 -19 -20 -19c-12 0 -18 10 -18 19c0 11 6 19 18 19c11 0 20 -8 20 -19zM144 229c0 -8 -8 -18 -19 -18c-12 0 -20 10 -20 18c0 12 8 20 20 20c11 0 19 -8 19 -20zM162 159c0 -11 -10 -18 -19 -18c-11 0 -19 7 -19 18
c0 12 8 20 19 20c9 0 19 -8 19 -20zM189 92c0 -11 -7 -20 -18 -20c-12 0 -20 9 -20 20c0 12 8 18 20 18c11 0 18 -6 18 -18zM224 666c0 -11 -9 -20 -20 -20c-12 0 -19 9 -19 20s7 19 19 19c11 0 20 -8 20 -19zM225 24c0 -8 -8 -18 -19 -18c-12 0 -19 10 -19 18
c0 12 7 20 19 20c11 0 19 -8 19 -20z" />
    <glyph glyph-name="parenright" unicode=")" horiz-adv-x="292" 
d="M86 -41c29 0 51 15 83 88c33 73 65 180 65 299c0 107 -29 202 -62 281s-53 103 -86 103c-37 0 -67 -22 -63 -59c0 -3 16 -41 47 -113s47 -145 46 -220s-16 -146 -47 -214c-31 -67 -46 -102 -46 -104c-4 -40 26 -61 63 -61zM101 600c0 11 7 19 18 19c12 0 20 -8 20 -19
s-8 -19 -20 -19c-11 0 -18 8 -18 19zM126 528c0 12 10 20 19 20c11 0 19 -8 19 -20c0 -9 -8 -19 -19 -19c-9 0 -19 10 -19 19zM146 456c0 12 9 19 20 19c12 0 19 -7 19 -19c0 -11 -7 -19 -19 -19c-11 0 -20 8 -20 19zM157 382c0 11 9 18 20 18s18 -7 18 -18s-7 -20 -18 -20
s-20 9 -20 20zM157 305c0 11 9 19 20 19s18 -8 18 -19c0 -9 -7 -19 -18 -19s-20 10 -20 19zM146 229c0 12 9 20 20 20c12 0 19 -8 19 -20c0 -8 -7 -18 -19 -18c-11 0 -20 10 -20 18zM130 159c0 12 10 20 18 20c12 0 20 -8 20 -20c0 -11 -8 -18 -20 -18c-8 0 -18 7 -18 18z
M103 92c0 12 8 18 19 18c12 0 20 -6 20 -18c0 -11 -8 -20 -20 -20c-11 0 -19 9 -19 20zM68 666c0 11 9 19 20 19c12 0 18 -8 18 -19s-6 -20 -18 -20c-11 0 -20 9 -20 20zM70 25c0 12 9 20 20 20c12 0 18 -8 18 -20c0 -8 -6 -18 -18 -18c-11 0 -20 10 -20 18z" />
    <glyph glyph-name="asterisk" unicode="*" horiz-adv-x="539" 
d="M202 414c-5 -10 -11 -24 -19 -42c-7 -17 -12 -30 -15 -39c-11 -37 6 -68 41 -79c35 -9 64 8 75 48c3 9 4 23 5 43s3 35 5 44c4 -5 9 -13 16 -24c27 -39 51 -60 71 -65c28 -8 61 12 70 45c4 15 1 30 -9 44c-10 15 -37 37 -81 67c53 3 87 8 103 15s26 19 31 36
c8 31 -9 66 -38 74c-20 6 -52 -1 -97 -22c-10 -5 -18 -9 -23 -10c3 9 9 21 18 38s14 31 17 40c11 37 -6 69 -41 78s-64 -9 -75 -48c-2 -7 -4 -21 -6 -40s-4 -33 -5 -43c-5 5 -12 13 -20 25c-25 37 -47 58 -66 63c-27 8 -61 -14 -70 -46c-8 -27 18 -62 79 -104
c5 -3 9 -5 12 -6c-3 0 -8 -1 -14 -3c-73 -4 -113 -20 -121 -49c-9 -32 10 -66 38 -74c19 -5 47 1 86 18c13 7 24 13 33 16zM298 646c0 12 9 20 18 20c12 0 20 -8 20 -20c0 -9 -8 -18 -20 -18c-9 0 -18 9 -18 18zM415 524c0 12 10 20 19 20c11 0 19 -8 19 -20
c0 -9 -8 -18 -19 -18c-9 0 -19 9 -19 18zM136 602c0 11 7 19 18 19c12 0 20 -8 20 -19s-8 -19 -20 -19c-11 0 -18 8 -18 19zM85 438c0 12 10 20 19 20c11 0 19 -8 19 -20c0 -9 -8 -18 -19 -18c-9 0 -19 9 -19 18zM370 365c0 12 10 20 19 20c11 0 19 -8 19 -20
c0 -11 -8 -19 -19 -19c-9 0 -19 8 -19 19zM210 317c0 12 10 20 19 20c11 0 19 -8 19 -20c0 -9 -8 -18 -19 -18c-9 0 -19 9 -19 18zM227 389c0 11 8 19 19 19c12 0 19 -8 19 -19c0 -9 -7 -19 -19 -19c-11 0 -19 10 -19 19zM318 415c0 12 9 19 20 19s18 -7 18 -19
c0 -11 -7 -19 -18 -19s-20 8 -20 19zM351 511c0 12 8 19 19 19c12 0 19 -7 19 -19c0 -9 -7 -19 -19 -19c-11 0 -19 10 -19 19zM277 582c0 11 9 19 20 19s18 -8 18 -19s-7 -20 -18 -20s-20 9 -20 20zM184 552c0 12 8 19 19 19c12 0 20 -7 20 -19c0 -9 -8 -19 -20 -19
c-11 0 -19 10 -19 19zM151 457c0 12 9 19 20 19c12 0 18 -7 18 -19c0 -11 -6 -20 -18 -20c-11 0 -20 9 -20 20zM220 475c0 11 7 19 18 19c12 0 20 -8 20 -19c0 -9 -8 -19 -20 -19c-11 0 -18 10 -18 19zM285 493c0 12 9 19 20 19c9 0 18 -7 18 -19c0 -11 -9 -19 -18 -19
c-11 0 -20 8 -20 19z" />
    <glyph glyph-name="plus" unicode="+" horiz-adv-x="614" 
d="M376 279h129c47 0 71 22 71 70c0 44 -24 67 -71 67h-129v140c0 47 -22 72 -70 72c-44 0 -67 -25 -67 -72v-140h-129c-47 0 -72 -23 -72 -68c0 -47 25 -69 72 -69h129v-139c0 -48 23 -74 68 -74c47 0 69 26 69 74v139zM323 349c0 11 9 19 20 19s18 -8 18 -19
c0 -9 -7 -19 -18 -19s-20 10 -20 19zM245 349c0 11 9 19 20 19c9 0 18 -8 18 -19c0 -9 -9 -19 -18 -19c-11 0 -20 10 -20 19zM167 349c0 11 10 19 19 19c11 0 19 -8 19 -19c0 -9 -8 -19 -19 -19c-9 0 -19 10 -19 19zM87 349c0 11 10 19 18 19c12 0 20 -8 20 -19
c0 -9 -8 -19 -20 -19c-8 0 -18 10 -18 19zM483 349c0 11 9 19 20 19s18 -8 18 -19c0 -9 -7 -19 -18 -19s-20 10 -20 19zM403 349c0 11 9 19 20 19s18 -8 18 -19c0 -9 -7 -19 -18 -19s-20 10 -20 19zM287 564c0 12 10 20 19 20c11 0 19 -8 19 -20c0 -9 -8 -18 -19 -18
c-9 0 -19 9 -19 18zM287 492c0 12 10 19 19 19c11 0 19 -7 19 -19c0 -11 -8 -19 -19 -19c-9 0 -19 8 -19 19zM287 420c0 11 10 18 19 18c11 0 19 -7 19 -18s-8 -20 -19 -20c-9 0 -19 9 -19 20zM287 278c0 12 10 20 19 20c11 0 19 -8 19 -20c0 -9 -8 -18 -19 -18
c-9 0 -19 9 -19 18zM287 206c0 12 10 19 19 19c11 0 19 -7 19 -19c0 -11 -8 -19 -19 -19c-9 0 -19 8 -19 19zM287 134c0 12 10 18 19 18c11 0 19 -6 19 -18c0 -11 -8 -20 -19 -20c-9 0 -19 9 -19 20z" />
    <glyph glyph-name="comma" unicode="," horiz-adv-x="234" 
d="M114 -158c45 0 69 30 69 77v149c0 48 -23 77 -70 77c-43 0 -66 -29 -66 -77v-149c0 -47 23 -77 67 -77zM97 67c0 12 7 20 18 20c12 0 20 -8 20 -20c0 -8 -8 -18 -20 -18c-11 0 -18 10 -18 18zM97 -7c0 12 7 20 18 20c12 0 20 -8 20 -20c0 -11 -8 -18 -20 -18
c-11 0 -18 7 -18 18zM97 -81c0 12 7 19 18 19c12 0 20 -7 20 -19c0 -11 -8 -20 -20 -20c-11 0 -18 9 -18 20z" />
    <glyph glyph-name="hyphen" unicode="-" horiz-adv-x="437" 
d="M38 348c0 -47 25 -69 72 -69h217c47 0 71 22 71 70c0 44 -24 67 -71 67h-217c-47 0 -72 -23 -72 -68zM312 349c0 11 8 19 19 19c12 0 19 -8 19 -19c0 -9 -7 -19 -19 -19c-11 0 -19 10 -19 19zM236 349c0 11 9 19 20 19c12 0 18 -8 18 -19c0 -9 -6 -19 -18 -19
c-11 0 -20 10 -20 19zM162 349c0 11 9 19 20 19c9 0 18 -8 18 -19c0 -9 -9 -19 -18 -19c-11 0 -20 10 -20 19zM87 349c0 11 10 19 18 19c12 0 20 -8 20 -19c0 -9 -8 -19 -20 -19c-8 0 -18 10 -18 19z" />
    <glyph glyph-name="hyphen" unicode="&#xad;" horiz-adv-x="437" 
d="M38 348c0 -47 25 -69 72 -69h217c47 0 71 22 71 70c0 44 -24 67 -71 67h-217c-47 0 -72 -23 -72 -68zM312 349c0 11 8 19 19 19c12 0 19 -8 19 -19c0 -9 -7 -19 -19 -19c-11 0 -19 10 -19 19zM236 349c0 11 9 19 20 19c12 0 18 -8 18 -19c0 -9 -6 -19 -18 -19
c-11 0 -20 10 -20 19zM162 349c0 11 9 19 20 19c9 0 18 -8 18 -19c0 -9 -9 -19 -18 -19c-11 0 -20 10 -20 19zM87 349c0 11 10 19 18 19c12 0 20 -8 20 -19c0 -9 -8 -19 -20 -19c-8 0 -18 10 -18 19z" />
    <glyph glyph-name="period" unicode="." horiz-adv-x="234" 
d="M28 82c0 -49 39 -89 90 -89c48 0 88 40 88 89c0 48 -40 89 -88 89c-49 0 -90 -41 -90 -89zM94 84c0 15 10 24 25 24s25 -9 25 -24s-10 -25 -25 -25s-25 10 -25 25z" />
    <glyph glyph-name="slash" unicode="/" horiz-adv-x="299" 
d="M198 732l-200 -744c-11 -35 5 -60 36 -68s56 7 67 42l200 743c9 36 -5 61 -36 69s-58 -7 -67 -42zM237 721c0 9 7 14 15 14s14 -5 14 -14s-6 -14 -14 -14s-15 5 -15 14zM221 659c0 9 6 14 13 14c8 0 15 -5 15 -14s-7 -14 -15 -14c-7 0 -13 5 -13 14zM203 597
c0 9 7 14 15 14s13 -5 13 -14s-5 -14 -13 -14s-15 5 -15 14zM187 535c0 9 7 14 15 14s15 -5 15 -14s-7 -14 -15 -14s-15 5 -15 14zM171 473c0 8 7 14 14 14s14 -6 14 -14s-7 -14 -14 -14s-14 6 -14 14zM154 411c0 9 7 15 15 15s14 -6 14 -15s-6 -15 -14 -15s-15 6 -15 15z
M138 349c0 8 6 14 13 14c8 0 15 -6 15 -14s-7 -14 -15 -14c-7 0 -13 6 -13 14zM121 287c0 9 7 15 15 15s13 -6 13 -15s-5 -15 -13 -15s-15 6 -15 15zM103 225c0 8 6 14 14 14s15 -6 15 -14s-7 -14 -15 -14s-14 6 -14 14zM87 163c0 9 7 15 15 15c5 0 13 -6 13 -15
s-8 -15 -13 -15c-8 0 -15 6 -15 15zM70 102c0 7 7 13 15 13s15 -6 15 -13c0 -9 -7 -15 -15 -15s-15 6 -15 15zM54 39c0 9 6 15 13 15c8 0 15 -6 15 -15s-7 -15 -15 -15c-7 0 -13 6 -13 15zM36 -22c0 7 7 13 15 13s13 -6 13 -13c0 -9 -5 -15 -13 -15s-15 6 -15 15z" />
    <glyph glyph-name="zero" unicode="0" horiz-adv-x="656" 
d="M329 131c-77 0 -126 84 -126 216c0 131 49 216 126 216s125 -85 125 -216c0 -132 -48 -216 -125 -216zM328 -17c89 0 159 33 211 100c53 67 79 154 79 263c0 110 -26 198 -79 264c-52 66 -122 99 -211 99s-159 -33 -212 -99c-52 -66 -78 -154 -78 -264
c0 -109 26 -196 78 -263c53 -67 123 -100 212 -100zM522 303c0 11 9 18 20 18s19 -7 19 -18s-8 -20 -19 -20s-20 9 -20 20zM505 219c0 11 9 18 18 18c12 0 20 -7 20 -18s-8 -20 -20 -20c-9 0 -18 9 -18 20zM423 89c0 12 9 18 18 18c12 0 20 -6 20 -18c0 -11 -8 -20 -20 -20
c-9 0 -18 9 -18 20zM349 54c0 11 8 18 19 18c12 0 19 -7 19 -18s-7 -20 -19 -20c-11 0 -19 9 -19 20zM474 146c0 11 8 19 19 19c12 0 19 -8 19 -19c0 -9 -7 -19 -19 -19c-11 0 -19 10 -19 19zM521 388c0 11 9 19 20 19s19 -8 19 -19c0 -9 -8 -19 -19 -19s-20 10 -20 19z
M505 474c0 11 9 19 18 19c12 0 20 -8 20 -19c0 -9 -8 -19 -20 -19c-9 0 -18 10 -18 19zM471 549c0 11 8 18 19 18c12 0 19 -7 19 -18s-7 -20 -19 -20c-11 0 -19 9 -19 20zM420 607c0 12 9 20 18 20c12 0 20 -8 20 -20c0 -9 -8 -18 -20 -18c-9 0 -18 9 -18 18zM349 639
c0 11 8 19 19 19c12 0 19 -8 19 -19s-7 -19 -19 -19c-11 0 -19 8 -19 19zM136 303c0 -11 -9 -20 -20 -20c-12 0 -18 9 -18 20s6 18 18 18c11 0 20 -7 20 -18zM150 221c0 -11 -7 -20 -18 -20c-12 0 -20 9 -20 20s8 18 20 18c11 0 18 -7 18 -18zM239 87c0 -11 -9 -20 -18 -20
c-12 0 -20 9 -20 20c0 12 8 18 20 18c9 0 18 -6 18 -18zM185 146c0 -9 -8 -19 -19 -19c-12 0 -20 10 -20 19c0 11 8 19 20 19c11 0 19 -8 19 -19zM139 388c0 -9 -9 -19 -20 -19c-12 0 -18 10 -18 19c0 11 6 19 18 19c11 0 20 -8 20 -19zM150 474c0 -9 -7 -19 -18 -19
c-12 0 -20 10 -20 19c0 11 8 19 20 19c11 0 18 -8 18 -19zM183 549c0 -9 -9 -19 -20 -19c-12 0 -19 10 -19 19c0 12 7 19 19 19c11 0 20 -7 20 -19zM239 609c0 -9 -9 -19 -18 -19c-12 0 -20 10 -20 19c0 12 8 20 20 20c9 0 18 -8 18 -20zM310 639c0 -11 -8 -19 -19 -19
c-12 0 -20 8 -20 19s8 19 20 19c11 0 19 -8 19 -19zM306 54c0 -11 -8 -20 -19 -20c-12 0 -19 9 -19 20s7 18 19 18c11 0 19 -7 19 -18z" />
    <glyph glyph-name="one" unicode="1" horiz-adv-x="396" 
d="M175 478l-3 -382c0 -68 34 -96 79 -96s79 28 79 96v503c0 33 -8 57 -23 72c-13 14 -30 22 -50 23h-6c-4 0 -8 0 -13 -1c-17 -2 -32 -9 -45 -20l-141 -126c-37 -32 -37 -76 -16 -103c25 -29 64 -32 101 -3zM231 519c0 11 9 19 20 19c12 0 19 -8 19 -19s-7 -19 -19 -19
c-11 0 -20 8 -20 19zM231 431c0 11 9 19 20 19c12 0 19 -8 19 -19c0 -9 -7 -19 -19 -19c-11 0 -20 10 -20 19zM231 342c0 11 9 18 20 18c12 0 19 -7 19 -18s-7 -20 -19 -20c-11 0 -20 9 -20 20zM231 256c0 12 9 18 20 18c12 0 19 -6 19 -18c0 -11 -7 -20 -19 -20
c-11 0 -20 9 -20 20zM231 170c0 12 9 18 20 18c12 0 19 -6 19 -18c0 -11 -7 -20 -19 -20c-11 0 -20 9 -20 20zM231 84c0 12 9 19 20 19c12 0 19 -7 19 -19c0 -11 -7 -20 -19 -20c-11 0 -20 9 -20 20zM132 549c0 11 9 18 18 18c12 0 20 -7 20 -18s-8 -20 -20 -20
c-9 0 -18 9 -18 20zM71 496c0 12 9 19 20 19c12 0 18 -7 18 -19c0 -11 -6 -19 -18 -19c-11 0 -20 8 -20 19zM188 600c0 11 9 19 20 19c12 0 19 -8 19 -19s-7 -19 -19 -19c-11 0 -20 8 -20 19z" />
    <glyph glyph-name="two" unicode="2" horiz-adv-x="565" 
d="M270 146c93 97 156 170 187 219s47 97 47 143c0 60 -21 109 -62 147c-41 39 -95 58 -161 58c-75 0 -139 -30 -186 -89c-31 -37 -42 -79 -42 -118c0 -49 33 -81 78 -81c41 0 62 18 70 70c8 48 41 71 80 71c41 0 65 -27 65 -66c0 -44 -51 -123 -132 -206
c-41 -41 -69 -69 -84 -83c-61 -55 -92 -101 -91 -138c0 -44 23 -73 90 -73h322c47 0 76 25 76 73c0 47 -29 73 -76 73h-181zM252 642c0 11 10 19 19 19c11 0 19 -8 19 -19s-8 -19 -19 -19c-9 0 -19 8 -19 19zM329 631c0 12 10 19 19 19c11 0 19 -7 19 -19
c0 -9 -8 -19 -19 -19c-9 0 -19 10 -19 19zM354 373c0 12 8 19 19 19c12 0 19 -7 19 -19c0 -11 -7 -19 -19 -19c-11 0 -19 8 -19 19zM396 435c0 11 8 19 19 19c12 0 19 -8 19 -19s-7 -19 -19 -19c-11 0 -19 8 -19 19zM416 508c0 11 8 18 19 18s19 -7 19 -18s-8 -20 -19 -20
s-19 9 -19 20zM390 579c0 12 8 19 19 19c12 0 19 -7 19 -19c0 -11 -7 -19 -19 -19c-11 0 -19 8 -19 19zM305 312c0 12 8 20 19 20c12 0 20 -8 20 -20c0 -9 -8 -18 -20 -18c-11 0 -19 9 -19 18zM178 622c0 12 7 19 18 19c12 0 20 -7 20 -19c0 -11 -8 -19 -20 -19
c-11 0 -18 8 -18 19zM121 570c0 12 9 20 20 20c9 0 18 -8 18 -20c0 -11 -9 -19 -18 -19c-13 1 -20 8 -20 19zM105 497c0 12 9 19 20 19c12 0 19 -7 19 -19c0 -11 -7 -19 -19 -19c-11 0 -20 8 -20 19zM117 58c-12 0 -18 7 -18 18c0 12 6 20 18 20c11 0 20 -8 20 -20
c0 -11 -9 -18 -20 -18zM159 126c-12 0 -18 10 -18 19c0 11 6 19 18 19c11 0 20 -8 20 -19c0 -9 -9 -19 -20 -19zM237 203c0 -12 -9 -19 -18 -19c-12 0 -20 7 -20 19c0 11 8 20 20 20c9 0 18 -9 18 -20zM290 257c0 -12 -10 -20 -19 -20c-11 0 -19 8 -19 20c0 11 8 18 19 18
c9 0 19 -7 19 -18zM429 73c0 12 8 20 19 20c12 0 20 -8 20 -20c0 -11 -8 -18 -20 -18c-11 0 -19 7 -19 18zM347 73c0 12 8 20 19 20c12 0 20 -8 20 -20c0 -11 -8 -18 -20 -18c-11 0 -19 7 -19 18zM264 73c0 12 7 20 18 20c12 0 20 -8 20 -20c0 -11 -8 -18 -20 -18
c-11 0 -18 7 -18 18zM180 73c0 12 7 20 18 20c12 0 20 -8 20 -20c0 -11 -8 -18 -20 -18c-11 0 -18 7 -18 18z" />
    <glyph glyph-name="three" unicode="3" horiz-adv-x="561" 
d="M280 549l-107 -106c-33 -27 -49 -53 -49 -78c1 -26 8 -45 19 -58c13 -13 28 -19 47 -19c25 0 42 11 79 11c55 0 87 -38 87 -78c0 -53 -42 -92 -97 -92c-37 0 -69 10 -95 29c-25 19 -45 29 -60 29c-37 0 -66 -29 -66 -69c0 -37 22 -70 66 -97c45 -28 98 -42 157 -42
c76 0 138 25 187 75s74 106 74 167s-18 111 -55 149c-40 36 -88 50 -129 46l129 133c20 19 30 43 30 73c0 48 -30 72 -91 72h-279c-47 0 -76 -32 -76 -73s29 -72 76 -72h153zM408 623c0 11 10 19 19 19c12 0 19 -8 19 -19s-7 -19 -19 -19c-9 0 -19 8 -19 19zM333 623
c0 11 10 19 19 19c11 0 19 -8 19 -19s-8 -19 -19 -19c-9 0 -19 8 -19 19zM259 623c0 11 9 19 18 19c12 0 20 -8 20 -19s-8 -19 -20 -19c-9 0 -18 8 -18 19zM183 623c0 11 8 19 19 19c12 0 20 -8 20 -19s-8 -19 -20 -19c-11 0 -19 8 -19 19zM229 427c0 12 9 19 20 19
c12 0 19 -7 19 -19c0 -9 -7 -19 -19 -19c-11 0 -20 10 -20 19zM287 487c0 12 10 20 19 20c11 0 19 -8 19 -20c0 -11 -8 -19 -19 -19c-9 0 -19 8 -19 19zM345 546c0 11 7 18 18 18c12 0 20 -7 20 -18s-8 -20 -20 -20c-11 0 -18 9 -18 20zM106 623c0 11 9 19 20 19
c12 0 19 -8 19 -19s-7 -19 -19 -19c-11 0 -20 8 -20 19zM183 360c0 12 7 20 18 20c12 0 20 -8 20 -20c0 -9 -8 -18 -20 -18c-11 0 -18 9 -18 18zM278 55c0 -12 -9 -20 -18 -20c-12 0 -20 8 -20 20c0 9 8 18 20 18c9 0 18 -9 18 -18zM201 65c0 -9 -10 -18 -18 -18
c-12 0 -20 9 -20 18c0 11 8 20 20 20c8 0 18 -9 18 -20zM309 360c0 -11 -8 -18 -19 -18c-12 0 -19 7 -19 18s7 20 19 20c11 0 19 -9 19 -20zM353 66c0 -9 -8 -18 -19 -18c-12 0 -20 9 -20 18c0 11 8 20 20 20c11 0 19 -9 19 -20zM415 112c0 -11 -10 -18 -19 -18
c-12 0 -19 7 -19 18s7 20 19 20c12 -1 19 -9 19 -20zM455 170c0 -12 -10 -20 -19 -20c-12 0 -19 8 -19 20c0 11 7 18 19 18c9 0 19 -7 19 -18zM386 353c0 -11 -9 -19 -20 -19c-12 0 -19 8 -19 19c0 9 7 19 19 19c11 0 20 -10 20 -19zM444 312c0 -11 -9 -19 -18 -19
c-12 0 -20 8 -20 19c0 9 8 19 20 19c9 0 18 -10 18 -19zM466 241c0 -12 -9 -18 -20 -18c-12 0 -19 6 -19 18c0 11 7 20 19 20c11 0 20 -9 20 -20zM135 105c0 -9 -9 -18 -20 -18c-12 0 -18 9 -18 18c0 11 6 20 18 20c11 0 20 -9 20 -20z" />
    <glyph glyph-name="four" unicode="4" horiz-adv-x="597" 
d="M198 279l92 190c20 53 4 89 -29 104c-45 16 -79 4 -103 -49l-118 -245c-41 -93 -4 -139 71 -139h213v-44c0 -68 34 -96 79 -96s79 28 79 96v44h20c48 0 76 26 76 71c0 43 -28 69 -76 69h-20v319c0 67 -34 95 -79 95s-78 -28 -78 -95v-320h-127zM385 618c0 12 9 19 18 19
c12 0 20 -7 20 -19c0 -11 -8 -19 -20 -19c-9 0 -18 8 -18 19zM385 542c0 11 9 19 18 19c12 0 20 -8 20 -19s-8 -20 -20 -20c-9 0 -18 9 -18 20zM385 466c0 11 9 18 18 18c12 0 20 -7 20 -18s-8 -20 -20 -20c-9 0 -18 9 -18 20zM385 389c0 11 9 19 18 19c12 0 20 -8 20 -19
c0 -9 -8 -19 -20 -19c-9 0 -18 10 -18 19zM385 312c0 12 9 20 18 20c12 0 20 -8 20 -20c0 -9 -8 -18 -20 -18c-9 0 -18 9 -18 18zM385 236c0 12 9 20 18 20c12 0 20 -8 20 -20c0 -9 -8 -18 -20 -18c-9 0 -18 9 -18 18zM385 160c0 12 9 20 18 20c12 0 20 -8 20 -20
c0 -11 -8 -18 -20 -18c-9 0 -18 7 -18 18zM385 84c0 12 9 19 18 19c12 0 20 -7 20 -19c0 -11 -8 -20 -20 -20c-9 0 -18 9 -18 20zM155 211c0 12 9 18 20 18s18 -6 18 -18c0 -11 -7 -20 -18 -20s-20 9 -20 20zM470 211c0 12 8 18 19 18c12 0 20 -6 20 -18
c0 -11 -8 -20 -20 -20c-11 0 -19 9 -19 20zM237 211c0 12 9 18 20 18s18 -6 18 -18c0 -11 -7 -20 -18 -20s-20 9 -20 20zM74 211c0 12 9 18 20 18s18 -6 18 -18c0 -11 -7 -20 -18 -20s-20 9 -20 20zM313 211c0 12 9 18 20 18c12 0 19 -6 19 -18c0 -11 -7 -20 -19 -20
c-11 0 -20 9 -20 20zM101 282c0 12 7 20 18 20c12 0 20 -8 20 -20c0 -11 -8 -18 -20 -18c-11 0 -18 7 -18 18zM173 430c0 11 9 19 18 19c12 0 20 -8 20 -19c0 -9 -8 -19 -20 -19c-9 0 -18 10 -18 19zM207 500c0 12 10 19 19 19c11 0 19 -7 19 -19c0 -11 -8 -20 -19 -20
c-9 0 -19 9 -19 20zM141 357c0 12 7 20 18 20c12 0 20 -8 20 -20c0 -9 -8 -18 -20 -18c-11 0 -18 9 -18 18z" />
    <glyph glyph-name="five" unicode="5" horiz-adv-x="561" 
d="M234 449l10 100h174c48 0 76 25 76 73c0 47 -28 72 -76 72h-220c-76 0 -95 -19 -103 -84l-18 -190c-3 -19 -4 -35 -5 -54c0 -45 21 -68 62 -68c37 0 66 26 126 24c55 0 87 -38 87 -93c0 -57 -33 -100 -98 -100c-38 0 -70 10 -95 29s-45 29 -59 29c-39 0 -67 -29 -67 -69
c0 -37 22 -70 67 -97c45 -28 97 -42 156 -42c148 0 262 112 262 259c0 120 -87 226 -208 226c-23 0 -46 -5 -71 -15zM266 55c0 -12 -8 -20 -19 -20c-12 0 -19 8 -19 20c0 9 7 18 19 18c11 0 19 -9 19 -18zM191 65c0 -9 -7 -18 -18 -18c-12 0 -20 9 -20 18c0 11 8 20 20 20
c11 0 18 -9 18 -20zM320 398c0 -11 -9 -18 -18 -18c-12 0 -20 7 -20 18s8 20 20 20c9 0 18 -9 18 -20zM344 66c0 -9 -9 -18 -20 -18c-12 0 -19 9 -19 18c0 11 7 20 19 20c11 0 20 -9 20 -20zM405 109c0 -9 -9 -18 -18 -18c-12 0 -20 9 -20 18c0 11 8 20 20 20
c12 -1 18 -9 18 -20zM447 169c0 -12 -8 -20 -19 -20s-19 8 -19 20c0 11 8 18 19 18s19 -7 19 -18zM391 376c0 -12 -8 -20 -19 -20c-12 0 -19 8 -19 20c0 11 7 19 19 19c11 0 19 -8 19 -19zM439 317c0 -11 -9 -18 -18 -18c-12 0 -20 7 -20 18s8 20 20 20c9 0 18 -9 18 -20z
M458 246c0 -12 -9 -19 -20 -19s-18 7 -18 19c0 11 7 19 18 19s20 -8 20 -19zM128 105c0 -9 -9 -18 -20 -18c-9 0 -18 9 -18 18c0 11 9 20 18 20c11 0 20 -9 20 -20zM246 389c0 -11 -10 -19 -19 -19c-11 0 -19 8 -19 19c0 9 8 19 19 19c9 0 19 -10 19 -19zM167 367
c0 -12 -9 -19 -20 -19c-9 0 -18 7 -18 19c0 11 9 20 18 20c11 0 20 -9 20 -20zM176 455c0 -12 -9 -19 -20 -19c-12 0 -18 7 -18 19c0 11 6 19 18 19c11 0 20 -8 20 -19zM183 538c0 -12 -9 -19 -20 -19c-12 0 -19 7 -19 19c0 11 7 19 19 19c11 0 20 -8 20 -19zM431 622
c0 -12 -8 -19 -19 -19c-12 0 -19 7 -19 19c0 11 7 19 19 19c11 0 19 -8 19 -19zM351 622c0 -12 -8 -19 -19 -19c-12 0 -20 7 -20 19c0 11 8 19 20 19c11 0 19 -8 19 -19zM272 622c0 -12 -7 -19 -18 -19c-12 0 -20 7 -20 19c0 11 8 19 20 19c11 0 18 -8 18 -19zM194 619
c0 -12 -9 -19 -18 -19c-12 0 -20 7 -20 19c0 11 8 19 20 19c9 0 18 -8 18 -19z" />
    <glyph glyph-name="six" unicode="6" horiz-adv-x="581" 
d="M199 229c0 55 42 97 90 97c49 0 91 -42 91 -97c0 -52 -42 -95 -91 -95c-48 0 -90 43 -90 95zM299 458c13 25 37 55 72 89c36 34 54 61 54 81c3 45 -30 77 -81 77c-20 -1 -41 -11 -63 -30c-21 -19 -52 -50 -92 -101c-40 -53 -73 -113 -100 -173c-29 -60 -51 -113 -51 -164
c0 -73 23 -133 68 -179c47 -48 105 -72 176 -72c73 0 135 24 186 72c50 47 75 105 75 173c0 64 -20 117 -59 160s-85 65 -139 66c-20 1 -35 2 -46 1zM297 59c0 -12 -9 -20 -20 -20s-18 8 -18 20c0 8 7 18 18 18s20 -10 20 -18zM227 73c0 -12 -8 -18 -19 -18
c-12 0 -20 6 -20 18c0 11 8 20 20 20c11 0 19 -9 19 -20zM275 396c0 -12 -7 -19 -18 -19c-12 0 -20 7 -20 19c0 9 8 19 20 19c11 0 18 -10 18 -19zM156 317c0 -11 -9 -18 -18 -18c-12 0 -20 7 -20 18s8 20 20 20c9 0 18 -9 18 -20zM134 251c0 -12 -9 -20 -20 -20
c-12 0 -18 8 -18 20c0 11 6 19 18 19c11 0 20 -8 20 -19zM143 181c0 -12 -8 -20 -19 -20c-12 0 -20 8 -20 20c0 8 8 18 20 18c11 0 19 -10 19 -18zM175 116c0 -12 -9 -18 -20 -18c-12 0 -18 6 -18 18c0 11 6 20 18 20c11 0 20 -9 20 -20zM202 372c0 -12 -10 -19 -19 -19
c-11 0 -19 7 -19 19c0 11 8 19 19 19c9 0 19 -8 19 -19zM369 66c0 -9 -10 -18 -19 -18c-11 0 -19 9 -19 18c0 11 8 20 19 20c9 0 19 -9 19 -20zM430 102c0 -12 -8 -20 -19 -20c-12 0 -19 8 -19 20c0 8 7 18 19 18c13 -1 19 -10 19 -18zM472 157c0 -12 -8 -18 -19 -18
c-12 0 -19 6 -19 18c0 11 7 20 19 20c11 0 19 -9 19 -20zM353 394c0 -11 -8 -19 -19 -19c-12 0 -20 8 -20 19c0 9 8 19 20 19c11 0 19 -10 19 -19zM425 364c0 -12 -9 -18 -20 -18c-12 0 -18 6 -18 18c0 11 6 20 18 20c11 0 20 -9 20 -20zM471 305c0 -12 -8 -20 -19 -20
c-12 0 -19 8 -19 20c0 9 7 18 19 18c11 0 19 -9 19 -18zM486 229c0 -11 -9 -19 -18 -19c-12 0 -20 8 -20 19c0 9 8 19 20 19c9 0 18 -10 18 -19zM346 652c11 0 18 -8 18 -19s-7 -19 -18 -19s-20 8 -20 19s9 19 20 19zM292 596c12 0 19 -8 19 -19c0 -12 -7 -19 -19 -19
c-11 0 -20 7 -20 19c0 11 9 19 20 19zM224 518c0 11 7 19 18 19c12 0 20 -8 20 -19s-8 -19 -20 -19c-11 0 -18 8 -18 19zM182 451c0 12 7 19 18 19c12 0 20 -7 20 -19c0 -11 -8 -19 -20 -19c-11 0 -18 8 -18 19z" />
    <glyph glyph-name="seven" unicode="7" horiz-adv-x="509" 
d="M304 549l-167 -406c-15 -36 -19 -52 -19 -71c0 -43 35 -77 82 -77c33 0 61 23 80 74l191 479c11 28 16 48 16 59c4 55 -31 88 -115 87h-276c-48 0 -76 -25 -76 -72c0 -48 28 -73 76 -73h208zM69 623c0 11 9 19 20 19c12 0 18 -8 18 -19s-6 -19 -18 -19
c-11 0 -20 8 -20 19zM394 623c0 11 8 19 19 19c12 0 19 -8 19 -19s-7 -19 -19 -19c-11 0 -19 8 -19 19zM315 623c0 11 9 19 20 19c12 0 19 -8 19 -19s-7 -19 -19 -19c-11 0 -20 8 -20 19zM235 623c0 11 9 19 20 19c12 0 18 -8 18 -19s-6 -19 -18 -19c-11 0 -20 8 -20 19z
M151 623c0 11 9 19 20 19c12 0 18 -8 18 -19s-6 -19 -18 -19c-11 0 -20 8 -20 19zM182 67c0 12 7 20 18 20c12 0 20 -8 20 -20c0 -8 -8 -18 -20 -18c-11 0 -18 10 -18 18zM207 147c0 12 10 20 19 20c11 0 19 -8 19 -20c0 -8 -8 -18 -19 -18c-9 0 -19 10 -19 18zM240 224
c0 11 9 19 20 19s18 -8 18 -19c0 -9 -7 -19 -18 -19s-20 10 -20 19zM302 384c0 11 7 18 18 18c12 0 20 -7 20 -18s-8 -20 -20 -20c-11 0 -18 9 -18 20zM334 462c0 11 10 18 19 18c11 0 19 -7 19 -18s-8 -20 -19 -20c-9 0 -19 9 -19 20zM368 540c0 12 10 19 19 19
c12 0 19 -7 19 -19c0 -11 -7 -19 -19 -19c-9 0 -19 8 -19 19zM270 305c0 11 8 19 19 19c12 0 19 -8 19 -19c0 -9 -7 -19 -19 -19c-11 0 -19 10 -19 19z" />
    <glyph glyph-name="eight" unicode="8" horiz-adv-x="580" 
d="M196 211c0 56 37 101 94 101c59 0 95 -45 95 -101s-36 -100 -95 -100c-57 0 -94 45 -94 100zM219 513c0 41 31 75 71 75c43 0 72 -34 72 -75s-29 -74 -72 -74c-40 0 -71 35 -71 74zM459 380c28 29 54 77 54 138c0 56 -21 102 -64 139c-42 37 -95 56 -159 56
s-117 -19 -160 -56c-42 -37 -63 -83 -63 -139c0 -61 26 -109 54 -138c-47 -35 -83 -95 -83 -174c0 -65 24 -120 72 -163s108 -64 180 -64c73 0 133 21 180 64c48 43 72 98 72 163c0 79 -35 139 -83 174zM299 48c0 -12 -9 -20 -20 -20s-18 8 -18 20c0 11 7 18 18 18
s20 -7 20 -18zM253 368c0 -12 -9 -19 -20 -19s-18 7 -18 19c0 11 7 19 18 19s20 -8 20 -19zM142 264c0 -12 -9 -20 -20 -20c-12 0 -19 8 -19 20c0 9 7 18 19 18c11 0 20 -9 20 -18zM133 189c0 -9 -9 -18 -20 -18c-12 0 -18 9 -18 18c0 11 6 20 18 20c11 0 20 -9 20 -20z
M163 118c0 -12 -10 -18 -19 -18c-11 0 -19 6 -19 18c0 11 8 20 19 20c9 0 19 -9 19 -20zM183 326c0 -12 -8 -19 -19 -19c-12 0 -19 7 -19 19c0 11 7 20 19 20c11 0 19 -9 19 -20zM375 58c0 -12 -9 -20 -20 -20s-18 8 -18 20c0 8 7 18 18 18s20 -10 20 -18zM437 96
c0 -12 -8 -20 -19 -20c-12 0 -20 8 -20 20c0 9 8 18 20 18c11 0 19 -9 19 -18zM327 367c0 -12 -10 -19 -19 -19c-11 0 -19 7 -19 19c0 11 8 20 19 20c9 0 19 -9 19 -20zM399 354c0 -11 -9 -19 -18 -19c-12 0 -20 8 -20 19c0 9 8 19 20 19c9 0 18 -10 18 -19zM480 231
c0 -9 -9 -18 -18 -18c-12 0 -20 9 -20 18c0 11 8 20 20 20c9 0 18 -9 18 -20zM474 156c0 -12 -8 -18 -19 -18c-12 0 -19 6 -19 18c0 11 7 20 19 20c11 0 19 -9 19 -20zM305 650c0 12 8 20 19 20c12 0 20 -8 20 -20c0 -9 -8 -19 -20 -19c-11 0 -19 10 -19 19zM382 422
c0 11 9 18 18 18c12 0 20 -7 20 -18s-8 -20 -20 -20c-9 0 -18 9 -18 20zM416 485c0 12 8 20 19 20s19 -8 19 -20c0 -9 -8 -18 -19 -18s-19 9 -19 18zM229 646c0 12 9 20 20 20c12 0 19 -8 19 -20c0 -9 -7 -18 -19 -18c-11 0 -20 9 -20 18zM121 557c0 11 9 19 20 19
c9 0 18 -8 18 -19s-9 -19 -18 -19c-11 0 -20 8 -20 19zM160 422c0 11 9 18 20 18c9 0 18 -7 18 -18s-9 -20 -18 -20c-11 0 -20 9 -20 20zM126 486c0 12 10 20 19 20c11 0 19 -8 19 -20c0 -9 -8 -18 -19 -18c-9 0 -19 9 -19 18zM163 615c0 12 9 19 20 19c9 0 18 -7 18 -19
c0 -11 -9 -19 -18 -19c-11 0 -20 8 -20 19zM375 618c0 12 10 19 19 19c11 0 19 -7 19 -19c0 -11 -8 -19 -19 -19c-9 0 -19 8 -19 19zM416 559c0 11 8 19 19 19s19 -8 19 -19s-8 -19 -19 -19s-19 8 -19 19zM224 66c0 -9 -8 -18 -19 -18c-12 0 -19 9 -19 18c0 11 7 20 19 20
c11 0 19 -9 19 -20zM454 306c0 -11 -10 -19 -19 -19c-11 0 -19 8 -19 19c0 9 8 19 19 19c9 0 19 -10 19 -19z" />
    <glyph glyph-name="nine" unicode="9" horiz-adv-x="581" 
d="M381 461c0 -54 -42 -97 -90 -97c-50 0 -91 43 -91 97c0 53 41 96 91 96c48 0 90 -43 90 -96zM281 232c-13 -25 -37 -55 -72 -88c-36 -34 -54 -61 -54 -82c-3 -45 30 -77 81 -77c19 1 40 12 63 31c21 17 52 49 91 100c41 53 72 113 103 173s49 107 49 164
c0 73 -23 133 -69 180s-104 71 -175 71c-74 0 -136 -24 -186 -71s-75 -105 -75 -174c0 -64 20 -117 59 -159c39 -43 85 -66 139 -67c20 -1 34 -2 46 -1zM283 632c0 12 9 19 20 19s18 -7 18 -19c0 -9 -7 -19 -18 -19s-20 10 -20 19zM353 617c0 12 8 19 19 19
c12 0 19 -7 19 -19c0 -11 -7 -19 -19 -19c-11 0 -19 8 -19 19zM305 295c0 12 7 18 18 18c12 0 20 -6 20 -18c0 -11 -8 -20 -20 -20c-11 0 -18 9 -18 20zM424 373c0 12 9 19 18 19c12 0 20 -7 20 -19c0 -11 -8 -19 -20 -19c-9 0 -18 8 -18 19zM446 439c0 12 9 20 20 20
s18 -8 18 -20c0 -9 -7 -18 -18 -18s-20 9 -20 18zM437 510c0 12 8 19 19 19c12 0 19 -7 19 -19c0 -9 -7 -19 -19 -19c-11 0 -19 10 -19 19zM405 574c0 12 9 19 20 19s18 -7 18 -19c0 -11 -7 -19 -18 -19s-20 8 -20 19zM378 318c0 12 9 20 18 20c12 0 20 -8 20 -20
c0 -9 -8 -18 -20 -18c-9 0 -18 9 -18 18zM211 624c0 11 10 19 18 19c12 0 20 -8 20 -19s-8 -20 -20 -20c-8 0 -18 9 -18 20zM149 590c0 11 9 18 20 18c12 0 18 -7 18 -18s-6 -20 -18 -20c-13 1 -20 9 -20 20zM107 533c0 12 9 19 20 19c12 0 19 -7 19 -19
c0 -11 -7 -19 -19 -19c-11 0 -20 8 -20 19zM227 297c0 11 8 18 19 18c12 0 19 -7 19 -18s-7 -20 -19 -20c-11 0 -19 9 -19 20zM155 326c0 12 9 20 20 20s18 -8 18 -20c0 -11 -7 -19 -18 -19s-20 8 -20 19zM108 387c0 11 9 18 20 18c12 0 18 -7 18 -18s-6 -20 -18 -20
c-11 0 -20 9 -20 20zM94 462c0 11 7 18 18 18c12 0 20 -7 20 -18s-8 -20 -20 -20c-11 0 -18 9 -18 20zM234 38c-11 0 -18 9 -18 20c0 9 7 18 18 18s20 -9 20 -18c0 -11 -9 -20 -20 -20zM288 95c-12 0 -19 7 -19 18c0 12 7 20 19 20c11 0 19 -8 19 -20c0 -11 -8 -18 -19 -18z
M356 173c0 -12 -7 -20 -18 -20c-12 0 -20 8 -20 20c0 11 8 18 20 18c11 0 18 -7 18 -18zM398 239c0 -12 -9 -18 -18 -18c-12 0 -20 6 -20 18c0 11 8 20 20 20c9 0 18 -9 18 -20z" />
    <glyph glyph-name="colon" unicode=":" horiz-adv-x="225" 
d="M23 611c0 -49 39 -89 90 -89c48 0 88 40 88 89c0 48 -40 88 -88 88c-49 0 -90 -40 -90 -88zM23 84c0 -49 39 -89 90 -89c48 0 88 40 88 89c0 48 -40 89 -88 89c-49 0 -90 -41 -90 -89zM89 612c0 15 12 25 25 25c15 0 26 -10 26 -25c0 -13 -11 -25 -26 -25
c-13 0 -25 12 -25 25zM89 84c0 15 12 24 25 24c15 0 26 -9 26 -24s-11 -25 -26 -25c-13 0 -25 10 -25 25z" />
    <glyph glyph-name="semicolon" unicode=";" horiz-adv-x="225" 
d="M23 611c0 -49 39 -89 90 -89c48 0 88 40 88 89c0 48 -40 88 -88 88c-49 0 -90 -40 -90 -88zM114 -168c45 0 69 30 69 77v159c0 48 -23 77 -70 77c-43 0 -66 -29 -66 -77v-159c0 -47 23 -77 67 -77zM89 612c0 15 12 25 25 25c15 0 26 -10 26 -25c0 -13 -11 -25 -26 -25
c-13 0 -25 12 -25 25zM97 67c0 12 7 20 18 20c12 0 20 -8 20 -20c0 -8 -8 -18 -20 -18c-11 0 -18 10 -18 18zM97 -12c0 12 7 20 18 20c12 0 20 -8 20 -20c0 -11 -8 -18 -20 -18c-11 0 -18 7 -18 18zM97 -91c0 12 7 20 18 20c12 0 20 -8 20 -20c0 -11 -8 -18 -20 -18
c-11 0 -18 7 -18 18z" />
    <glyph glyph-name="semicolon" unicode="&#x37e;" horiz-adv-x="225" 
d="M23 611c0 -49 39 -89 90 -89c48 0 88 40 88 89c0 48 -40 88 -88 88c-49 0 -90 -40 -90 -88zM114 -168c45 0 69 30 69 77v159c0 48 -23 77 -70 77c-43 0 -66 -29 -66 -77v-159c0 -47 23 -77 67 -77zM89 612c0 15 12 25 25 25c15 0 26 -10 26 -25c0 -13 -11 -25 -26 -25
c-13 0 -25 12 -25 25zM97 67c0 12 7 20 18 20c12 0 20 -8 20 -20c0 -8 -8 -18 -20 -18c-11 0 -18 10 -18 18zM97 -12c0 12 7 20 18 20c12 0 20 -8 20 -20c0 -11 -8 -18 -20 -18c-11 0 -18 7 -18 18zM97 -91c0 12 7 20 18 20c12 0 20 -8 20 -20c0 -11 -8 -18 -20 -18
c-11 0 -18 7 -18 18z" />
    <glyph glyph-name="less" unicode="&#x3c;" horiz-adv-x="444" 
d="M184 346l177 192c48 48 53 98 21 134c-9 13 -26 20 -51 21c-24 2 -47 -9 -69 -34l-217 -237c-23 -23 -35 -49 -35 -76c1 -27 12 -51 35 -74l217 -237c44 -49 92 -39 120 -12c32 32 27 82 -21 131zM308 78c0 12 8 20 19 20c12 0 19 -8 19 -20c0 -11 -7 -18 -19 -18
c-11 0 -19 7 -19 18zM253 132c0 12 10 18 18 18c12 0 20 -6 20 -18c0 -11 -8 -20 -20 -20c-8 0 -18 9 -18 20zM203 184c0 11 9 19 20 19c9 0 18 -8 18 -19c0 -9 -9 -19 -18 -19c-11 0 -20 10 -20 19zM157 237c0 12 9 20 20 20s18 -8 18 -20c0 -11 -7 -18 -18 -18
s-20 7 -20 18zM108 292c0 12 9 19 20 19c12 0 18 -7 18 -19c0 -11 -6 -20 -18 -20c-11 0 -20 9 -20 20zM105 411c0 12 9 19 20 19c12 0 19 -7 19 -19c0 -11 -7 -19 -19 -19c-11 0 -20 8 -20 19zM157 466c0 11 9 18 20 18s18 -7 18 -18s-7 -20 -18 -20s-20 9 -20 20zM209 519
c0 11 10 19 19 19c11 0 19 -8 19 -19s-8 -19 -19 -19c-9 0 -19 8 -19 19zM259 571c0 12 9 19 18 19c12 0 20 -7 20 -19c0 -11 -8 -19 -20 -19c-9 0 -18 8 -18 19zM309 621c0 12 8 19 19 19c12 0 19 -7 19 -19c0 -11 -7 -19 -19 -19c-11 0 -19 8 -19 19zM61 349
c0 11 8 19 19 19c12 0 20 -8 20 -19c0 -9 -8 -19 -20 -19c-11 0 -19 10 -19 19z" />
    <glyph glyph-name="equal" unicode="=" horiz-adv-x="566" 
d="M346 444c0 12 7 20 18 20c12 0 20 -8 20 -20c0 -9 -8 -18 -20 -18c-11 0 -18 9 -18 18zM264 444c0 12 7 20 18 20c12 0 20 -8 20 -20c0 -9 -8 -18 -20 -18c-11 0 -18 9 -18 18zM182 444c0 12 7 20 18 20c12 0 20 -8 20 -20c0 -9 -8 -18 -20 -18c-11 0 -18 9 -18 18z
M99 444c0 12 7 20 18 20c12 0 20 -8 20 -20c0 -9 -8 -18 -20 -18c-11 0 -18 9 -18 18zM427 444c0 12 8 20 19 20c12 0 20 -8 20 -20c0 -9 -8 -18 -20 -18c-11 0 -19 9 -19 18zM346 213c0 12 7 18 18 18c12 0 20 -6 20 -18c0 -11 -8 -20 -20 -20c-11 0 -18 9 -18 20zM264 213
c0 12 7 18 18 18c12 0 20 -6 20 -18c0 -11 -8 -20 -20 -20c-11 0 -18 9 -18 20zM182 213c0 12 7 18 18 18c12 0 20 -6 20 -18c0 -11 -8 -20 -20 -20c-11 0 -18 9 -18 20zM99 213c0 12 7 18 18 18c12 0 20 -6 20 -18c0 -11 -8 -20 -20 -20c-11 0 -18 9 -18 20zM427 213
c0 12 8 18 19 18c12 0 20 -6 20 -18c0 -11 -8 -20 -20 -20c-11 0 -19 9 -19 20zM38 443c0 -45 25 -68 72 -68h347c47 0 71 22 71 69c0 44 -24 67 -71 67h-347c-47 0 -72 -23 -72 -68zM38 212c0 -45 25 -69 72 -69h347c47 0 71 23 71 70c0 43 -24 66 -71 66h-347
c-47 0 -72 -23 -72 -67z" />
    <glyph glyph-name="greater" unicode="&#x3e;" horiz-adv-x="443" 
d="M260 348l-177 -191c-48 -48 -53 -96 -21 -135c9 -12 26 -19 50 -21c25 -1 48 10 71 35l215 236c24 23 36 49 36 76c-1 27 -13 51 -36 74l-215 235c-45 49 -93 39 -121 12c-32 -31 -27 -82 21 -131zM133 620c0 -12 -9 -19 -20 -19c-12 0 -18 7 -18 19c0 11 6 19 18 19
c11 0 20 -8 20 -19zM187 566c0 -11 -7 -18 -18 -18c-12 0 -20 7 -20 18s8 20 20 20c11 0 18 -9 18 -20zM237 514c0 -11 -9 -19 -18 -19c-12 0 -20 8 -20 19c0 9 8 19 20 19c9 0 18 -10 18 -19zM283 461c0 -12 -10 -20 -18 -20c-12 0 -20 8 -20 20c0 9 8 18 20 18
c8 0 18 -9 18 -18zM332 406c0 -12 -9 -19 -20 -19c-9 0 -18 7 -18 19c0 11 9 20 18 20c11 0 20 -9 20 -20zM336 287c0 -12 -9 -19 -20 -19s-18 7 -18 19c0 11 7 19 18 19s20 -8 20 -19zM283 233c0 -11 -10 -18 -18 -18c-12 0 -20 7 -20 18s8 20 20 20c8 0 18 -9 18 -20z
M230 180c0 -12 -7 -20 -18 -20c-12 0 -20 8 -20 20c0 9 8 18 20 18c11 0 18 -9 18 -18zM183 127c0 -12 -9 -20 -20 -20c-12 0 -19 8 -19 20c0 11 7 19 19 19c11 0 20 -8 20 -19zM133 77c0 -12 -9 -18 -20 -18c-12 0 -18 6 -18 18c0 11 6 20 18 20c11 0 20 -9 20 -20z
M380 349c0 -11 -9 -19 -20 -19s-18 8 -18 19c0 9 7 19 18 19s20 -10 20 -19z" />
    <glyph glyph-name="question" unicode="?" horiz-adv-x="523" 
d="M214 71c0 15 12 26 25 26c15 0 26 -11 26 -26c0 -13 -11 -25 -26 -25c-13 0 -25 12 -25 25zM242 639c0 11 9 19 20 19s18 -8 18 -19s-7 -19 -18 -19s-20 8 -20 19zM310 623c0 11 8 19 19 19c12 0 19 -8 19 -19s-7 -19 -19 -19c-11 0 -19 8 -19 19zM218 264
c0 9 9 18 18 18c12 0 20 -9 20 -18c0 -11 -8 -20 -20 -20c-9 0 -18 9 -18 20zM219 336c0 12 7 18 18 18c12 0 20 -6 20 -18c0 -11 -8 -20 -20 -20c-11 0 -18 9 -18 20zM348 388c0 11 8 19 19 19c12 0 20 -8 20 -19c0 -9 -8 -19 -20 -19c-11 0 -19 10 -19 19zM386 445
c0 12 7 20 18 20c12 0 20 -8 20 -20c0 -11 -8 -18 -20 -18c-11 0 -18 7 -18 18zM389 515c0 11 8 19 19 19c12 0 19 -8 19 -19c0 -9 -7 -19 -19 -19c-11 0 -19 10 -19 19zM363 580c0 12 9 19 20 19s18 -7 18 -19c0 -11 -7 -19 -18 -19s-20 8 -20 19zM285 353c0 11 9 19 20 19
c9 0 18 -8 18 -19c0 -9 -9 -19 -18 -19c-11 0 -20 10 -20 19zM171 630c0 11 10 18 18 18c12 0 20 -7 20 -18s-8 -20 -20 -20c-8 0 -18 9 -18 20zM108 597c0 11 9 19 20 19c12 0 18 -8 18 -19c0 -9 -6 -19 -18 -19c-11 4 -20 10 -20 19zM68 541c0 11 9 19 20 19
c12 0 18 -8 18 -19s-6 -20 -18 -20c-11 0 -20 9 -20 20zM153 71c0 -47 39 -86 86 -86s85 39 85 86s-38 85 -85 85s-86 -38 -86 -85zM314 284c106 19 171 99 171 205c0 130 -107 218 -233 218c-63 0 -118 -18 -164 -54c-45 -36 -68 -76 -68 -121c0 -41 24 -71 72 -71
c21 0 38 8 49 25c17 29 47 79 111 75c36 0 67 -30 67 -65c0 -39 -18 -65 -54 -78c-24 -9 -53 -13 -68 -20c-23 -11 -33 -26 -33 -62v-72c0 -37 27 -70 74 -70s76 33 76 70v20z" />
    <glyph glyph-name="at" unicode="@" horiz-adv-x="722" 
d="M521 344c0 -52 -35 -79 -84 -79c-51 0 -80 34 -80 79c0 48 32 82 80 82s84 -31 84 -82zM544 180c0 -49 21 -71 60 -71c44 0 61 29 61 77v289c0 65 -22 126 -67 169c-45 44 -125 70 -214 70c-191 0 -346 -146 -346 -367c0 -115 45 -218 108 -282c64 -63 151 -99 274 -96
h16c36 0 67 17 67 58c0 37 -24 66 -67 66h-7c-153 -18 -263 100 -263 254c0 77 27 139 67 180c41 41 100 62 136 65c37 4 83 0 116 -16c35 -16 60 -48 60 -77c-28 28 -69 46 -113 46c-120 0 -198 -89 -198 -202s77 -200 202 -203c33 0 75 5 108 40zM477 207
c0 -12 -8 -20 -19 -20c-12 0 -20 8 -20 20c0 11 8 19 20 19c11 0 19 -8 19 -19zM403 210c0 -12 -9 -20 -18 -20c-12 0 -20 8 -20 20c0 11 8 19 20 19c9 0 18 -8 18 -19zM416 487c0 -11 -9 -19 -20 -19s-18 8 -18 19s7 20 18 20s20 -9 20 -20zM358 452c0 -12 -9 -19 -18 -19
c-12 0 -20 7 -20 19c0 11 8 19 20 19c9 0 18 -8 18 -19zM317 393c0 -11 -9 -19 -18 -19c-12 0 -20 8 -20 19c0 9 8 19 20 19c9 0 18 -10 18 -19zM313 318c0 -11 -7 -18 -18 -18c-12 0 -20 7 -20 18s8 20 20 20c11 0 18 -9 18 -20zM346 254c0 -12 -8 -20 -19 -20
c-12 0 -19 8 -19 20c0 11 7 18 19 18c11 0 19 -7 19 -18zM484 484c0 -11 -9 -18 -18 -18c-12 0 -20 7 -20 18s8 20 20 20c9 0 18 -9 18 -20zM545 449c0 -12 -9 -19 -20 -19s-18 7 -18 19c0 11 7 19 18 19s20 -8 20 -19zM541 236c0 -11 -9 -18 -20 -18s-18 7 -18 18
s7 20 18 20s20 -9 20 -20zM586 323c0 12 9 20 18 20c12 0 20 -8 20 -20c0 -11 -8 -18 -20 -18c-9 0 -18 7 -18 18zM586 252c0 12 9 19 18 19c12 0 20 -7 20 -19c0 -11 -8 -20 -20 -20c-9 0 -18 9 -18 20zM586 179c0 11 9 18 18 18c12 0 20 -7 20 -18s-8 -20 -20 -20
c-9 0 -18 9 -18 20zM586 472c0 11 9 19 18 19c12 0 20 -8 20 -19c0 -9 -8 -19 -20 -19c-9 0 -18 10 -18 19zM586 396c0 12 9 20 18 20c12 0 20 -8 20 -20c0 -9 -8 -18 -20 -18c-9 0 -18 9 -18 18zM417 640c-12 0 -20 8 -20 19c0 12 8 19 20 19c11 0 19 -7 19 -19
c0 -11 -8 -19 -19 -19zM117 343c0 -12 -10 -20 -18 -20c-12 0 -20 8 -20 20c0 9 8 18 20 18c8 0 18 -9 18 -18zM143 491c0 -12 -9 -19 -20 -19c-12 0 -19 7 -19 19c0 11 7 19 19 19c11 0 20 -8 20 -19zM123 420c0 -12 -10 -20 -19 -20c-11 0 -19 8 -19 20c0 9 8 18 19 18
c9 0 19 -9 19 -18zM293 637c0 -11 -9 -19 -20 -19s-18 8 -18 19s7 19 18 19s20 -8 20 -19zM362 655c0 -12 -9 -19 -18 -19c-12 0 -20 7 -20 19c0 11 8 19 20 19c9 0 18 -8 18 -19zM126 264c0 -12 -9 -20 -20 -20c-9 0 -18 8 -18 20c0 9 9 18 18 18c11 0 20 -9 20 -18z
M152 191c0 -11 -7 -18 -18 -18c-12 0 -20 7 -20 18s8 20 20 20c11 0 18 -9 18 -20zM246 81c0 -12 -10 -19 -19 -19c-11 0 -19 7 -19 19c0 11 8 20 19 20c9 0 19 -9 19 -20zM309 46c0 -12 -8 -20 -19 -20c-12 0 -19 8 -19 20c0 11 7 18 19 18c11 0 19 -7 19 -18zM359 10
c-11 0 -18 9 -18 18c0 12 7 20 18 20s20 -8 20 -20c0 -9 -9 -18 -20 -18zM193 130c0 -12 -7 -20 -18 -20c-12 0 -20 8 -20 20c0 11 8 18 20 18c11 0 18 -7 18 -18zM230 602c0 -12 -7 -19 -18 -19c-12 0 -20 7 -20 19c0 9 8 19 20 19c11 0 18 -10 18 -19zM432 10
c-11 0 -19 9 -19 18c0 12 8 20 19 20c9 0 19 -8 19 -20c0 -9 -10 -18 -19 -18zM181 553c0 -11 -9 -19 -20 -19c-12 0 -18 8 -18 19s6 19 18 19c11 0 20 -8 20 -19zM488 626c-12 0 -19 8 -19 19s7 19 19 19c11 0 20 -8 20 -19s-9 -19 -20 -19zM551 589c-11 0 -19 9 -19 18
c0 12 8 20 19 20s19 -8 19 -20c0 -9 -8 -18 -19 -18zM593 526c-11 0 -19 9 -19 20s8 18 19 18s19 -7 19 -18s-8 -20 -19 -20z" />
    <glyph glyph-name="A" unicode="A" horiz-adv-x="652" 
d="M216 190h221v-94c0 -68 32 -96 79 -96c45 0 79 28 79 96v343c0 159 -90 255 -237 255h-64c-145 0 -236 -96 -236 -255v-343c0 -68 32 -96 79 -96c45 0 79 28 79 96v94zM437 321h-221v118c0 75 38 109 99 109h22c63 0 100 -34 100 -109v-118zM237 261
c0 -12 -9 -20 -18 -20c-12 0 -20 8 -20 20c0 9 8 18 20 18c9 0 18 -9 18 -18zM467 261c0 -12 -9 -20 -20 -20c-12 0 -19 8 -19 20c0 9 7 18 19 18c11 0 20 -9 20 -18zM313 261c0 -12 -7 -20 -18 -20c-12 0 -20 8 -20 20c0 9 8 18 20 18c11 0 18 -9 18 -18zM390 261
c0 -12 -8 -20 -19 -20c-12 0 -19 8 -19 20c0 9 7 18 19 18c11 0 19 -9 19 -18zM267 624c0 11 8 19 19 19c12 0 19 -8 19 -19s-7 -20 -19 -20c-11 0 -19 9 -19 20zM116 390c0 11 9 19 20 19s18 -8 18 -19c0 -9 -7 -19 -18 -19s-20 10 -20 19zM498 468c0 12 8 19 19 19
s19 -7 19 -19c0 -9 -8 -19 -19 -19s-19 10 -19 19zM498 310c0 11 8 19 19 19s19 -8 19 -19c0 -9 -8 -19 -19 -19s-19 10 -19 19zM498 231c0 12 8 20 19 20s19 -8 19 -20c0 -9 -8 -18 -19 -18s-19 9 -19 18zM498 153c0 12 8 20 19 20s19 -8 19 -20c0 -9 -8 -18 -19 -18
s-19 9 -19 18zM116 468c0 12 9 19 20 19s18 -7 18 -19c0 -9 -7 -19 -18 -19s-20 10 -20 19zM116 75c0 12 9 20 20 20s18 -8 18 -20c0 -11 -7 -18 -18 -18s-20 7 -20 18zM116 231c0 12 9 20 20 20s18 -8 18 -20c0 -9 -7 -18 -18 -18s-20 9 -20 18zM498 390c0 11 8 19 19 19
s19 -8 19 -19c0 -9 -8 -19 -19 -19s-19 10 -19 19zM498 75c0 12 8 20 19 20s19 -8 19 -20c0 -11 -8 -18 -19 -18s-19 7 -19 18zM116 310c0 11 9 19 20 19s18 -8 18 -19c0 -9 -7 -19 -18 -19s-20 10 -20 19zM116 153c0 12 9 20 20 20s18 -8 18 -20c0 -9 -7 -18 -18 -18
s-20 9 -20 18zM136 547c0 11 7 18 18 18c12 0 20 -7 20 -18s-8 -20 -20 -20c-11 0 -18 9 -18 20zM189 602c0 11 9 19 20 19c12 0 19 -8 19 -19s-7 -19 -19 -19c-11 0 -20 8 -20 19zM347 624c0 11 8 19 19 19c12 0 20 -8 20 -19s-8 -20 -20 -20c-11 0 -19 9 -19 20zM479 547
c0 11 8 18 19 18c12 0 19 -7 19 -18s-7 -20 -19 -20c-11 0 -19 9 -19 20zM422 602c0 11 9 19 18 19c12 0 20 -8 20 -19s-8 -19 -20 -19c-9 0 -18 8 -18 19z" />
    <glyph glyph-name="B" unicode="B" horiz-adv-x="592" 
d="M216 136v160h76c65 0 101 -29 101 -80c0 -53 -29 -80 -80 -80h-97zM216 424v136h64c50 0 75 -21 75 -64c0 -45 -35 -72 -83 -72h-56zM444 371c29 23 60 70 60 141c0 109 -66 182 -227 182h-143c-56 0 -76 -23 -76 -66v-562c0 -49 20 -66 76 -66h169c167 0 251 82 251 213
c0 69 -42 133 -110 158zM117 626c0 11 9 19 20 19s18 -8 18 -19s-7 -20 -18 -20s-20 9 -20 20zM117 547c0 11 9 18 20 18s18 -7 18 -18s-7 -20 -18 -20s-20 9 -20 20zM117 465c0 11 9 18 20 18s18 -7 18 -18s-7 -20 -18 -20s-20 9 -20 20zM117 386c0 11 9 18 20 18
s18 -7 18 -18s-7 -20 -18 -20s-20 9 -20 20zM117 310c0 11 9 19 20 19s18 -8 18 -19c0 -9 -7 -19 -18 -19s-20 10 -20 19zM117 231c0 12 9 20 20 20s18 -8 18 -20c0 -9 -7 -18 -18 -18s-20 9 -20 18zM117 152c0 12 9 20 20 20s18 -8 18 -20c0 -9 -7 -18 -18 -18
s-20 9 -20 18zM117 73c0 12 9 20 20 20s18 -8 18 -20c0 -11 -7 -18 -18 -18s-20 7 -20 18zM193 628c0 11 9 18 20 18c12 0 18 -7 18 -18s-6 -20 -18 -20c-11 0 -20 9 -20 20zM270 628c0 11 8 18 19 18c12 0 19 -7 19 -18s-7 -20 -19 -20c-11 0 -19 9 -19 20zM345 614
c0 12 7 19 18 19c12 0 20 -7 20 -19c0 -11 -8 -19 -20 -19c-11 0 -18 8 -18 19zM403 575c1 16 9 19 20 19s18 -7 18 -19c0 -11 -7 -19 -18 -19s-20 8 -20 19zM420 502c0 11 9 19 18 19c12 0 20 -8 20 -19s-8 -20 -20 -20c-9 0 -18 9 -18 20zM392 435c0 11 8 19 19 19
c12 0 19 -8 19 -19s-7 -19 -19 -19c-11 0 -19 8 -19 19zM339 384c0 11 9 18 18 18c12 0 20 -7 20 -18s-8 -20 -20 -20c-9 0 -18 9 -18 20zM188 362c0 12 9 20 20 20c12 0 19 -8 19 -20c0 -11 -7 -18 -19 -18c-11 0 -20 7 -20 18zM263 362c0 12 7 20 18 20c12 0 20 -8 20 -20
c0 -11 -8 -18 -20 -18c-11 0 -18 7 -18 18zM383 325c0 12 9 20 18 20c12 0 20 -8 20 -20c0 -11 -8 -19 -20 -19c-9 0 -18 8 -18 19zM437 285c0 12 8 20 19 20c12 0 19 -8 19 -20c0 -11 -7 -19 -19 -19c-11 0 -19 8 -19 19zM453 153c0 12 10 20 19 20c11 0 19 -8 19 -20
c0 -9 -8 -18 -19 -18c-12 0 -19 9 -19 18zM404 104c0 12 9 20 20 20s18 -8 18 -20c0 -8 -7 -18 -18 -18s-20 10 -20 18zM193 71c0 12 9 20 20 20c12 0 18 -8 18 -20c0 -11 -6 -18 -18 -18c-11 0 -20 7 -20 18zM267 71c0 12 8 20 19 20c12 0 19 -8 19 -20
c0 -11 -7 -18 -19 -18c-11 0 -19 7 -19 18zM338 76c0 12 9 20 18 20c12 0 20 -8 20 -20c0 -11 -8 -18 -20 -18c-9 0 -18 7 -18 18zM467 222c0 9 9 18 18 18c12 0 20 -9 20 -18c0 -11 -8 -20 -20 -20c-9 0 -18 9 -18 20z" />
    <glyph glyph-name="C" unicode="C" horiz-adv-x="636" 
d="M598 102c0 40 -27 79 -64 80c-18 1 -40 -7 -65 -22s-54 -23 -87 -23c-55 0 -99 19 -132 58s-49 88 -49 148c0 63 16 113 49 152s77 58 132 58c33 0 62 -8 87 -23s47 -23 65 -22c37 1 64 40 64 81c-1 33 -23 61 -66 84c-43 24 -93 36 -151 36c-100 0 -182 -34 -247 -103
c-64 -68 -96 -156 -96 -263c0 -104 32 -191 96 -260c65 -69 147 -103 247 -103c58 0 108 12 151 36s65 53 66 86zM387 619c-12 0 -20 10 -20 19c0 11 8 19 20 19c9 0 18 -8 18 -19c0 -9 -9 -19 -18 -19zM459 604c-12 0 -20 9 -20 20s8 19 20 19c11 0 19 -8 19 -19
s-8 -20 -19 -20zM136 343c0 -12 -9 -20 -20 -20c-12 0 -18 8 -18 20c0 9 6 18 18 18c11 0 20 -9 20 -18zM165 491c0 -12 -10 -19 -19 -19c-11 0 -19 7 -19 19c0 11 8 19 19 19c9 0 19 -8 19 -19zM143 418c0 -12 -9 -20 -20 -20c-12 0 -19 8 -19 20c0 11 7 19 19 19
c11 0 20 -8 20 -19zM265 602c0 -12 -9 -19 -20 -19c-12 0 -19 7 -19 19c0 9 7 19 19 19c11 0 20 -10 20 -19zM333 631c0 -12 -9 -20 -20 -20s-18 8 -18 20c0 9 7 18 18 18s20 -9 20 -18zM521 567c-11 0 -18 9 -18 20s7 18 18 18s20 -7 20 -18s-9 -20 -20 -20zM145 267
c0 -11 -8 -19 -19 -19c-12 0 -20 8 -20 19c0 9 8 19 20 19c11 0 19 -10 19 -19zM168 193c0 -11 -9 -18 -20 -18c-9 0 -18 7 -18 18s9 20 18 20c11 0 20 -9 20 -20zM268 86c0 -12 -8 -20 -19 -20c-12 0 -20 8 -20 20c0 11 8 18 20 18c11 0 19 -7 19 -18zM335 60
c0 -12 -9 -20 -20 -20s-18 8 -18 20c0 8 7 18 18 18s20 -10 20 -18zM387 32c-11 0 -19 9 -19 20c0 12 8 18 19 18s19 -6 19 -18c0 -11 -8 -20 -19 -20zM460 45c-12 0 -20 10 -20 18c0 12 8 20 20 20c11 0 19 -8 19 -20c0 -8 -8 -18 -19 -18zM523 82c-11 0 -18 9 -18 20
c0 9 7 18 18 18s20 -9 20 -18c0 -11 -9 -20 -20 -20zM211 133c0 -12 -9 -20 -20 -20s-18 8 -18 20c0 11 7 18 18 18s20 -7 20 -18zM207 552c0 -11 -9 -19 -20 -19c-9 0 -18 8 -18 19s9 19 18 19c11 0 20 -8 20 -19z" />
    <glyph glyph-name="D" unicode="D" horiz-adv-x="660" 
d="M216 147v402h44c137 0 201 -75 201 -214c0 -123 -65 -188 -204 -188h-41zM134 0h105c132 0 229 32 290 95c62 63 92 144 91 241c-3 109 -36 195 -97 260s-150 98 -268 98h-121c-48 0 -76 -11 -76 -66v-562c0 -55 28 -66 76 -66zM117 623c0 11 9 19 20 19s18 -8 18 -19
s-7 -19 -18 -19s-20 8 -20 19zM117 549c0 11 9 18 20 18s18 -7 18 -18s-7 -20 -18 -20s-20 9 -20 20zM117 473c0 11 9 19 20 19s18 -8 18 -19c0 -9 -7 -19 -18 -19s-20 10 -20 19zM117 396c0 11 9 19 20 19s18 -8 18 -19s-7 -19 -18 -19s-20 8 -20 19zM117 315
c0 12 9 20 20 20s18 -8 18 -20c0 -9 -7 -18 -18 -18s-20 9 -20 18zM117 236c0 12 9 20 20 20s18 -8 18 -20c0 -9 -7 -18 -18 -18s-20 9 -20 18zM117 156c0 12 9 20 20 20s18 -8 18 -20c0 -11 -7 -18 -18 -18s-20 7 -20 18zM117 77c0 12 9 20 20 20s18 -8 18 -20
c0 -11 -7 -18 -18 -18s-20 7 -20 18zM528 353c0 11 9 19 20 19s18 -8 18 -19c0 -9 -7 -19 -18 -19s-20 10 -20 19zM492 193c0 12 10 20 19 20c12 0 19 -8 19 -20c0 -9 -7 -18 -19 -18c-9 0 -19 9 -19 18zM521 271c0 11 9 19 20 19s19 -8 19 -19c0 -9 -8 -19 -19 -19
s-20 10 -20 19zM367 91c0 12 9 18 20 18s18 -6 18 -18c0 -11 -7 -20 -18 -20s-20 9 -20 20zM283 75c0 12 9 20 20 20s18 -8 18 -20c0 -11 -7 -18 -18 -18s-20 7 -20 18zM515 436c0 11 8 19 19 19c12 0 19 -8 19 -19s-7 -19 -19 -19c-11 0 -19 8 -19 19zM481 511
c0 12 9 19 20 19s19 -7 19 -19c0 -9 -8 -19 -19 -19s-20 10 -20 19zM356 608c0 12 9 20 20 20c12 0 19 -8 19 -20c0 -9 -7 -18 -19 -18c-11 0 -20 9 -20 18zM279 623c0 11 9 19 20 19s18 -8 18 -19s-7 -19 -18 -19s-20 8 -20 19zM427 570c0 12 7 20 18 20c12 0 20 -8 20 -20
c0 -11 -8 -19 -20 -19c-11 0 -18 8 -18 19zM200 625c0 11 9 19 20 19s18 -8 18 -19s-7 -20 -18 -20s-20 9 -20 20zM438 133c0 12 9 18 20 18c12 0 19 -6 19 -18c0 -11 -7 -20 -19 -20c-11 0 -20 9 -20 20zM200 73c0 12 9 20 20 20s18 -8 18 -20c0 -11 -7 -18 -18 -18
s-20 7 -20 18z" />
    <glyph glyph-name="E" unicode="E" horiz-adv-x="578" 
d="M216 146v130h217c48 0 76 25 76 74c0 48 -28 73 -76 73h-217v126h239c48 0 76 25 76 73c0 47 -28 72 -76 72h-321c-55 0 -76 -11 -76 -66v-562c0 -55 21 -66 76 -66h330c48 0 76 25 76 73c0 47 -28 73 -76 73h-248zM117 622c0 12 9 19 20 19c12 0 18 -6 18 -19
c0 -11 -7 -19 -18 -19s-20 8 -20 19zM117 546c0 11 9 18 20 18c12 0 18 -6 18 -18c0 -11 -7 -20 -18 -20s-20 9 -20 20zM117 468c0 12 9 19 20 19c12 0 18 -6 18 -19c0 -9 -7 -19 -18 -19s-20 10 -20 19zM117 389c0 11 9 19 20 19c12 0 18 -6 18 -19c0 -9 -7 -19 -18 -19
s-20 10 -20 19zM117 312c0 11 9 19 20 19c12 0 18 -6 18 -19c0 -9 -7 -19 -18 -19s-20 10 -20 19zM117 232c0 12 9 20 20 20c12 0 18 -7 18 -20c0 -9 -7 -18 -18 -18s-20 9 -20 18zM117 152c0 12 9 20 20 20c12 0 18 -7 18 -20c0 -9 -7 -18 -18 -18s-20 9 -20 18zM117 73
c0 12 9 20 20 20c12 0 18 -7 18 -20c0 -11 -7 -18 -18 -18s-20 7 -20 18zM420 350c0 11 9 19 18 19c13 0 20 -6 20 -19c0 -9 -8 -19 -20 -19c-9 0 -18 10 -18 19zM347 350c0 11 8 19 19 19c13 0 20 -6 20 -19c0 -9 -8 -19 -20 -19c-11 0 -19 10 -19 19zM273 350
c0 11 9 19 20 19c13 0 19 -6 19 -19c0 -9 -7 -19 -19 -19c-11 0 -20 10 -20 19zM197 350c0 11 9 19 20 19c12 0 18 -6 18 -19c0 -9 -7 -19 -18 -19s-20 10 -20 19zM432 623c0 11 8 19 19 19c13 0 19 -6 19 -19c0 -11 -7 -19 -19 -19c-11 0 -19 8 -19 19zM354 623
c0 11 8 19 19 19c13 0 19 -6 19 -19c0 -11 -7 -19 -19 -19c-11 0 -19 8 -19 19zM274 623c0 11 9 19 20 19c12 0 18 -6 18 -19c0 -11 -6 -19 -18 -19c-11 0 -20 8 -20 19zM195 623c0 11 9 19 20 19c12 0 18 -6 18 -19c0 -11 -6 -19 -18 -19c-11 0 -20 8 -20 19zM441 73
c0 12 9 20 20 20c12 0 18 -7 18 -20c0 -11 -7 -18 -18 -18s-20 7 -20 18zM363 73c0 12 9 20 20 20c12 0 18 -7 18 -20c0 -11 -7 -18 -18 -18s-20 7 -20 18zM283 73c0 12 9 20 20 20c12 0 18 -7 18 -20c0 -11 -7 -18 -18 -18s-20 7 -20 18zM199 73c0 12 9 20 20 20
c12 0 18 -7 18 -20c0 -11 -7 -18 -18 -18s-20 7 -20 18z" />
    <glyph glyph-name="F" unicode="F" horiz-adv-x="541" 
d="M216 276h188c44 0 76 25 76 74c0 48 -32 73 -76 73h-188v26c0 61 38 100 99 100h121c43 0 76 25 76 73c0 47 -33 72 -78 72h-140c-73 0 -130 -23 -173 -68c-42 -45 -63 -104 -63 -177v-353c0 -68 32 -96 79 -96c45 0 79 28 79 96v180zM139 552c0 12 7 19 18 19
c12 0 20 -7 20 -19c0 -9 -8 -19 -20 -19c-11 0 -18 10 -18 19zM346 623c0 11 7 19 18 19c12 0 20 -8 20 -19s-8 -19 -20 -19c-11 0 -18 8 -18 19zM419 623c0 11 9 19 18 19c12 0 20 -8 20 -19s-8 -19 -20 -19c-9 0 -18 8 -18 19zM213 350c0 11 9 19 18 19c12 0 20 -8 20 -19
c0 -9 -8 -19 -20 -19c-9 0 -18 10 -18 19zM298 350c0 11 9 19 18 19c12 0 20 -8 20 -19c0 -9 -8 -19 -20 -19c-9 0 -18 10 -18 19zM382 350c0 11 9 19 18 19c12 0 20 -8 20 -19c0 -9 -8 -19 -20 -19c-9 0 -18 10 -18 19zM117 89c0 12 9 18 20 18s18 -6 18 -18
c0 -11 -7 -20 -18 -20s-20 9 -20 20zM117 165c0 12 9 19 20 19s18 -7 18 -19c0 -11 -7 -19 -18 -19s-20 8 -20 19zM117 241c0 12 9 20 20 20s18 -8 18 -20c0 -11 -7 -18 -18 -18s-20 7 -20 18zM117 317c0 12 9 20 20 20s18 -8 18 -20c0 -9 -7 -18 -18 -18s-20 9 -20 18z
M117 394c0 11 9 19 20 19s18 -8 18 -19c0 -9 -7 -19 -18 -19s-20 10 -20 19zM117 470c0 12 9 19 20 19s18 -7 18 -19c0 -9 -7 -19 -18 -19s-20 10 -20 19zM271 623c0 11 8 19 19 19c12 0 19 -8 19 -19s-7 -19 -19 -19c-11 0 -19 8 -19 19zM194 600c0 11 9 19 20 19
c12 0 18 -8 18 -19s-6 -19 -18 -19c-11 0 -20 8 -20 19z" />
    <glyph glyph-name="G" unicode="G" horiz-adv-x="727" 
d="M531 258c-1 -28 -15 -55 -40 -82c-25 -26 -61 -39 -109 -39c-55 0 -99 19 -132 58s-49 88 -49 148c0 63 16 113 49 152s77 58 132 58c33 0 62 -8 87 -23s47 -23 65 -22c37 1 64 40 64 81c-1 33 -23 61 -66 84c-43 24 -93 36 -151 36c-100 0 -182 -34 -247 -103
c-64 -68 -96 -156 -96 -263c0 -104 32 -191 96 -260c65 -69 147 -103 248 -103c88 0 161 30 219 90s87 140 87 239c0 61 -16 96 -83 96h-209c-49 0 -77 -29 -77 -74c0 -44 28 -73 77 -73h135zM210 558c0 -12 -9 -19 -20 -19c-9 0 -18 7 -18 19c0 9 9 19 18 19
c11 0 20 -10 20 -19zM226 123c0 -12 -8 -19 -19 -19c-12 0 -20 7 -20 19c0 11 8 20 20 20c11 0 19 -9 19 -20zM367 54c0 -12 -10 -20 -19 -20c-11 0 -19 8 -19 20c0 9 8 18 19 18c9 0 19 -9 19 -18zM136 343c0 -12 -9 -20 -20 -20c-12 0 -18 8 -18 20c0 9 6 18 18 18
c11 0 20 -9 20 -18zM175 186c0 -11 -9 -19 -20 -19c-12 0 -18 8 -18 19c0 9 6 19 18 19c11 0 20 -10 20 -19zM146 260c0 -12 -8 -20 -19 -20c-12 0 -20 8 -20 20c0 9 8 18 20 18c11 0 19 -9 19 -18zM338 631c0 -11 -9 -19 -20 -19s-18 8 -18 19s7 19 18 19s20 -8 20 -19z
M166 496c0 -12 -9 -19 -20 -19c-9 0 -18 7 -18 19c0 11 9 19 18 19c11 0 20 -8 20 -19zM268 605c0 -11 -8 -18 -19 -18c-12 0 -20 7 -20 18s8 20 20 20c11 0 19 -9 19 -20zM290 79c0 -12 -10 -18 -19 -18c-11 0 -19 6 -19 18c0 11 8 20 19 20c9 0 19 -9 19 -20zM143 421
c0 -12 -8 -20 -19 -20c-12 0 -20 8 -20 20c0 9 8 18 20 18c11 0 19 -9 19 -18zM463 604c-12 0 -20 8 -20 19s8 19 20 19c9 0 18 -8 18 -19s-9 -19 -18 -19zM524 566c-11 0 -18 9 -18 20s7 18 18 18s20 -7 20 -18s-9 -20 -20 -20zM392 620c-11 0 -19 8 -19 19s8 19 19 19
c9 0 19 -8 19 -19s-10 -19 -19 -19zM631 253c0 -12 -9 -20 -20 -20s-19 8 -19 20c0 11 8 18 19 18s20 -7 20 -18zM560 330c0 -12 -8 -19 -19 -19c-12 0 -20 7 -20 19c0 11 8 19 20 19c11 0 19 -8 19 -19zM487 332c0 -12 -8 -20 -19 -20s-19 8 -19 20c0 11 8 19 19 19
s19 -8 19 -19zM610 183c0 -11 -8 -19 -19 -19s-19 8 -19 19c0 9 8 19 19 19s19 -10 19 -19zM631 330c0 -12 -8 -19 -19 -19s-19 7 -19 19c0 11 8 19 19 19s19 -8 19 -19zM413 332c0 -12 -10 -20 -19 -20c-11 0 -19 8 -19 20c0 11 8 19 19 19c9 0 19 -8 19 -19zM424 34
c-12 0 -20 9 -20 20s8 18 20 18c9 0 18 -7 18 -18s-9 -20 -18 -20zM550 102c-11 0 -19 8 -19 19c0 12 8 20 19 20s19 -8 19 -20c0 -11 -8 -19 -19 -19zM491 58c-12 0 -19 7 -19 18c0 12 7 20 19 20c11 0 19 -8 19 -20c0 -11 -8 -18 -19 -18z" />
    <glyph glyph-name="H" unicode="H" horiz-adv-x="664" 
d="M216 279h232v-183c0 -68 34 -96 79 -96c47 0 79 28 79 96v503c0 67 -32 95 -79 95c-45 0 -79 -28 -79 -95v-173h-232v173c0 67 -34 95 -79 95c-47 0 -79 -28 -79 -95v-503c0 -68 32 -96 79 -96c45 0 79 28 79 96v183zM117 618c0 12 9 19 20 19s18 -7 18 -19
c0 -11 -7 -19 -18 -19s-20 8 -20 19zM117 542c0 11 9 19 20 19s18 -8 18 -19s-7 -20 -18 -20s-20 9 -20 20zM117 466c0 11 9 18 20 18s18 -7 18 -18s-7 -20 -18 -20s-20 9 -20 20zM117 389c0 11 9 19 20 19s18 -8 18 -19c0 -9 -7 -19 -18 -19s-20 10 -20 19zM117 312
c0 12 9 20 20 20s18 -8 18 -20c0 -9 -7 -18 -18 -18s-20 9 -20 18zM117 236c0 12 9 20 20 20s18 -8 18 -20c0 -9 -7 -18 -18 -18s-20 9 -20 18zM117 160c0 12 9 20 20 20s18 -8 18 -20c0 -11 -7 -18 -18 -18s-20 7 -20 18zM117 84c0 12 9 19 20 19s18 -7 18 -19
c0 -11 -7 -20 -18 -20s-20 9 -20 20zM510 618c0 12 8 19 19 19c12 0 20 -7 20 -19c0 -11 -8 -19 -20 -19c-11 0 -19 8 -19 19zM510 542c0 11 8 19 19 19c12 0 20 -8 20 -19s-8 -20 -20 -20c-11 0 -19 9 -19 20zM510 466c0 11 8 18 19 18c12 0 20 -7 20 -18s-8 -20 -20 -20
c-11 0 -19 9 -19 20zM510 389c0 11 8 19 19 19c12 0 20 -8 20 -19c0 -9 -8 -19 -20 -19c-11 0 -19 10 -19 19zM510 312c0 12 8 20 19 20c12 0 20 -8 20 -20c0 -9 -8 -18 -20 -18c-11 0 -19 9 -19 18zM510 236c0 12 8 20 19 20c12 0 20 -8 20 -20c0 -9 -8 -18 -20 -18
c-11 0 -19 9 -19 18zM510 160c0 12 8 20 19 20c12 0 20 -8 20 -20c0 -11 -8 -18 -20 -18c-11 0 -19 7 -19 18zM510 84c0 12 8 19 19 19c12 0 20 -7 20 -19c0 -11 -8 -20 -20 -20c-11 0 -19 9 -19 20zM429 353c0 11 8 19 19 19c12 0 20 -8 20 -19c0 -9 -8 -19 -20 -19
c-11 0 -19 10 -19 19zM354 353c0 11 9 19 20 19c12 0 19 -8 19 -19c0 -9 -7 -19 -19 -19c-11 0 -20 10 -20 19zM279 353c0 11 9 19 20 19s18 -8 18 -19c0 -9 -7 -19 -18 -19s-20 10 -20 19zM205 353c0 11 10 19 19 19c11 0 19 -8 19 -19c0 -9 -8 -19 -19 -19
c-9 0 -19 10 -19 19z" />
    <glyph glyph-name="I" unicode="I" horiz-adv-x="272" 
d="M137 694c-47 0 -79 -25 -79 -104v-494c0 -68 32 -96 79 -96c45 0 79 28 79 96v503c0 67 -34 95 -79 95zM117 618c0 12 9 19 20 19s18 -7 18 -19c0 -11 -7 -19 -18 -19s-20 8 -20 19zM117 542c0 11 9 19 20 19s18 -8 18 -19s-7 -20 -18 -20s-20 9 -20 20zM117 466
c0 11 9 18 20 18s18 -7 18 -18s-7 -20 -18 -20s-20 9 -20 20zM117 389c0 11 9 19 20 19s18 -8 18 -19c0 -9 -7 -19 -18 -19s-20 10 -20 19zM117 312c0 12 9 20 20 20s18 -8 18 -20c0 -9 -7 -18 -18 -18s-20 9 -20 18zM117 236c0 12 9 20 20 20s18 -8 18 -20
c0 -9 -7 -18 -18 -18s-20 9 -20 18zM117 160c0 12 9 20 20 20s18 -8 18 -20c0 -11 -7 -18 -18 -18s-20 7 -20 18zM117 84c0 12 9 19 20 19s18 -7 18 -19c0 -11 -7 -20 -18 -20s-20 9 -20 20z" />
    <glyph glyph-name="J" unicode="J" horiz-adv-x="392" 
d="M256 694c-45 0 -79 -28 -79 -95v-363c0 -68 -29 -90 -81 -90c-48 0 -76 -26 -76 -73c0 -48 28 -73 76 -73h18c135 0 221 82 221 227v372c0 67 -34 95 -79 95zM235 604c0 12 9 20 20 20c12 0 18 -8 18 -20c0 -9 -6 -18 -18 -18c-11 0 -20 9 -20 18zM235 526
c0 12 9 20 20 20c12 0 18 -8 18 -20c0 -9 -6 -18 -18 -18c-11 0 -20 9 -20 18zM235 446c0 12 9 20 20 20c12 0 18 -8 18 -20c0 -11 -6 -19 -18 -19c-11 0 -20 8 -20 19zM235 364c0 12 9 20 20 20c12 0 18 -8 18 -20c0 -11 -6 -18 -18 -18c-11 0 -20 7 -20 18zM235 285
c0 12 9 20 20 20c12 0 18 -8 18 -20c0 -11 -6 -19 -18 -19c-11 0 -20 8 -20 19zM231 203c0 12 9 20 20 20c12 0 19 -8 19 -20c0 -11 -7 -19 -19 -19c-11 0 -20 8 -20 19zM78 72c0 12 9 20 20 20c9 0 18 -8 18 -20c0 -11 -9 -18 -18 -18c-11 0 -20 7 -20 18zM154 84
c0 12 9 19 20 19c12 0 18 -7 18 -19c0 -11 -6 -20 -18 -20c-11 0 -20 9 -20 20zM211 130c0 12 10 18 18 18c12 0 20 -6 20 -18c0 -11 -8 -20 -20 -20c-8 0 -18 9 -18 20z" />
    <glyph glyph-name="K" unicode="K" horiz-adv-x="631" 
d="M117 618c0 12 9 19 20 19s18 -7 18 -19c0 -11 -7 -19 -18 -19s-20 8 -20 19zM117 542c0 11 9 19 20 19s18 -8 18 -19s-7 -20 -18 -20s-20 9 -20 20zM117 466c0 11 9 18 20 18s18 -7 18 -18s-7 -20 -18 -20s-20 9 -20 20zM117 389c0 11 9 19 20 19s18 -8 18 -19
c0 -9 -7 -19 -18 -19s-20 10 -20 19zM117 312c0 12 9 20 20 20s18 -8 18 -20c0 -9 -7 -18 -18 -18s-20 9 -20 18zM117 236c0 12 9 20 20 20s18 -8 18 -20c0 -9 -7 -18 -18 -18s-20 9 -20 18zM117 160c0 12 9 20 20 20s18 -8 18 -20c0 -11 -7 -18 -18 -18s-20 7 -20 18z
M117 84c0 12 9 19 20 19s18 -7 18 -19c0 -11 -7 -20 -18 -20s-20 9 -20 20zM496 82c0 12 10 20 19 20c11 0 19 -8 19 -20c0 -11 -8 -20 -19 -20c-9 0 -19 9 -19 20zM439 138c0 11 9 18 20 18c12 0 19 -7 19 -18s-7 -20 -19 -20c-11 0 -20 9 -20 20zM385 189c0 12 9 20 18 20
c12 0 20 -8 20 -20c0 -8 -8 -18 -20 -18c-9 0 -18 10 -18 18zM326 244c0 12 9 20 20 20s18 -8 18 -20c0 -11 -7 -19 -18 -19s-20 8 -20 19zM268 298c0 11 8 18 19 18c12 0 19 -7 19 -18s-7 -20 -19 -20c-11 0 -19 9 -19 20zM209 358c0 12 10 20 19 20c11 0 19 -8 19 -20
c0 -9 -8 -18 -19 -18c-9 0 -19 9 -19 18zM268 411c0 12 8 19 19 19c12 0 19 -7 19 -19c0 -11 -7 -19 -19 -19c-11 0 -19 8 -19 19zM325 465c0 11 9 18 20 18s18 -7 18 -18s-7 -20 -18 -20s-20 9 -20 20zM382 519c0 11 9 19 18 19c12 0 20 -8 20 -19s-8 -19 -20 -19
c-9 0 -18 8 -18 19zM432 571c0 12 8 19 19 19c12 0 19 -7 19 -19c0 -11 -7 -19 -19 -19c-11 0 -19 8 -19 19zM482 621c0 12 9 19 20 19s19 -7 19 -19c0 -11 -8 -19 -19 -19s-20 8 -20 19zM216 273l239 -237c24 -24 46 -36 67 -36s39 7 53 21c13 15 20 32 20 53
s-13 44 -38 69l-227 211l212 199c44 47 36 96 5 121c-31 24 -74 26 -119 -25l-212 -215v165c0 67 -34 95 -79 95c-47 0 -79 -28 -79 -95v-503c0 -68 32 -96 79 -96c45 0 79 28 79 96v177z" />
    <glyph glyph-name="L" unicode="L" horiz-adv-x="492" 
d="M216 146v452c0 67 -34 95 -79 95c-47 0 -79 -28 -79 -95v-532c0 -55 15 -66 76 -66h253c49 0 77 25 77 73c0 47 -28 73 -77 73h-171zM117 615c0 12 9 19 20 19s18 -7 18 -19c0 -11 -7 -19 -18 -19s-20 8 -20 19zM117 531c0 12 9 19 20 19s18 -7 18 -19
c0 -11 -7 -19 -18 -19s-20 8 -20 19zM117 440c0 12 9 20 20 20s18 -8 18 -20c0 -9 -7 -18 -18 -18s-20 9 -20 18zM117 348c0 11 9 19 20 19s18 -8 18 -19c0 -9 -7 -19 -18 -19s-20 10 -20 19zM117 258c0 11 9 18 20 18s18 -7 18 -18s-7 -20 -18 -20s-20 9 -20 20zM117 164
c0 12 9 19 20 19s18 -7 18 -19c0 -11 -7 -19 -18 -19s-20 8 -20 19zM117 73c0 12 9 20 20 20s18 -8 18 -20c0 -11 -7 -18 -18 -18s-20 7 -20 18zM367 73c0 12 9 20 20 20s18 -8 18 -20c0 -11 -7 -18 -18 -18s-20 7 -20 18zM286 73c0 12 10 20 19 20c11 0 19 -8 19 -20
c0 -11 -8 -18 -19 -18c-9 0 -19 7 -19 18zM201 73c0 12 9 20 20 20s18 -8 18 -20c0 -11 -7 -18 -18 -18s-20 7 -20 18z" />
    <glyph glyph-name="M" unicode="M" horiz-adv-x="828" 
d="M617 402l-5 -306c0 -68 34 -96 79 -96c47 0 80 28 80 96v494c0 79 -30 104 -89 104c-42 0 -71 -19 -90 -47l-178 -303l-179 303c-19 34 -43 47 -89 47c-59 0 -88 -25 -88 -104v-494c0 -68 32 -96 79 -96c45 0 79 28 79 96l-5 306l143 -243c12 -17 27 -28 44 -31
c6 -1 11 -1 16 -1s10 0 15 1c18 3 33 14 46 31zM117 618c0 12 9 19 20 19s18 -7 18 -19c0 -11 -7 -19 -18 -19s-20 8 -20 19zM117 542c0 11 9 19 20 19s18 -8 18 -19s-7 -20 -18 -20s-20 9 -20 20zM117 466c0 11 9 18 20 18s18 -7 18 -18s-7 -20 -18 -20s-20 9 -20 20z
M117 389c0 11 9 19 20 19s18 -8 18 -19c0 -9 -7 -19 -18 -19s-20 10 -20 19zM117 312c0 12 9 20 20 20s18 -8 18 -20c0 -9 -7 -18 -18 -18s-20 9 -20 18zM117 236c0 12 9 20 20 20s18 -8 18 -20c0 -9 -7 -18 -18 -18s-20 9 -20 18zM117 160c0 12 9 20 20 20s18 -8 18 -20
c0 -11 -7 -18 -18 -18s-20 7 -20 18zM117 84c0 12 9 19 20 19s18 -7 18 -19c0 -11 -7 -20 -18 -20s-20 9 -20 20zM672 618c0 12 10 19 19 19c12 0 20 -7 20 -19c0 -11 -8 -19 -20 -19c-9 0 -19 8 -19 19zM672 542c0 11 10 19 19 19c12 0 20 -8 20 -19s-8 -20 -20 -20
c-9 0 -19 9 -19 20zM672 466c0 11 10 18 19 18c12 0 20 -7 20 -18s-8 -20 -20 -20c-9 0 -19 9 -19 20zM672 389c0 11 10 19 19 19c12 0 20 -8 20 -19c0 -9 -8 -19 -20 -19c-9 0 -19 10 -19 19zM672 312c0 12 10 20 19 20c12 0 20 -8 20 -20c0 -9 -8 -18 -20 -18
c-9 0 -19 9 -19 18zM672 236c0 12 10 20 19 20c12 0 20 -8 20 -20c0 -9 -8 -18 -20 -18c-9 0 -19 9 -19 18zM672 160c0 12 10 20 19 20c12 0 20 -8 20 -20c0 -11 -8 -18 -20 -18c-9 0 -19 7 -19 18zM672 84c0 12 10 19 19 19c12 0 20 -7 20 -19c0 -11 -8 -20 -20 -20
c-9 0 -19 9 -19 20zM190 541c0 11 9 19 20 19c12 0 19 -8 19 -19s-7 -20 -19 -20c-11 0 -20 9 -20 20zM394 208c0 12 8 19 19 19c12 0 19 -7 19 -19c0 -11 -7 -20 -19 -20c-11 0 -19 9 -19 20zM350 271c0 12 8 20 19 20c12 0 19 -8 19 -20c0 -8 -7 -18 -19 -18
c-11 0 -19 10 -19 18zM309 340c0 11 8 18 19 18c12 0 19 -7 19 -18s-7 -20 -19 -20c-11 0 -19 9 -19 20zM270 405c0 12 8 20 19 20c12 0 19 -8 19 -20c0 -11 -7 -18 -19 -18c-11 0 -19 7 -19 18zM229 472c0 11 8 19 19 19c12 0 19 -8 19 -19c0 -9 -7 -19 -19 -19
c-11 0 -19 10 -19 19zM437 271c0 12 9 20 20 20c12 0 19 -8 19 -20c0 -8 -7 -18 -19 -18c-11 0 -20 10 -20 18zM477 340c0 11 8 18 19 18c12 0 19 -7 19 -18s-7 -20 -19 -20c-11 0 -19 9 -19 20zM520 405c0 12 8 20 19 20c12 0 19 -8 19 -20c0 -11 -7 -18 -19 -18
c-11 0 -19 7 -19 18zM561 472c0 11 8 19 19 19c12 0 19 -8 19 -19c0 -9 -7 -19 -19 -19c-11 0 -19 10 -19 19zM599 541c0 11 8 19 19 19c12 0 19 -8 19 -19s-7 -20 -19 -20c-11 0 -19 9 -19 20z" />
    <glyph glyph-name="N" unicode="N" horiz-adv-x="674" 
d="M211 394l239 -345c25 -36 55 -54 89 -54c49 0 78 29 78 77v527c0 67 -34 95 -79 95s-79 -28 -79 -95l5 -305l-240 352c-25 35 -55 53 -88 53c-49 0 -78 -29 -78 -77v-526c0 -68 32 -96 79 -96c45 0 79 28 79 96zM117 618c0 12 9 19 20 19s18 -7 18 -19
c0 -11 -7 -19 -18 -19s-20 8 -20 19zM117 542c0 11 9 19 20 19s18 -8 18 -19s-7 -20 -18 -20s-20 9 -20 20zM117 466c0 11 9 18 20 18s18 -7 18 -18s-7 -20 -18 -20s-20 9 -20 20zM117 389c0 11 9 19 20 19s18 -8 18 -19c0 -9 -7 -19 -18 -19s-20 10 -20 19zM117 312
c0 12 9 20 20 20s18 -8 18 -20c0 -9 -7 -18 -18 -18s-20 9 -20 18zM117 236c0 12 9 20 20 20s18 -8 18 -20c0 -9 -7 -18 -18 -18s-20 9 -20 18zM117 160c0 12 9 20 20 20s18 -8 18 -20c0 -11 -7 -18 -18 -18s-20 7 -20 18zM117 84c0 12 9 19 20 19s18 -7 18 -19
c0 -11 -7 -20 -18 -20s-20 9 -20 20zM520 618c0 12 8 19 19 19c12 0 19 -7 19 -19c0 -11 -7 -19 -19 -19c-11 0 -19 8 -19 19zM520 542c0 11 8 19 19 19c12 0 19 -8 19 -19s-7 -20 -19 -20c-11 0 -19 9 -19 20zM520 466c0 11 8 18 19 18c12 0 19 -7 19 -18s-7 -20 -19 -20
c-11 0 -19 9 -19 20zM520 389c0 11 8 19 19 19c12 0 19 -8 19 -19c0 -9 -7 -19 -19 -19c-11 0 -19 10 -19 19zM520 312c0 12 8 20 19 20c12 0 19 -8 19 -20c0 -9 -7 -18 -19 -18c-11 0 -19 9 -19 18zM520 236c0 12 8 20 19 20c12 0 19 -8 19 -20c0 -9 -7 -18 -19 -18
c-11 0 -19 9 -19 18zM520 160c0 12 8 20 19 20c12 0 19 -8 19 -20c0 -11 -7 -18 -19 -18c-11 0 -19 7 -19 18zM520 84c0 12 8 19 19 19c12 0 19 -7 19 -19c0 -11 -7 -20 -19 -20c-11 0 -19 9 -19 20zM191 533c0 12 9 19 20 19c12 0 18 -7 18 -19c0 -11 -6 -19 -18 -19
c-11 0 -20 8 -20 19zM239 457c0 12 9 19 20 19s18 -7 18 -19c0 -11 -7 -20 -18 -20s-20 9 -20 20zM290 387c0 12 10 19 19 19c11 0 19 -7 19 -19c0 -9 -8 -19 -19 -19c-9 0 -19 10 -19 19zM340 315c0 12 9 20 18 20c12 0 20 -8 20 -20c0 -9 -8 -18 -20 -18
c-9 0 -18 9 -18 18zM392 242c0 12 8 20 19 20c12 0 19 -8 19 -20c0 -11 -7 -18 -19 -18c-11 0 -19 7 -19 18zM445 169c0 12 9 18 20 18s18 -6 18 -18c0 -11 -7 -20 -18 -20s-20 9 -20 20z" />
    <glyph glyph-name="O" unicode="O" 
d="M398 141c-57 0 -104 19 -139 56c-35 38 -53 88 -53 150s18 112 53 150s82 57 139 57s104 -19 139 -57c36 -38 54 -88 54 -150s-18 -112 -54 -150c-35 -37 -82 -56 -139 -56zM398 -17c103 0 188 34 257 101c69 68 104 155 104 262s-35 194 -104 261
c-69 68 -155 102 -257 102c-101 0 -187 -34 -256 -101s-104 -155 -104 -262s34 -194 103 -262c69 -67 155 -101 257 -101zM664 347c0 11 8 19 19 19s19 -8 19 -19c0 -9 -8 -19 -19 -19s-19 10 -19 19zM381 61c0 11 9 19 18 19c12 0 20 -8 20 -19c0 -9 -8 -19 -20 -19
c-9 0 -18 10 -18 19zM582 145c0 11 8 19 19 19s19 -8 19 -19c0 -9 -8 -19 -19 -19s-19 10 -19 19zM627 204c0 12 8 20 19 20s19 -8 19 -20c0 -11 -8 -19 -19 -19s-19 8 -19 19zM654 272c0 12 10 20 19 20c12 0 19 -8 19 -20c0 -9 -7 -18 -19 -18c-9 0 -19 9 -19 18zM525 99
c0 9 9 18 20 18s18 -9 18 -18c0 -11 -7 -20 -18 -20s-20 9 -20 20zM455 69c0 12 10 20 19 20c11 0 19 -8 19 -20c0 -9 -8 -18 -19 -18c-9 0 -19 9 -19 18zM399 612c-11 0 -18 10 -18 19c0 12 7 19 18 19s20 -7 20 -19c0 -9 -9 -19 -20 -19zM602 532c-12 0 -19 10 -19 19
c0 12 7 19 19 19c9 0 19 -7 19 -19c0 -9 -10 -19 -19 -19zM542 579c-12 0 -20 8 -20 19s8 19 20 19c9 0 19 -8 19 -19s-10 -19 -19 -19zM471 605c-11 0 -19 9 -19 20s8 19 19 19s19 -8 19 -19s-8 -20 -19 -20zM646 475c-11 0 -18 8 -18 19c0 12 7 19 18 19s20 -7 20 -19
c0 -11 -9 -19 -20 -19zM675 404c-11 0 -19 9 -19 20s8 18 19 18s19 -7 19 -18s-8 -20 -19 -20zM197 161c12 0 20 -10 20 -18c0 -12 -8 -20 -20 -20c-11 0 -18 8 -18 20c0 8 7 18 18 18zM257 115c11 0 18 -9 18 -18c0 -12 -7 -20 -18 -20s-20 8 -20 20c0 9 9 18 20 18z
M327 89c12 0 19 -9 19 -20s-7 -18 -19 -18c-11 0 -19 7 -19 18s8 20 19 20zM152 222c12 0 20 -9 20 -20c0 -12 -8 -19 -20 -19c-9 0 -18 7 -18 19c0 11 9 20 18 20zM125 290c12 0 19 -10 19 -19c0 -11 -7 -19 -19 -19c-11 0 -20 8 -20 19c0 9 9 19 20 19zM135 347
c0 -11 -9 -19 -20 -19c-12 0 -18 8 -18 19c0 9 6 19 18 19c11 0 20 -10 20 -19zM216 549c0 -11 -9 -19 -20 -19c-12 0 -18 8 -18 19s6 19 18 19c11 0 20 -8 20 -19zM171 490c0 -12 -9 -19 -20 -19s-18 7 -18 19c0 11 7 19 18 19s20 -8 20 -19zM143 422c0 -12 -8 -20 -19 -20
c-12 0 -20 8 -20 20c0 9 8 18 20 18c11 0 19 -9 19 -18zM271 596c0 -11 -7 -19 -18 -19c-12 0 -20 8 -20 19s8 19 20 19c11 0 18 -8 18 -19zM343 625c0 -12 -9 -20 -20 -20c-12 0 -18 8 -18 20c0 9 6 19 18 19c11 0 20 -10 20 -19z" />
    <glyph glyph-name="P" unicode="P" horiz-adv-x="563" 
d="M216 366v192h49c73 0 108 -37 108 -100c0 -61 -37 -92 -108 -92h-49zM216 223h49c176 0 260 87 260 235c0 144 -94 236 -263 236h-128c-48 0 -76 -11 -76 -66v-532c0 -68 32 -96 79 -96c45 0 79 28 79 96v127zM117 624c0 11 9 19 20 19s18 -8 18 -19s-7 -20 -18 -20
s-20 9 -20 20zM117 547c0 11 9 18 20 18s18 -7 18 -18s-7 -20 -18 -20s-20 9 -20 20zM117 468c0 12 9 19 20 19s18 -7 18 -19c0 -9 -7 -19 -18 -19s-20 10 -20 19zM117 390c0 11 9 19 20 19s18 -8 18 -19c0 -9 -7 -19 -18 -19s-20 10 -20 19zM117 310c0 11 9 19 20 19
s18 -8 18 -19c0 -9 -7 -19 -18 -19s-20 10 -20 19zM117 231c0 12 9 20 20 20s18 -8 18 -20c0 -9 -7 -18 -18 -18s-20 9 -20 18zM117 153c0 12 9 20 20 20s18 -8 18 -20c0 -9 -7 -18 -18 -18s-20 9 -20 18zM117 75c0 12 9 20 20 20s18 -8 18 -20c0 -11 -7 -18 -18 -18
s-20 7 -20 18zM193 626c0 11 9 19 20 19c12 0 18 -8 18 -19s-6 -20 -18 -20c-11 0 -20 9 -20 20zM271 624c0 11 8 19 19 19c12 0 19 -8 19 -19s-7 -20 -19 -20c-11 0 -19 9 -19 20zM345 607c0 12 7 20 18 20c12 0 20 -8 20 -20c0 -9 -8 -18 -20 -18c-11 0 -18 9 -18 18z
M195 294c0 12 9 18 20 18c12 0 18 -6 18 -18c0 -11 -6 -20 -18 -20c-11 0 -20 9 -20 20zM274 297c0 11 9 18 20 18c12 0 18 -7 18 -18s-6 -20 -18 -20c-11 0 -20 9 -20 20zM350 310c0 11 8 19 19 19c12 0 19 -8 19 -19c0 -9 -7 -19 -19 -19c-11 0 -19 10 -19 19zM408 354
c0 12 10 20 19 20c12 0 19 -8 19 -20c0 -9 -7 -18 -19 -18c-9 0 -19 9 -19 18zM435 425c0 11 8 18 19 18c12 0 19 -7 19 -18s-7 -20 -19 -20c-11 0 -19 9 -19 20zM434 499c0 12 8 19 19 19c12 0 19 -7 19 -19c0 -11 -7 -20 -19 -20c-11 0 -19 9 -19 20zM401 563
c0 12 9 20 20 20s18 -8 18 -20c0 -9 -7 -18 -18 -18s-20 9 -20 18z" />
    <glyph glyph-name="Q" unicode="Q" 
d="M622 56c11 8 22 18 33 29c69 67 104 154 104 261s-35 194 -104 261c-69 68 -155 102 -257 102c-101 0 -187 -34 -256 -101s-104 -155 -104 -262s34 -194 103 -262c69 -67 155 -101 257 -101c31 0 60 3 88 10c47 -63 82 -84 103 -92s51 -16 76 -13c52 5 77 35 74 70
c-1 35 -21 63 -73 66c-16 3 -31 13 -44 32zM662 347c0 11 8 19 19 19s19 -8 19 -19c0 -9 -8 -19 -19 -19s-19 10 -19 19zM381 61c0 11 9 19 18 19c12 0 20 -8 20 -19c0 -9 -8 -19 -20 -19c-9 0 -18 10 -18 19zM582 145c0 11 8 19 19 19s19 -8 19 -19c0 -9 -8 -19 -19 -19
s-19 10 -19 19zM627 204c0 12 8 20 19 20s19 -8 19 -20c0 -11 -8 -19 -19 -19s-19 8 -19 19zM654 272c0 12 10 20 19 20c12 0 19 -8 19 -20c0 -9 -7 -18 -19 -18c-9 0 -19 9 -19 18zM525 99c0 9 9 18 20 18s18 -9 18 -18c0 -11 -7 -20 -18 -20s-20 9 -20 20zM455 69
c0 12 10 20 19 20c11 0 19 -8 19 -20c0 -9 -8 -18 -19 -18c-9 0 -19 9 -19 18zM399 612c-11 0 -18 10 -18 19c0 12 7 19 18 19s20 -7 20 -19c0 -9 -9 -19 -20 -19zM599 534c-12 0 -19 10 -19 19c0 12 7 19 19 19c9 0 19 -7 19 -19c0 -9 -10 -19 -19 -19zM542 579
c-12 0 -20 8 -20 19s8 19 20 19c9 0 19 -8 19 -19s-10 -19 -19 -19zM471 605c-11 0 -19 9 -19 20s8 19 19 19s19 -8 19 -19s-8 -20 -19 -20zM646 475c-12 0 -19 8 -19 19c0 12 7 19 19 19c9 0 19 -7 19 -19c0 -11 -10 -19 -19 -19zM675 404c-11 0 -19 9 -19 20s8 18 19 18
s19 -7 19 -18s-8 -20 -19 -20zM199 160c12 0 20 -10 20 -18c0 -12 -8 -20 -20 -20c-11 0 -18 8 -18 20c0 8 7 18 18 18zM257 115c11 0 18 -9 18 -18c0 -12 -7 -20 -18 -20s-20 8 -20 20c0 9 9 18 20 18zM327 89c12 0 19 -9 19 -20s-7 -18 -19 -18c-11 0 -19 7 -19 18
s8 20 19 20zM152 220c12 0 20 -9 20 -20c0 -12 -8 -18 -20 -18c-9 0 -18 6 -18 18c0 11 9 20 18 20zM123 290c12 0 20 -10 20 -19c0 -11 -8 -19 -20 -19c-11 0 -19 8 -19 19c0 9 8 19 19 19zM136 347c0 -11 -9 -19 -20 -19c-12 0 -18 8 -18 19c0 9 6 19 18 19
c11 0 20 -10 20 -19zM216 549c0 -11 -9 -19 -20 -19c-12 0 -18 8 -18 19s6 19 18 19c11 0 20 -8 20 -19zM171 490c0 -12 -9 -19 -20 -19s-18 7 -18 19c0 11 7 19 18 19s20 -8 20 -19zM143 422c0 -12 -8 -20 -19 -20c-12 0 -20 8 -20 20c0 9 8 18 20 18c11 0 19 -9 19 -18z
M271 596c0 -11 -7 -19 -18 -19c-12 0 -20 8 -20 19s8 19 20 19c11 0 18 -8 18 -19zM343 625c0 -12 -9 -20 -20 -20c-12 0 -18 8 -18 20c0 9 6 19 18 19c11 0 20 -10 20 -19zM647 -45c0 12 9 20 20 20s19 -8 19 -20c0 -11 -8 -18 -19 -18s-20 7 -20 18zM531 26
c0 12 10 20 19 20c12 0 19 -8 19 -20c0 -8 -7 -18 -19 -18c-9 0 -19 10 -19 18zM583 -22c0 9 8 18 19 18s19 -9 19 -18c0 -11 -8 -20 -19 -20s-19 9 -19 20zM398 141c-57 0 -104 19 -139 56c-35 38 -53 88 -53 150s18 112 53 150s82 57 139 57s104 -19 139 -57
c36 -38 54 -88 54 -150s-18 -112 -54 -150c-35 -37 -82 -56 -139 -56z" />
    <glyph glyph-name="R" unicode="R" horiz-adv-x="580" 
d="M216 265l121 -184c50 -72 83 -86 135 -86c26 1 45 9 57 23c12 11 19 27 20 48c1 24 -5 43 -18 57c-8 9 -20 15 -37 19c-16 3 -33 18 -50 46l-51 83c36 7 68 29 95 64c28 37 42 84 42 142c-1 129 -94 217 -259 217h-147c-43 0 -66 -16 -66 -71v-527c0 -69 32 -96 79 -96
c45 0 79 27 79 96v169zM216 390v159h55c63 0 99 -30 99 -83c0 -48 -36 -76 -100 -76h-54zM117 622c0 12 9 19 20 19s18 -7 18 -19c0 -11 -7 -19 -18 -19s-20 8 -20 19zM117 549c0 11 9 18 20 18s18 -7 18 -18s-7 -20 -18 -20s-20 9 -20 20zM117 472c0 11 9 19 20 19
s18 -8 18 -19c0 -9 -7 -19 -18 -19s-20 10 -20 19zM117 395c0 11 9 19 20 19s18 -8 18 -19s-7 -19 -18 -19s-20 8 -20 19zM117 318c0 12 9 20 20 20s18 -8 18 -20c0 -9 -7 -18 -18 -18s-20 9 -20 18zM117 239c0 12 9 20 20 20s18 -8 18 -20c0 -11 -7 -18 -18 -18
s-20 7 -20 18zM117 162c0 12 9 20 20 20s18 -8 18 -20c0 -11 -7 -19 -18 -19s-20 8 -20 19zM117 84c0 12 9 19 20 19s18 -7 18 -19c0 -11 -7 -20 -18 -20s-20 9 -20 20zM193 624c0 11 9 19 20 19c12 0 18 -8 18 -19s-6 -20 -18 -20c-11 0 -20 9 -20 20zM270 623
c0 11 8 19 19 19c12 0 19 -8 19 -19s-7 -19 -19 -19c-11 0 -19 8 -19 19zM345 608c0 12 7 20 18 20c12 0 20 -8 20 -20c0 -9 -8 -18 -20 -18c-11 0 -18 9 -18 18zM404 568c0 12 9 20 20 20s18 -8 18 -20c0 -9 -7 -19 -18 -19s-20 10 -20 19zM436 508c0 11 8 18 19 18
c12 0 19 -7 19 -18s-7 -20 -19 -20c-11 0 -19 9 -19 20zM402 373c0 12 9 19 20 19s18 -7 18 -19c0 -11 -7 -19 -18 -19s-20 8 -20 19zM340 337c0 12 9 18 18 18c12 0 20 -6 20 -18c0 -11 -8 -20 -20 -20c-9 0 -18 9 -18 20zM193 319c0 12 9 20 20 20c12 0 18 -8 18 -20
c0 -9 -6 -18 -18 -18c-11 0 -20 9 -20 18zM267 319c0 12 8 20 19 20c12 0 19 -8 19 -20c0 -9 -7 -18 -19 -18c-11 0 -19 9 -19 18zM437 437c0 12 8 20 19 20c12 0 19 -8 19 -20c0 -9 -7 -18 -19 -18c-11 0 -19 9 -19 18zM459 67c0 12 8 20 19 20s19 -8 19 -20
c0 -8 -8 -18 -19 -18s-19 10 -19 18zM392 108c0 12 8 20 19 20c12 0 19 -8 19 -20c0 -8 -7 -18 -19 -18c-11 0 -19 10 -19 18zM343 174c0 12 9 18 18 18c12 0 20 -6 20 -18c0 -11 -8 -20 -20 -20c-9 0 -18 9 -18 20zM296 242c0 12 9 20 18 20c12 0 20 -8 20 -20
c0 -11 -8 -18 -20 -18c-9 0 -18 7 -18 18z" />
    <glyph glyph-name="S" unicode="S" horiz-adv-x="518" 
d="M325 200c0 -40 -31 -71 -88 -71c-25 0 -50 7 -75 20s-43 20 -56 20c-47 0 -78 -33 -78 -76c0 -30 20 -56 59 -79s88 -34 147 -34c75 0 136 20 183 61c48 41 72 95 72 164c0 57 -15 101 -46 131c-30 30 -81 59 -154 86c-62 23 -93 50 -93 81c0 41 30 64 77 64
c24 0 44 -5 61 -16c17 -10 32 -15 45 -15c44 0 70 26 70 74c0 59 -70 102 -179 102c-69 0 -126 -19 -171 -57c-45 -37 -67 -88 -67 -152c0 -101 62 -164 182 -207c43 -16 73 -30 88 -42c15 -11 23 -29 23 -54zM85 93c0 12 10 18 19 18c11 0 19 -6 19 -18
c0 -11 -8 -20 -19 -20c-9 0 -19 9 -19 20zM152 60c0 9 9 18 20 18c12 0 18 -9 18 -18c0 -11 -6 -20 -18 -20c-11 0 -20 9 -20 20zM227 52c0 12 8 18 19 18c12 0 19 -6 19 -18c0 -11 -7 -20 -19 -20c-11 0 -19 9 -19 20zM301 66c0 12 9 20 18 20c12 0 20 -8 20 -20
c0 -8 -8 -18 -20 -18c-9 0 -18 10 -18 18zM361 107c0 12 9 20 20 20s18 -8 18 -20c0 -8 -7 -18 -18 -18s-20 10 -20 18zM393 173c0 12 8 18 19 18c12 0 19 -6 19 -18c0 -11 -7 -20 -19 -20c-11 0 -19 9 -19 20zM389 248c0 12 8 19 19 19c12 0 19 -7 19 -19
c0 -11 -7 -19 -19 -19c-11 0 -19 8 -19 19zM342 304c0 11 9 18 18 18c12 0 20 -7 20 -18s-8 -20 -20 -20c-9 0 -18 9 -18 20zM276 342c0 11 9 18 20 18c12 0 18 -7 18 -18s-6 -20 -18 -20c-11 0 -20 9 -20 20zM207 371c0 12 10 19 19 19c11 0 19 -7 19 -19
c0 -11 -8 -19 -19 -19c-9 0 -19 8 -19 19zM140 411c0 12 7 19 18 19c12 0 20 -7 20 -19c0 -11 -8 -19 -20 -19c-11 0 -18 8 -18 19zM395 615c0 -12 -8 -19 -19 -19c-12 0 -20 7 -20 19c0 11 8 19 20 19c11 0 19 -8 19 -19zM320 643c0 -12 -9 -19 -18 -19c-12 0 -20 7 -20 19
c0 9 8 19 20 19c9 0 18 -10 18 -19zM240 640c0 -12 -9 -19 -18 -19c-12 0 -20 7 -20 19c0 9 8 19 20 19c9 0 18 -10 18 -19zM169 611c0 -11 -9 -19 -20 -19c-9 0 -18 8 -18 19s9 20 18 20c11 0 20 -9 20 -20zM128 549c0 -11 -9 -19 -20 -19c-9 0 -18 8 -18 19s9 19 18 19
c11 0 20 -8 20 -19zM131 472c0 -11 -9 -19 -20 -19s-18 8 -18 19c0 9 7 19 18 19s20 -10 20 -19z" />
    <glyph glyph-name="T" unicode="T" horiz-adv-x="521" 
d="M182 549v-453c0 -68 32 -96 79 -96c45 0 79 28 79 96v453h95c48 0 76 25 76 73c0 47 -28 72 -76 72h-349c-48 0 -76 -25 -76 -73c0 -47 28 -72 76 -72h96zM241 621c0 12 9 19 20 19s18 -7 18 -19c0 -11 -7 -19 -18 -19s-20 8 -20 19zM241 542c0 11 9 19 20 19
s18 -8 18 -19s-7 -20 -18 -20s-20 9 -20 20zM241 466c0 11 9 18 20 18s18 -7 18 -18s-7 -20 -18 -20s-20 9 -20 20zM241 389c0 11 9 19 20 19s18 -8 18 -19c0 -9 -7 -19 -18 -19s-20 10 -20 19zM241 312c0 12 9 20 20 20s18 -8 18 -20c0 -9 -7 -18 -18 -18s-20 9 -20 18z
M241 236c0 12 9 20 20 20s18 -8 18 -20c0 -9 -7 -18 -18 -18s-20 9 -20 18zM241 160c0 12 9 20 20 20s18 -8 18 -20c0 -11 -7 -18 -18 -18s-20 7 -20 18zM241 84c0 12 9 19 20 19s18 -7 18 -19c0 -11 -7 -20 -18 -20s-20 9 -20 20zM150 621c0 12 9 19 20 19
c12 0 18 -7 18 -19c0 -11 -6 -19 -18 -19c-11 0 -20 8 -20 19zM69 621c0 12 9 19 20 19c12 0 18 -7 18 -19c0 -11 -6 -19 -18 -19c-11 0 -20 8 -20 19zM413 621c0 12 10 19 19 19c11 0 19 -7 19 -19c0 -11 -8 -19 -19 -19c-9 0 -19 8 -19 19zM327 621c0 12 10 19 19 19
c11 0 19 -7 19 -19c0 -11 -8 -19 -19 -19c-9 0 -19 8 -19 19z" />
    <glyph glyph-name="U" unicode="U" horiz-adv-x="691" 
d="M555 694c-45 0 -79 -28 -79 -95v-290c0 -111 -51 -175 -130 -175c-80 0 -130 64 -130 175v290c0 67 -34 95 -79 95c-47 0 -79 -28 -79 -95v-294c0 -101 26 -179 78 -235c53 -56 123 -84 210 -84s157 28 209 84c53 56 79 134 79 235v294c0 67 -32 95 -79 95zM466 105
c0 12 9 20 18 20c12 0 20 -8 20 -20c0 -8 -8 -18 -20 -18c-9 0 -18 10 -18 18zM117 616c0 12 9 19 20 19s18 -7 18 -19c0 -11 -7 -19 -18 -19s-20 8 -20 19zM117 311c0 11 9 19 20 19s18 -8 18 -19c0 -9 -7 -19 -18 -19s-20 10 -20 19zM536 616c0 12 10 19 19 19
c11 0 19 -7 19 -19c0 -11 -8 -19 -19 -19c-9 0 -19 8 -19 19zM536 540c0 12 10 19 19 19c11 0 19 -7 19 -19c0 -11 -8 -19 -19 -19c-9 0 -19 8 -19 19zM536 464c0 11 10 18 19 18c11 0 19 -7 19 -18s-8 -20 -19 -20c-9 0 -19 9 -19 20zM117 387c0 12 9 19 20 19
s18 -7 18 -19c0 -9 -7 -19 -18 -19s-20 10 -20 19zM536 311c0 11 10 19 19 19c11 0 19 -8 19 -19c0 -9 -8 -19 -19 -19c-9 0 -19 10 -19 19zM533 234c0 12 10 20 19 20c12 0 19 -8 19 -20c0 -9 -7 -18 -19 -18c-9 0 -19 9 -19 18zM121 234c0 12 9 20 20 20c9 0 18 -8 18 -20
c0 -9 -9 -18 -18 -18c-11 0 -20 9 -20 18zM331 53c0 11 10 18 19 18c11 0 19 -7 19 -18s-8 -20 -19 -20c-9 0 -19 9 -19 20zM404 66c0 12 9 20 20 20s18 -8 18 -20c0 -8 -7 -18 -18 -18s-20 10 -20 18zM117 464c0 11 9 18 20 18s18 -7 18 -18s-7 -20 -18 -20s-20 9 -20 20z
M511 162c0 12 8 20 19 20c12 0 19 -8 19 -20c0 -11 -7 -19 -19 -19c-11 0 -19 8 -19 19zM257 64c0 12 9 20 18 20c12 0 20 -8 20 -20c0 -8 -8 -18 -20 -18c-9 0 -18 10 -18 18zM191 103c0 11 9 19 20 19c12 0 18 -8 18 -19c0 -9 -6 -19 -18 -19c-11 0 -20 10 -20 19z
M144 162c0 12 8 20 19 20c12 0 20 -8 20 -20c0 -11 -8 -19 -20 -19c-11 0 -19 8 -19 19zM536 387c0 12 10 19 19 19c11 0 19 -7 19 -19c0 -9 -8 -19 -19 -19c-9 0 -19 10 -19 19zM117 540c0 12 9 19 20 19s18 -7 18 -19c0 -11 -7 -19 -18 -19s-20 8 -20 19z" />
    <glyph glyph-name="V" unicode="V" horiz-adv-x="651" 
d="M305 67c0 12 8 20 19 20c12 0 20 -8 20 -20c0 -8 -8 -18 -20 -18c-11 0 -19 10 -19 18zM268 146c0 12 8 20 19 20c12 0 19 -8 19 -20c0 -8 -7 -18 -19 -18c-11 0 -19 10 -19 18zM345 147c0 12 7 20 18 20c12 0 20 -8 20 -20c0 -8 -8 -18 -20 -18c-11 0 -18 10 -18 18z
M374 224c0 11 10 19 19 19c11 0 19 -8 19 -19c0 -9 -8 -19 -19 -19c-9 0 -19 10 -19 19zM441 384c0 11 9 18 20 18s18 -7 18 -18s-7 -20 -18 -20s-20 9 -20 20zM472 462c0 11 8 18 19 18c12 0 19 -7 19 -18s-7 -20 -19 -20c-11 0 -19 9 -19 20zM507 540c0 12 9 19 18 19
c12 0 20 -7 20 -19c0 -11 -8 -19 -20 -19c-9 0 -18 8 -18 19zM538 615c0 12 8 19 19 19s19 -7 19 -19c0 -11 -8 -19 -19 -19s-19 8 -19 19zM325 257l-151 374c-25 61 -66 76 -110 57c-41 -17 -60 -55 -36 -119l218 -511c12 -37 46 -71 82 -65c45 1 69 39 77 65l218 511
c25 64 5 102 -36 119c-43 19 -85 4 -109 -57zM408 305c0 11 10 19 19 19c12 0 19 -8 19 -19c0 -9 -7 -19 -19 -19c-9 0 -19 10 -19 19zM233 224c0 11 9 19 20 19c12 0 18 -8 18 -19c0 -9 -6 -19 -18 -19c-11 0 -20 10 -20 19zM198 305c0 11 9 19 20 19s18 -8 18 -19
c0 -9 -7 -19 -18 -19s-20 10 -20 19zM166 384c0 11 10 18 19 18c11 0 19 -7 19 -18s-8 -20 -19 -20c-9 0 -19 9 -19 20zM136 462c0 11 7 18 18 18c12 0 20 -7 20 -18s-8 -20 -20 -20c-11 0 -18 9 -18 20zM104 539c0 12 9 19 20 19c12 0 19 -7 19 -19c0 -11 -7 -19 -19 -19
c-11 0 -20 8 -20 19zM75 615c0 12 9 19 20 19s18 -7 18 -19c0 -11 -7 -19 -18 -19s-20 8 -20 19z" />
    <glyph glyph-name="W" unicode="W" horiz-adv-x="937" 
d="M470 334l101 -270c9 -28 33 -69 75 -69c56 -5 76 41 85 69l182 511c20 65 -1 103 -45 116c-43 17 -85 -2 -104 -63l-114 -349l-101 272c-16 45 -25 55 -48 63c-11 5 -22 7 -33 7c-24 0 -42 -10 -57 -26c-7 -7 -14 -22 -22 -44l-102 -272l-113 349c-20 61 -61 80 -105 63
c-44 -13 -64 -51 -45 -116l182 -511c12 -29 31 -69 75 -69c53 -5 74 41 85 69zM265 67c0 12 8 20 19 20c12 0 20 -8 20 -20c0 -8 -8 -18 -20 -18c-11 0 -19 10 -19 18zM231 145c0 11 9 19 20 19c12 0 19 -8 19 -19c0 -9 -7 -19 -19 -19c-11 0 -20 10 -20 19zM299 145
c0 11 9 19 18 19c12 0 20 -8 20 -19c0 -9 -8 -19 -20 -19c-9 0 -18 10 -18 19zM446 542c0 11 9 19 20 19s18 -8 18 -19s-7 -20 -18 -20s-20 9 -20 20zM604 145c0 11 9 19 20 19s19 -8 19 -19c0 -9 -8 -19 -19 -19s-20 10 -20 19zM635 67c0 12 8 20 19 20c12 0 19 -8 19 -20
c0 -8 -7 -18 -19 -18c-11 0 -19 10 -19 18zM671 145c0 11 10 19 19 19c12 0 20 -8 20 -19c0 -9 -8 -19 -20 -19c-9 0 -19 10 -19 19zM696 226c0 11 10 19 19 19c12 0 19 -8 19 -19c0 -9 -7 -19 -19 -19c-9 0 -19 10 -19 19zM722 305c0 11 8 19 19 19c12 0 19 -8 19 -19
c0 -9 -7 -19 -19 -19c-11 0 -19 10 -19 19zM747 385c0 11 8 18 19 18s19 -7 19 -18s-8 -20 -19 -20s-19 9 -19 20zM774 464c0 11 10 18 19 18c12 0 19 -7 19 -18s-7 -20 -19 -20c-9 0 -19 9 -19 20zM799 540c0 12 10 19 19 19c12 0 19 -7 19 -19c0 -11 -7 -19 -19 -19
c-9 0 -19 8 -19 19zM823 616c0 12 8 19 19 19c12 0 19 -7 19 -19c0 -11 -7 -19 -19 -19c-11 0 -19 8 -19 19zM576 226c0 11 10 19 19 19c12 0 19 -8 19 -19c0 -9 -7 -19 -19 -19c-9 0 -19 10 -19 19zM329 226c0 11 10 19 19 19c11 0 19 -8 19 -19c0 -9 -8 -19 -19 -19
c-9 0 -19 10 -19 19zM204 226c0 11 9 19 20 19c9 0 18 -8 18 -19c0 -9 -9 -19 -18 -19c-11 0 -20 10 -20 19zM544 306c0 11 9 19 18 19c12 0 20 -8 20 -19c0 -9 -8 -19 -20 -19c-9 0 -18 10 -18 19zM355 306c0 11 9 19 20 19c12 0 19 -8 19 -19c0 -9 -7 -19 -19 -19
c-11 0 -20 10 -20 19zM179 306c0 11 7 19 18 19c12 0 20 -8 20 -19c0 -9 -8 -19 -20 -19c-11 0 -18 10 -18 19zM511 387c0 11 8 18 19 18c12 0 19 -7 19 -18s-7 -20 -19 -20c-11 0 -19 9 -19 20zM388 387c0 11 8 18 19 18c12 0 20 -7 20 -18s-8 -20 -20 -20
c-11 0 -19 9 -19 20zM151 385c0 11 9 18 20 18c12 0 18 -7 18 -18s-6 -20 -18 -20c-11 0 -20 9 -20 20zM479 465c0 11 9 18 20 18c12 0 19 -7 19 -18s-7 -20 -19 -20c-11 0 -20 9 -20 20zM416 463c0 11 8 18 19 18s19 -7 19 -18s-8 -20 -19 -20s-19 9 -19 20zM126 463
c0 11 10 18 19 18c11 0 19 -7 19 -18s-8 -20 -19 -20c-9 0 -19 9 -19 20zM100 539c0 12 7 19 18 19c12 0 20 -7 20 -19c0 -11 -8 -19 -20 -19c-11 0 -18 8 -18 19zM77 616c0 12 9 19 20 19c9 0 18 -7 18 -19c0 -11 -9 -19 -18 -19c-11 0 -20 8 -20 19z" />
    <glyph glyph-name="X" unicode="X" horiz-adv-x="655" 
d="M327 233l153 -195c41 -55 85 -52 121 -24c39 29 46 74 2 126l-177 217l158 195c44 51 34 94 -2 125c-37 28 -79 27 -122 -25l-133 -171l-132 171c-43 52 -83 53 -122 25c-36 -31 -46 -74 -2 -125l158 -195l-176 -217c-44 -52 -38 -97 2 -126c35 -28 79 -31 120 24zM85 81
c0 12 10 20 19 20c11 0 19 -8 19 -20c0 -11 -8 -19 -19 -19c-9 0 -19 8 -19 19zM513 615c0 12 8 19 19 19c12 0 19 -7 19 -19c0 -11 -7 -19 -19 -19c-11 0 -19 8 -19 19zM106 615c0 12 9 19 20 19c12 0 19 -7 19 -19c0 -11 -7 -19 -19 -19c-11 0 -20 8 -20 19zM135 148
c0 12 9 20 18 20c12 0 20 -8 20 -20c0 -8 -8 -18 -20 -18c-9 0 -18 10 -18 18zM188 219c0 11 9 18 20 18c12 0 19 -7 19 -18s-7 -20 -19 -20c-11 0 -20 9 -20 20zM308 359c0 12 8 20 19 20c12 0 19 -8 19 -20c0 -9 -7 -18 -19 -18c-11 0 -19 9 -19 18zM363 429
c0 11 9 19 20 19s18 -8 18 -19c0 -9 -7 -19 -18 -19s-20 10 -20 19zM460 553c0 12 8 19 19 19s19 -7 19 -19c0 -9 -8 -19 -19 -19s-19 10 -19 19zM412 495c0 12 10 19 19 19c11 0 19 -7 19 -19c0 -11 -8 -19 -19 -19c-9 0 -19 8 -19 19zM154 551c0 12 9 19 20 19
c12 0 18 -7 18 -19c0 -9 -6 -19 -18 -19c-11 0 -20 10 -20 19zM202 490c0 12 9 19 20 19c9 0 18 -7 18 -19c0 -11 -9 -19 -18 -19c-11 0 -20 8 -20 19zM252 428c0 12 10 19 19 19c11 0 19 -7 19 -19c0 -9 -8 -19 -19 -19c-9 0 -19 10 -19 19zM244 286c0 12 9 19 20 19
c9 0 18 -7 18 -19c0 -11 -9 -19 -18 -19c-11 0 -20 8 -20 19zM531 80c0 12 10 20 19 20c12 0 19 -8 19 -20c0 -11 -7 -19 -19 -19c-9 0 -19 8 -19 19zM478 146c0 12 8 20 19 20c12 0 19 -8 19 -20c0 -8 -7 -18 -19 -18c-11 0 -19 10 -19 18zM422 218c0 11 9 18 18 18
c12 0 20 -7 20 -18s-8 -20 -20 -20c-9 0 -18 9 -18 20zM366 286c0 12 9 19 20 19s18 -7 18 -19c0 -11 -7 -19 -18 -19s-20 8 -20 19z" />
    <glyph glyph-name="Y" unicode="Y" horiz-adv-x="631" 
d="M315 404l-150 248c-39 55 -85 57 -120 29c-36 -28 -44 -71 -7 -124l198 -311v-150c0 -68 34 -96 79 -96c47 0 80 28 80 96v152l198 309c39 53 30 96 -6 124s-81 26 -120 -29zM296 295c0 12 7 20 16 20c15 -3 22 -8 22 -20c0 -11 -8 -20 -20 -20c-9 0 -18 9 -18 20z
M298 224c0 11 9 19 18 19c12 0 20 -8 20 -19c0 -9 -8 -19 -20 -19c-9 0 -18 10 -18 19zM298 152c0 12 9 20 18 20c12 0 20 -8 20 -20c0 -9 -8 -18 -20 -18c-9 0 -18 9 -18 18zM298 80c0 12 9 20 18 20c12 0 20 -8 20 -20c0 -11 -8 -19 -20 -19c-9 0 -18 8 -18 19zM348 354
c0 11 8 19 19 19c12 0 20 -8 20 -19s-8 -19 -20 -19c-11 0 -19 8 -19 19zM247 354c0 12 10 20 19 20c11 0 19 -8 19 -20c0 -9 -8 -18 -19 -18c-9 0 -19 9 -19 18zM203 419c0 11 9 18 20 18c9 0 18 -7 18 -18s-9 -20 -18 -20c-11 0 -20 9 -20 20zM157 489c0 12 9 20 20 20
s18 -8 18 -20c0 -11 -7 -19 -18 -19s-20 8 -20 19zM115 553c0 12 9 19 20 19s18 -7 18 -19c0 -9 -7 -19 -18 -19s-20 10 -20 19zM75 618c0 12 9 19 20 19s18 -7 18 -19c0 -11 -7 -19 -18 -19s-20 8 -20 19zM394 420c0 11 8 18 19 18c12 0 19 -7 19 -18s-7 -20 -19 -20
c-11 0 -19 9 -19 20zM436 489c0 12 8 20 19 20c12 0 19 -8 19 -20c0 -11 -7 -19 -19 -19c-11 0 -19 8 -19 19zM478 553c0 12 8 19 19 19c12 0 19 -7 19 -19c0 -9 -7 -19 -19 -19c-11 0 -19 10 -19 19zM519 618c0 12 8 19 19 19c12 0 19 -7 19 -19c0 -11 -7 -19 -19 -19
c-11 0 -19 8 -19 19z" />
    <glyph glyph-name="Z" unicode="Z" horiz-adv-x="598" 
d="M263 146l263 427c9 19 14 29 14 49c0 47 -28 72 -76 72h-329c-48 0 -76 -25 -76 -73c0 -47 28 -72 76 -72h187l-272 -434c-8 -11 -12 -25 -12 -43c0 -47 28 -72 76 -72h370c48 0 76 25 76 73c0 47 -28 73 -76 73h-221zM102 73c0 12 8 20 19 20c12 0 20 -8 20 -20
c0 -11 -8 -18 -20 -18c-11 0 -19 7 -19 18zM461 73c0 12 10 20 19 20c12 0 19 -8 19 -20c0 -11 -7 -18 -19 -18c-9 0 -19 7 -19 18zM372 73c0 12 9 20 20 20s18 -8 18 -20c0 -11 -7 -18 -18 -18s-20 7 -20 18zM282 73c0 12 9 20 20 20s18 -8 18 -20c0 -11 -7 -18 -18 -18
s-20 7 -20 18zM194 73c0 12 9 20 20 20c12 0 18 -8 18 -20c0 -11 -6 -18 -18 -18c-11 0 -20 7 -20 18zM117 622c0 12 9 19 20 19s18 -7 18 -19c0 -11 -7 -19 -18 -19s-20 8 -20 19zM444 622c0 12 9 19 20 19s18 -7 18 -19c0 -11 -7 -19 -18 -19s-20 8 -20 19zM367 622
c0 12 9 19 20 19s18 -7 18 -19c0 -11 -7 -19 -18 -19s-20 8 -20 19zM287 622c0 12 10 19 19 19c11 0 19 -7 19 -19c0 -11 -8 -19 -19 -19c-9 0 -19 8 -19 19zM202 622c0 12 9 19 20 19c9 0 18 -7 18 -19c0 -11 -9 -19 -18 -19c-11 0 -20 8 -20 19zM142 143c0 11 7 19 18 19
c12 0 20 -8 20 -19c0 -9 -8 -19 -20 -19c-11 0 -18 10 -18 19zM183 212c0 12 7 18 18 18c12 0 20 -6 20 -18c0 -11 -8 -20 -20 -20c-11 0 -18 9 -18 20zM227 279c0 12 8 20 19 20c12 0 19 -8 19 -20c0 -11 -7 -18 -19 -18c-11 0 -19 7 -19 18zM270 348c0 11 8 19 19 19
c12 0 19 -8 19 -19c0 -9 -7 -19 -19 -19c-11 0 -19 10 -19 19zM315 418c0 12 9 19 20 19c12 0 19 -7 19 -19c0 -11 -7 -20 -19 -20c-11 0 -20 9 -20 20zM360 483c0 12 9 20 20 20s18 -8 18 -20c0 -9 -7 -18 -18 -18s-20 9 -20 18zM402 551c0 12 9 19 20 19s18 -7 18 -19
c0 -9 -7 -19 -18 -19s-20 10 -20 19z" />
    <glyph glyph-name="bracketleft" unicode="[" horiz-adv-x="303" 
d="M286 -63c0 -9 -10 -19 -19 -19c-11 0 -19 10 -19 19c0 11 8 19 19 19c9 0 19 -8 19 -19zM215 -63c0 -9 -9 -19 -20 -19s-18 10 -18 19c0 11 7 19 18 19s20 -8 20 -19zM286 757c0 -9 -10 -19 -19 -19c-11 0 -19 10 -19 19c0 12 8 19 19 19c9 0 19 -7 19 -19zM215 757
c0 -9 -9 -19 -20 -19s-18 10 -18 19c0 12 7 19 18 19s20 -7 20 -19zM143 -63c0 -9 -8 -19 -19 -19c-12 0 -20 10 -20 19c0 11 8 19 20 19c11 0 19 -8 19 -19zM143 757c0 -9 -8 -19 -19 -19c-12 0 -20 10 -20 19c0 12 8 19 20 19c11 0 19 -7 19 -19zM189 0v694h74
c48 0 68 22 68 63c0 39 -23 61 -67 61h-145c-36 0 -61 -2 -61 -54v-833c0 -47 25 -55 61 -55h144c48 0 68 20 68 61s-23 63 -67 63h-75zM104 676c0 12 9 19 20 19c12 0 19 -7 19 -19c0 -9 -7 -19 -19 -19c-11 0 -20 10 -20 19zM104 595c0 12 9 19 20 19c12 0 19 -7 19 -19
c0 -9 -7 -19 -19 -19c-11 0 -20 10 -20 19zM104 513c0 11 9 19 20 19c12 0 19 -8 19 -19c0 -9 -7 -19 -19 -19c-11 0 -20 10 -20 19zM104 432c0 11 9 19 20 19c12 0 19 -8 19 -19c0 -9 -7 -19 -19 -19c-11 0 -20 10 -20 19zM104 351c0 11 9 19 20 19c12 0 19 -8 19 -19
c0 -9 -7 -19 -19 -19c-11 0 -20 10 -20 19zM104 269c0 11 9 19 20 19c12 0 19 -8 19 -19c0 -9 -7 -19 -19 -19c-11 0 -20 10 -20 19zM104 187c0 11 9 19 20 19c12 0 19 -8 19 -19c0 -9 -7 -19 -19 -19c-11 0 -20 10 -20 19zM104 104c0 12 9 20 20 20c12 0 19 -8 19 -20
c0 -8 -7 -18 -19 -18c-11 0 -20 10 -20 18zM104 22c0 12 9 20 20 20c12 0 19 -8 19 -20c0 -8 -7 -18 -19 -18c-11 0 -20 10 -20 18z" />
    <glyph glyph-name="backslash" unicode="\" horiz-adv-x="299" 
d="M268 -80c32 8 46 33 37 68l-201 744c-8 35 -35 50 -67 42c-29 -8 -46 -33 -35 -69l200 -743c11 -35 37 -50 66 -42zM66 721c0 -9 -5 -14 -13 -14s-15 5 -15 14s7 14 15 14s13 -5 13 -14zM84 659c0 -9 -7 -14 -15 -14s-13 5 -13 14s5 14 13 14s15 -5 15 -14zM102 597
c0 -9 -7 -14 -15 -14s-15 5 -15 14s7 14 15 14s15 -5 15 -14zM116 535c0 -9 -7 -14 -14 -14s-14 5 -14 14s7 14 14 14s14 -5 14 -14zM134 473c0 -8 -7 -14 -15 -14s-15 6 -15 14s7 14 15 14s15 -6 15 -14zM149 411c0 -9 -5 -15 -13 -15s-15 6 -15 15s7 15 15 15
s13 -6 13 -15zM167 349c0 -8 -7 -14 -15 -14s-13 6 -13 14s5 14 13 14s15 -6 15 -14zM183 287c0 -9 -6 -15 -14 -15s-15 6 -15 15s7 15 15 15s14 -6 14 -15zM201 225c0 -8 -7 -14 -14 -14s-14 6 -14 14s7 14 14 14s14 -6 14 -14zM218 163c0 -9 -7 -15 -15 -15s-15 6 -15 15
s7 15 15 15s15 -6 15 -15zM233 102c0 -9 -6 -15 -13 -15c-8 0 -15 6 -15 15c0 7 7 13 15 13c7 0 13 -6 13 -13zM251 39c0 -9 -7 -15 -15 -15s-13 6 -13 15s5 15 13 15s15 -6 15 -15zM268 -22c0 -9 -6 -15 -14 -15s-15 6 -15 15c0 7 7 13 15 13s14 -6 14 -13z" />
    <glyph glyph-name="bracketright" unicode="]" horiz-adv-x="303" 
d="M197 22c0 -8 -9 -18 -18 -18c-12 0 -20 10 -20 18c0 12 8 20 20 20c9 0 18 -8 18 -20zM197 104c0 -8 -9 -18 -18 -18c-12 0 -20 10 -20 18c0 12 8 20 20 20c9 0 18 -8 18 -20zM197 187c0 -9 -9 -19 -18 -19c-12 0 -20 10 -20 19c0 11 8 19 20 19c9 0 18 -8 18 -19z
M197 269c0 -9 -9 -19 -18 -19c-12 0 -20 10 -20 19c0 11 8 19 20 19c9 0 18 -8 18 -19zM197 351c0 -9 -9 -19 -18 -19c-12 0 -20 10 -20 19c0 11 8 19 20 19c9 0 18 -8 18 -19zM197 432c0 -9 -9 -19 -18 -19c-12 0 -20 10 -20 19c0 11 8 19 20 19c9 0 18 -8 18 -19zM197 513
c0 -9 -9 -19 -18 -19c-12 0 -20 10 -20 19c0 11 8 19 20 19c9 0 18 -8 18 -19zM197 595c0 -9 -9 -19 -18 -19c-12 0 -20 10 -20 19c0 12 8 19 20 19c9 0 18 -7 18 -19zM197 676c0 -9 -9 -19 -18 -19c-12 0 -20 10 -20 19c0 12 8 19 20 19c9 0 18 -7 18 -19zM112 694v-694
h-73c-44 0 -67 -22 -67 -63s20 -61 68 -61h143c37 0 62 8 62 55v833c0 52 -25 54 -62 54h-144c-44 0 -67 -22 -67 -61c0 -41 20 -63 68 -63h72zM159 757c0 12 9 19 20 19s18 -7 18 -19c0 -9 -7 -19 -18 -19s-20 10 -20 19zM159 -63c0 11 9 19 20 19s18 -8 18 -19
c0 -9 -7 -19 -18 -19s-20 10 -20 19zM88 757c0 12 10 19 18 19c12 0 20 -7 20 -19c0 -9 -8 -19 -20 -19c-8 0 -18 10 -18 19zM17 757c0 12 7 19 18 19c12 0 20 -7 20 -19c0 -9 -8 -19 -20 -19c-11 0 -18 10 -18 19zM88 -63c0 11 10 19 18 19c12 0 20 -8 20 -19
c0 -9 -8 -19 -20 -19c-8 0 -18 10 -18 19zM17 -63c0 11 7 19 18 19c12 0 20 -8 20 -19c0 -9 -8 -19 -20 -19c-11 0 -18 10 -18 19z" />
    <glyph glyph-name="asciicircum" unicode="^" horiz-adv-x="387" 
d="M193 574l81 -94c25 -23 47 -22 71 1c16 17 19 46 -4 69l-112 119c-10 11 -22 17 -36 17c-13 -1 -25 -6 -36 -17l-110 -119c-25 -23 -24 -45 -4 -69c24 -23 46 -24 69 -1zM180 632c0 9 5 14 13 14s15 -5 15 -14c0 -8 -7 -14 -15 -14s-13 6 -13 14zM224 599c0 8 5 14 13 14
s15 -6 15 -14c0 -9 -7 -14 -15 -14s-13 5 -13 14zM258 557c0 8 6 14 13 14c8 0 15 -6 15 -14c0 -9 -7 -14 -15 -14c-7 0 -13 5 -13 14zM295 517c0 8 7 14 14 14s14 -6 14 -14c0 -9 -7 -14 -14 -14s-14 5 -14 14zM137 599c0 8 6 14 13 14c8 0 15 -6 15 -14
c0 -9 -7 -14 -15 -14c-7 0 -13 5 -13 14zM102 557c0 8 5 14 13 14s15 -6 15 -14c0 -9 -7 -14 -15 -14s-13 5 -13 14zM64 517c0 8 7 14 15 14s15 -6 15 -14c0 -9 -7 -14 -15 -14s-15 5 -15 14z" />
    <glyph glyph-name="underscore" unicode="_" horiz-adv-x="524" 
d="M0 -7v-117h524v117h-524zM278 -64c0 9 9 18 20 18s18 -9 18 -18c0 -11 -7 -20 -18 -20s-20 9 -20 20zM199 -64c0 9 9 18 20 18s18 -9 18 -18c0 -11 -7 -20 -18 -20s-20 9 -20 20zM121 -64c0 9 9 18 20 18c9 0 18 -9 18 -18c0 -11 -9 -20 -18 -20c-11 0 -20 9 -20 20z
M42 -64c0 9 10 18 19 18c11 0 19 -9 19 -18c0 -11 -8 -20 -19 -20c-9 0 -19 9 -19 20zM434 -64c0 9 8 18 19 18c12 0 19 -9 19 -18c0 -11 -7 -20 -19 -20c-11 0 -19 9 -19 20zM354 -64c0 9 9 18 20 18c12 0 19 -9 19 -18c0 -11 -7 -20 -19 -20c-11 0 -20 9 -20 20z" />
    <glyph glyph-name="grave" unicode="`" horiz-adv-x="322" 
d="M234 500c32 12 43 39 32 68c-3 13 -14 24 -30 36l-79 58c-19 15 -45 19 -62 11c-36 -11 -49 -44 -40 -75c7 -16 18 -31 43 -44l78 -43c21 -13 43 -16 58 -11zM131 617c0 -9 -7 -14 -15 -14s-14 5 -14 14s6 14 14 14s15 -5 15 -14zM180 588c0 -9 -7 -15 -15 -15
s-15 6 -15 15c0 8 7 14 15 14s15 -6 15 -14zM228 556c0 -9 -6 -14 -14 -14s-15 5 -15 14c0 8 7 14 15 14s14 -6 14 -14z" />
    <glyph glyph-name="a" unicode="a" horiz-adv-x="651" 
d="M330 503l84 -234h-173zM193 129h267l20 -64c16 -51 44 -77 83 -77c47 0 79 31 79 74c0 11 -4 28 -11 51l-181 491c-22 61 -61 92 -116 92c-58 0 -100 -34 -126 -102l-190 -484c-5 -13 -8 -28 -8 -46c0 -41 39 -76 86 -76c17 0 32 6 45 19c12 12 22 30 30 54zM412 544
c0 -12 -10 -20 -19 -20c-11 0 -19 8 -19 20c0 9 8 18 19 18c9 0 19 -9 19 -18zM437 475c0 -11 -7 -19 -18 -19c-12 0 -20 8 -20 19c0 9 8 19 20 19c11 0 18 -10 18 -19zM463 405c0 -12 -9 -18 -20 -18s-18 6 -18 18c0 11 7 20 18 20s20 -9 20 -20zM511 266
c0 -11 -8 -19 -19 -19c-12 0 -19 8 -19 19c0 9 7 19 19 19c11 0 19 -10 19 -19zM537 198c0 -12 -10 -18 -19 -18c-12 0 -19 6 -19 18c0 11 7 20 19 20c9 0 19 -9 19 -20zM561 131c0 -12 -10 -20 -19 -20c-12 0 -20 8 -20 20c0 11 8 18 20 18c9 0 19 -7 19 -18zM587 61
c0 -11 -9 -19 -20 -19s-18 8 -18 19c0 9 7 19 18 19s20 -10 20 -19zM487 336c0 -12 -8 -20 -19 -20s-19 8 -19 20c0 11 8 18 19 18s19 -7 19 -18zM103 61c0 -11 -8 -19 -19 -19c-12 0 -20 8 -20 19c0 9 8 19 20 19c11 0 19 -10 19 -19zM127 130c0 -12 -9 -20 -20 -20
c-9 0 -18 8 -18 20c0 11 9 18 18 18c11 0 20 -7 20 -18zM152 198c0 -12 -7 -18 -18 -18c-12 0 -20 6 -20 18c0 11 8 20 20 20c11 0 18 -9 18 -20zM183 266c0 -11 -9 -19 -20 -19c-12 0 -19 8 -19 19c0 9 7 19 19 19c11 0 20 -10 20 -19zM209 336c0 -12 -9 -20 -20 -20
c-9 0 -18 8 -18 20c0 11 9 18 18 18c11 0 20 -7 20 -18zM233 405c0 -12 -7 -18 -18 -18c-12 0 -20 6 -20 18c0 11 8 20 20 20c11 0 18 -9 18 -20zM262 475c0 -11 -9 -19 -20 -19c-12 0 -18 8 -18 19c0 9 6 19 18 19c11 0 20 -10 20 -19zM288 544c0 -12 -10 -20 -19 -20
c-11 0 -19 8 -19 20c0 9 8 18 19 18c9 0 19 -9 19 -18zM318 607c0 -11 -9 -18 -18 -18c-12 0 -20 7 -20 18s8 20 20 20c9 0 18 -9 18 -20zM381 607c0 -11 -9 -18 -20 -18s-18 7 -18 18s7 20 18 20s20 -9 20 -20zM229 198c0 -12 -7 -18 -18 -18c-12 0 -20 6 -20 18
c0 11 8 20 20 20c11 0 18 -9 18 -20zM308 198c0 -12 -8 -18 -19 -18c-12 0 -19 6 -19 18c0 11 7 20 19 20c11 0 19 -9 19 -20zM385 198c0 -12 -9 -18 -20 -18c-12 0 -19 6 -19 18c0 11 7 20 19 20c11 0 20 -9 20 -20zM463 198c0 -12 -9 -18 -20 -18s-18 6 -18 18
c0 11 7 20 18 20s20 -9 20 -20z" />
    <glyph glyph-name="b" unicode="b" horiz-adv-x="592" 
d="M216 136v160h76c65 0 101 -29 101 -80c0 -53 -29 -80 -80 -80h-97zM216 424v136h64c50 0 75 -21 75 -64c0 -45 -35 -72 -83 -72h-56zM444 371c29 23 60 70 60 141c0 109 -66 182 -227 182h-143c-56 0 -76 -23 -76 -66v-562c0 -49 20 -66 76 -66h169c167 0 251 82 251 213
c0 69 -42 133 -110 158zM117 626c0 11 9 19 20 19s18 -8 18 -19s-7 -20 -18 -20s-20 9 -20 20zM117 547c0 11 9 18 20 18s18 -7 18 -18s-7 -20 -18 -20s-20 9 -20 20zM117 465c0 11 9 18 20 18s18 -7 18 -18s-7 -20 -18 -20s-20 9 -20 20zM117 386c0 11 9 18 20 18
s18 -7 18 -18s-7 -20 -18 -20s-20 9 -20 20zM117 310c0 11 9 19 20 19s18 -8 18 -19c0 -9 -7 -19 -18 -19s-20 10 -20 19zM117 231c0 12 9 20 20 20s18 -8 18 -20c0 -9 -7 -18 -18 -18s-20 9 -20 18zM117 152c0 12 9 20 20 20s18 -8 18 -20c0 -9 -7 -18 -18 -18
s-20 9 -20 18zM117 73c0 12 9 20 20 20s18 -8 18 -20c0 -11 -7 -18 -18 -18s-20 7 -20 18zM193 628c0 11 9 18 20 18c12 0 18 -7 18 -18s-6 -20 -18 -20c-11 0 -20 9 -20 20zM270 628c0 11 8 18 19 18c12 0 19 -7 19 -18s-7 -20 -19 -20c-11 0 -19 9 -19 20zM345 614
c0 12 7 19 18 19c12 0 20 -7 20 -19c0 -11 -8 -19 -20 -19c-11 0 -18 8 -18 19zM403 575c1 16 9 19 20 19s18 -7 18 -19c0 -11 -7 -19 -18 -19s-20 8 -20 19zM420 502c0 11 9 19 18 19c12 0 20 -8 20 -19s-8 -20 -20 -20c-9 0 -18 9 -18 20zM392 435c0 11 8 19 19 19
c12 0 19 -8 19 -19s-7 -19 -19 -19c-11 0 -19 8 -19 19zM339 384c0 11 9 18 18 18c12 0 20 -7 20 -18s-8 -20 -20 -20c-9 0 -18 9 -18 20zM188 362c0 12 9 20 20 20c12 0 19 -8 19 -20c0 -11 -7 -18 -19 -18c-11 0 -20 7 -20 18zM263 362c0 12 7 20 18 20c12 0 20 -8 20 -20
c0 -11 -8 -18 -20 -18c-11 0 -18 7 -18 18zM383 325c0 12 9 20 18 20c12 0 20 -8 20 -20c0 -11 -8 -19 -20 -19c-9 0 -18 8 -18 19zM437 285c0 12 8 20 19 20c12 0 19 -8 19 -20c0 -11 -7 -19 -19 -19c-11 0 -19 8 -19 19zM453 153c0 12 10 20 19 20c11 0 19 -8 19 -20
c0 -9 -8 -18 -19 -18c-12 0 -19 9 -19 18zM404 104c0 12 9 20 20 20s18 -8 18 -20c0 -8 -7 -18 -18 -18s-20 10 -20 18zM193 71c0 12 9 20 20 20c12 0 18 -8 18 -20c0 -11 -6 -18 -18 -18c-11 0 -20 7 -20 18zM267 71c0 12 8 20 19 20c12 0 19 -8 19 -20
c0 -11 -7 -18 -19 -18c-11 0 -19 7 -19 18zM338 76c0 12 9 20 18 20c12 0 20 -8 20 -20c0 -11 -8 -18 -20 -18c-9 0 -18 7 -18 18zM467 222c0 9 9 18 18 18c12 0 20 -9 20 -18c0 -11 -8 -20 -20 -20c-9 0 -18 9 -18 20z" />
    <glyph glyph-name="c" unicode="c" horiz-adv-x="636" 
d="M598 102c0 40 -27 79 -64 80c-18 1 -40 -7 -65 -22s-54 -23 -87 -23c-55 0 -99 19 -132 58s-49 88 -49 148c0 63 16 113 49 152s77 58 132 58c33 0 62 -8 87 -23s47 -23 65 -22c37 1 64 40 64 81c-1 33 -23 61 -66 84c-43 24 -93 36 -151 36c-100 0 -182 -34 -247 -103
c-64 -68 -96 -156 -96 -263c0 -104 32 -191 96 -260c65 -69 147 -103 247 -103c58 0 108 12 151 36s65 53 66 86zM387 619c-12 0 -20 10 -20 19c0 11 8 19 20 19c9 0 18 -8 18 -19c0 -9 -9 -19 -18 -19zM459 604c-12 0 -20 9 -20 20s8 19 20 19c11 0 19 -8 19 -19
s-8 -20 -19 -20zM136 343c0 -12 -9 -20 -20 -20c-12 0 -18 8 -18 20c0 9 6 18 18 18c11 0 20 -9 20 -18zM165 491c0 -12 -10 -19 -19 -19c-11 0 -19 7 -19 19c0 11 8 19 19 19c9 0 19 -8 19 -19zM143 418c0 -12 -9 -20 -20 -20c-12 0 -19 8 -19 20c0 11 7 19 19 19
c11 0 20 -8 20 -19zM265 602c0 -12 -9 -19 -20 -19c-12 0 -19 7 -19 19c0 9 7 19 19 19c11 0 20 -10 20 -19zM333 631c0 -12 -9 -20 -20 -20s-18 8 -18 20c0 9 7 18 18 18s20 -9 20 -18zM521 567c-11 0 -18 9 -18 20s7 18 18 18s20 -7 20 -18s-9 -20 -20 -20zM145 267
c0 -11 -8 -19 -19 -19c-12 0 -20 8 -20 19c0 9 8 19 20 19c11 0 19 -10 19 -19zM168 193c0 -11 -9 -18 -20 -18c-9 0 -18 7 -18 18s9 20 18 20c11 0 20 -9 20 -20zM268 86c0 -12 -8 -20 -19 -20c-12 0 -20 8 -20 20c0 11 8 18 20 18c11 0 19 -7 19 -18zM335 60
c0 -12 -9 -20 -20 -20s-18 8 -18 20c0 8 7 18 18 18s20 -10 20 -18zM387 32c-11 0 -19 9 -19 20c0 12 8 18 19 18s19 -6 19 -18c0 -11 -8 -20 -19 -20zM460 45c-12 0 -20 10 -20 18c0 12 8 20 20 20c11 0 19 -8 19 -20c0 -8 -8 -18 -19 -18zM523 82c-11 0 -18 9 -18 20
c0 9 7 18 18 18s20 -9 20 -18c0 -11 -9 -20 -20 -20zM211 133c0 -12 -9 -20 -20 -20s-18 8 -18 20c0 11 7 18 18 18s20 -7 20 -18zM207 552c0 -11 -9 -19 -20 -19c-9 0 -18 8 -18 19s9 19 18 19c11 0 20 -8 20 -19z" />
    <glyph glyph-name="d" unicode="d" horiz-adv-x="660" 
d="M216 147v402h44c137 0 201 -75 201 -214c0 -123 -65 -188 -204 -188h-41zM134 0h105c132 0 229 32 290 95c62 63 92 144 91 241c-3 109 -36 195 -97 260s-150 98 -268 98h-121c-48 0 -76 -11 -76 -66v-562c0 -55 28 -66 76 -66zM117 623c0 11 9 19 20 19s18 -8 18 -19
s-7 -19 -18 -19s-20 8 -20 19zM117 549c0 11 9 18 20 18s18 -7 18 -18s-7 -20 -18 -20s-20 9 -20 20zM117 473c0 11 9 19 20 19s18 -8 18 -19c0 -9 -7 -19 -18 -19s-20 10 -20 19zM117 396c0 11 9 19 20 19s18 -8 18 -19s-7 -19 -18 -19s-20 8 -20 19zM117 315
c0 12 9 20 20 20s18 -8 18 -20c0 -9 -7 -18 -18 -18s-20 9 -20 18zM117 236c0 12 9 20 20 20s18 -8 18 -20c0 -9 -7 -18 -18 -18s-20 9 -20 18zM117 156c0 12 9 20 20 20s18 -8 18 -20c0 -11 -7 -18 -18 -18s-20 7 -20 18zM117 77c0 12 9 20 20 20s18 -8 18 -20
c0 -11 -7 -18 -18 -18s-20 7 -20 18zM528 353c0 11 9 19 20 19s18 -8 18 -19c0 -9 -7 -19 -18 -19s-20 10 -20 19zM492 193c0 12 10 20 19 20c12 0 19 -8 19 -20c0 -9 -7 -18 -19 -18c-9 0 -19 9 -19 18zM521 271c0 11 9 19 20 19s19 -8 19 -19c0 -9 -8 -19 -19 -19
s-20 10 -20 19zM367 91c0 12 9 18 20 18s18 -6 18 -18c0 -11 -7 -20 -18 -20s-20 9 -20 20zM283 75c0 12 9 20 20 20s18 -8 18 -20c0 -11 -7 -18 -18 -18s-20 7 -20 18zM515 436c0 11 8 19 19 19c12 0 19 -8 19 -19s-7 -19 -19 -19c-11 0 -19 8 -19 19zM481 511
c0 12 9 19 20 19s19 -7 19 -19c0 -9 -8 -19 -19 -19s-20 10 -20 19zM356 608c0 12 9 20 20 20c12 0 19 -8 19 -20c0 -9 -7 -18 -19 -18c-11 0 -20 9 -20 18zM279 623c0 11 9 19 20 19s18 -8 18 -19s-7 -19 -18 -19s-20 8 -20 19zM427 570c0 12 7 20 18 20c12 0 20 -8 20 -20
c0 -11 -8 -19 -20 -19c-11 0 -18 8 -18 19zM200 625c0 11 9 19 20 19s18 -8 18 -19s-7 -20 -18 -20s-20 9 -20 20zM438 133c0 12 9 18 20 18c12 0 19 -6 19 -18c0 -11 -7 -20 -19 -20c-11 0 -20 9 -20 20zM200 73c0 12 9 20 20 20s18 -8 18 -20c0 -11 -7 -18 -18 -18
s-20 7 -20 18z" />
    <glyph glyph-name="e" unicode="e" horiz-adv-x="636" 
d="M208 276h186c47 0 72 23 72 70c0 44 -25 67 -72 67h-186c8 32 21 59 40 82c35 39 79 58 134 58c33 0 62 -8 87 -23s47 -23 65 -22c37 1 64 40 64 81c-1 33 -23 61 -66 84c-43 24 -93 36 -151 36c-100 0 -182 -34 -247 -103c-64 -68 -96 -156 -96 -263
c0 -104 32 -191 96 -260c65 -69 147 -103 247 -103c58 0 108 12 151 36s65 53 66 86c0 40 -27 79 -64 80c-18 1 -40 -7 -65 -22s-54 -23 -87 -23c-52 0 -97 19 -134 57c-21 25 -35 52 -40 82zM387 619c-12 0 -20 10 -20 19c0 11 8 19 20 19c9 0 18 -8 18 -19
c0 -9 -9 -19 -18 -19zM459 604c-12 0 -20 9 -20 20s8 19 20 19c11 0 19 -8 19 -19s-8 -20 -19 -20zM136 343c0 -12 -9 -20 -20 -20c-12 0 -18 8 -18 20c0 9 6 18 18 18c11 0 20 -9 20 -18zM165 491c0 -12 -10 -19 -19 -19c-11 0 -19 7 -19 19c0 11 8 19 19 19
c9 0 19 -8 19 -19zM143 418c0 -12 -9 -20 -20 -20c-12 0 -19 8 -19 20c0 11 7 19 19 19c11 0 20 -8 20 -19zM265 602c0 -12 -9 -19 -20 -19c-12 0 -19 7 -19 19c0 9 7 19 19 19c11 0 20 -10 20 -19zM333 631c0 -12 -9 -20 -20 -20s-18 8 -18 20c0 9 7 18 18 18s20 -9 20 -18
zM521 567c-11 0 -18 9 -18 20s7 18 18 18s20 -7 20 -18s-9 -20 -20 -20zM145 267c0 -11 -8 -19 -19 -19c-12 0 -20 8 -20 19c0 9 8 19 20 19c11 0 19 -10 19 -19zM168 193c0 -11 -9 -18 -20 -18c-9 0 -18 7 -18 18s9 20 18 20c11 0 20 -9 20 -20zM268 86
c0 -12 -8 -20 -19 -20c-12 0 -20 8 -20 20c0 11 8 18 20 18c11 0 19 -7 19 -18zM335 60c0 -12 -9 -20 -20 -20s-18 8 -18 20c0 8 7 18 18 18s20 -10 20 -18zM387 32c-11 0 -19 9 -19 20c0 12 8 18 19 18s19 -6 19 -18c0 -11 -8 -20 -19 -20zM460 45c-12 0 -20 10 -20 18
c0 12 8 20 20 20c11 0 19 -8 19 -20c0 -8 -8 -18 -19 -18zM523 82c-11 0 -18 9 -18 20c0 9 7 18 18 18s20 -9 20 -18c0 -11 -9 -20 -20 -20zM211 133c0 -12 -9 -20 -20 -20s-18 8 -18 20c0 11 7 18 18 18s20 -7 20 -18zM207 552c0 -11 -9 -19 -20 -19c-9 0 -18 8 -18 19
s9 19 18 19c11 0 20 -8 20 -19zM374 347c0 11 10 19 19 19c11 0 19 -8 19 -19c0 -9 -8 -19 -19 -19c-9 0 -19 10 -19 19zM292 347c0 11 10 19 19 19c11 0 19 -8 19 -19c0 -9 -8 -19 -19 -19c-9 0 -19 10 -19 19zM209 347c0 11 10 19 19 19c11 0 19 -8 19 -19
c0 -9 -8 -19 -19 -19c-9 0 -19 10 -19 19z" />
    <glyph glyph-name="f" unicode="f" horiz-adv-x="541" 
d="M216 276h188c44 0 76 25 76 74c0 48 -32 73 -76 73h-188v126h220c43 0 76 25 76 73c0 47 -33 72 -78 72h-300c-48 0 -76 -11 -76 -66v-532c0 -68 32 -96 79 -96c45 0 79 28 79 96v180zM117 623c0 11 9 19 20 19s18 -8 18 -19s-7 -19 -18 -19s-20 8 -20 19zM117 547
c0 11 9 18 20 18s18 -7 18 -18s-7 -20 -18 -20s-20 9 -20 20zM117 470c0 12 9 19 20 19s18 -7 18 -19c0 -9 -7 -19 -18 -19s-20 10 -20 19zM117 394c0 11 9 19 20 19s18 -8 18 -19c0 -9 -7 -19 -18 -19s-20 10 -20 19zM117 317c0 12 9 20 20 20s18 -8 18 -20
c0 -9 -7 -18 -18 -18s-20 9 -20 18zM117 241c0 12 9 20 20 20s18 -8 18 -20c0 -11 -7 -18 -18 -18s-20 7 -20 18zM117 165c0 12 9 19 20 19s18 -7 18 -19c0 -11 -7 -19 -18 -19s-20 8 -20 19zM117 89c0 12 9 18 20 18s18 -6 18 -18c0 -11 -7 -20 -18 -20s-20 9 -20 20z
M382 350c0 11 9 19 18 19c12 0 20 -8 20 -19c0 -9 -8 -19 -20 -19c-9 0 -18 10 -18 19zM298 350c0 11 9 19 18 19c12 0 20 -8 20 -19c0 -9 -8 -19 -20 -19c-9 0 -18 10 -18 19zM213 350c0 11 9 19 18 19c12 0 20 -8 20 -19c0 -9 -8 -19 -20 -19c-9 0 -18 10 -18 19zM419 623
c0 11 9 19 18 19c12 0 20 -8 20 -19s-8 -19 -20 -19c-9 0 -18 8 -18 19zM346 623c0 11 7 19 18 19c12 0 20 -8 20 -19s-8 -19 -20 -19c-11 0 -18 8 -18 19zM271 623c0 11 8 19 19 19c12 0 19 -8 19 -19s-7 -19 -19 -19c-11 0 -19 8 -19 19zM194 623c0 11 9 19 20 19
c12 0 18 -8 18 -19s-6 -19 -18 -19c-11 0 -20 8 -20 19z" />
    <glyph glyph-name="g" unicode="g" horiz-adv-x="733" 
d="M531 258c-1 -28 -15 -55 -40 -82c-25 -26 -61 -39 -109 -39c-55 0 -99 19 -132 58s-49 88 -49 148c0 63 16 113 49 152s77 58 132 58c33 0 62 -8 87 -23s47 -23 65 -22c37 1 64 40 64 81c-1 33 -23 61 -66 84c-43 24 -93 36 -151 36c-100 0 -182 -34 -247 -103
c-64 -68 -96 -156 -96 -263c0 -104 32 -191 96 -260c65 -69 147 -103 248 -103c88 0 161 30 219 90s87 140 87 239c0 61 -16 96 -83 96h-209c-49 0 -77 -29 -77 -74c0 -44 28 -73 77 -73h135zM210 558c0 -12 -9 -19 -20 -19c-9 0 -18 7 -18 19c0 9 9 19 18 19
c11 0 20 -10 20 -19zM226 123c0 -12 -8 -19 -19 -19c-12 0 -20 7 -20 19c0 11 8 20 20 20c11 0 19 -9 19 -20zM367 54c0 -12 -10 -20 -19 -20c-11 0 -19 8 -19 20c0 9 8 18 19 18c9 0 19 -9 19 -18zM136 343c0 -12 -9 -20 -20 -20c-12 0 -18 8 -18 20c0 9 6 18 18 18
c11 0 20 -9 20 -18zM175 186c0 -11 -9 -19 -20 -19c-12 0 -18 8 -18 19c0 9 6 19 18 19c11 0 20 -10 20 -19zM146 260c0 -12 -8 -20 -19 -20c-12 0 -20 8 -20 20c0 9 8 18 20 18c11 0 19 -9 19 -18zM338 631c0 -11 -9 -19 -20 -19s-18 8 -18 19s7 19 18 19s20 -8 20 -19z
M166 496c0 -12 -9 -19 -20 -19c-9 0 -18 7 -18 19c0 11 9 19 18 19c11 0 20 -8 20 -19zM268 605c0 -11 -8 -18 -19 -18c-12 0 -20 7 -20 18s8 20 20 20c11 0 19 -9 19 -20zM290 79c0 -12 -10 -18 -19 -18c-11 0 -19 6 -19 18c0 11 8 20 19 20c9 0 19 -9 19 -20zM143 421
c0 -12 -8 -20 -19 -20c-12 0 -20 8 -20 20c0 9 8 18 20 18c11 0 19 -9 19 -18zM463 604c-12 0 -20 8 -20 19s8 19 20 19c9 0 18 -8 18 -19s-9 -19 -18 -19zM524 566c-11 0 -18 9 -18 20s7 18 18 18s20 -7 20 -18s-9 -20 -20 -20zM392 620c-11 0 -19 8 -19 19s8 19 19 19
c9 0 19 -8 19 -19s-10 -19 -19 -19zM631 253c0 -12 -9 -20 -20 -20s-19 8 -19 20c0 11 8 18 19 18s20 -7 20 -18zM560 330c0 -12 -8 -19 -19 -19c-12 0 -20 7 -20 19c0 11 8 19 20 19c11 0 19 -8 19 -19zM487 332c0 -12 -8 -20 -19 -20s-19 8 -19 20c0 11 8 19 19 19
s19 -8 19 -19zM610 183c0 -11 -8 -19 -19 -19s-19 8 -19 19c0 9 8 19 19 19s19 -10 19 -19zM631 330c0 -12 -8 -19 -19 -19s-19 7 -19 19c0 11 8 19 19 19s19 -8 19 -19zM413 332c0 -12 -10 -20 -19 -20c-11 0 -19 8 -19 20c0 11 8 19 19 19c9 0 19 -8 19 -19zM424 34
c-12 0 -20 9 -20 20s8 18 20 18c9 0 18 -7 18 -18s-9 -20 -18 -20zM550 102c-11 0 -19 8 -19 19c0 12 8 20 19 20s19 -8 19 -20c0 -11 -8 -19 -19 -19zM491 58c-12 0 -19 7 -19 18c0 12 7 20 19 20c11 0 19 -8 19 -20c0 -11 -8 -18 -19 -18z" />
    <glyph glyph-name="h" unicode="h" horiz-adv-x="664" 
d="M216 279h232v-183c0 -68 34 -96 79 -96c47 0 79 28 79 96v503c0 67 -32 95 -79 95c-45 0 -79 -28 -79 -95v-173h-232v173c0 67 -34 95 -79 95c-47 0 -79 -28 -79 -95v-503c0 -68 32 -96 79 -96c45 0 79 28 79 96v183zM117 618c0 12 9 19 20 19s18 -7 18 -19
c0 -11 -7 -19 -18 -19s-20 8 -20 19zM117 542c0 11 9 19 20 19s18 -8 18 -19s-7 -20 -18 -20s-20 9 -20 20zM117 466c0 11 9 18 20 18s18 -7 18 -18s-7 -20 -18 -20s-20 9 -20 20zM117 389c0 11 9 19 20 19s18 -8 18 -19c0 -9 -7 -19 -18 -19s-20 10 -20 19zM117 312
c0 12 9 20 20 20s18 -8 18 -20c0 -9 -7 -18 -18 -18s-20 9 -20 18zM117 236c0 12 9 20 20 20s18 -8 18 -20c0 -9 -7 -18 -18 -18s-20 9 -20 18zM117 160c0 12 9 20 20 20s18 -8 18 -20c0 -11 -7 -18 -18 -18s-20 7 -20 18zM117 84c0 12 9 19 20 19s18 -7 18 -19
c0 -11 -7 -20 -18 -20s-20 9 -20 20zM510 618c0 12 8 19 19 19c12 0 20 -7 20 -19c0 -11 -8 -19 -20 -19c-11 0 -19 8 -19 19zM510 542c0 11 8 19 19 19c12 0 20 -8 20 -19s-8 -20 -20 -20c-11 0 -19 9 -19 20zM510 466c0 11 8 18 19 18c12 0 20 -7 20 -18s-8 -20 -20 -20
c-11 0 -19 9 -19 20zM510 389c0 11 8 19 19 19c12 0 20 -8 20 -19c0 -9 -8 -19 -20 -19c-11 0 -19 10 -19 19zM510 312c0 12 8 20 19 20c12 0 20 -8 20 -20c0 -9 -8 -18 -20 -18c-11 0 -19 9 -19 18zM510 236c0 12 8 20 19 20c12 0 20 -8 20 -20c0 -9 -8 -18 -20 -18
c-11 0 -19 9 -19 18zM510 160c0 12 8 20 19 20c12 0 20 -8 20 -20c0 -11 -8 -18 -20 -18c-11 0 -19 7 -19 18zM510 84c0 12 8 19 19 19c12 0 20 -7 20 -19c0 -11 -8 -20 -20 -20c-11 0 -19 9 -19 20zM429 353c0 11 8 19 19 19c12 0 20 -8 20 -19c0 -9 -8 -19 -20 -19
c-11 0 -19 10 -19 19zM354 353c0 11 9 19 20 19c12 0 19 -8 19 -19c0 -9 -7 -19 -19 -19c-11 0 -20 10 -20 19zM279 353c0 11 9 19 20 19s18 -8 18 -19c0 -9 -7 -19 -18 -19s-20 10 -20 19zM205 353c0 11 10 19 19 19c11 0 19 -8 19 -19c0 -9 -8 -19 -19 -19
c-9 0 -19 10 -19 19z" />
    <glyph glyph-name="i" unicode="i" horiz-adv-x="272" 
d="M137 694c-47 0 -79 -25 -79 -104v-494c0 -68 32 -96 79 -96c45 0 79 28 79 96v503c0 67 -34 95 -79 95zM117 618c0 12 9 19 20 19s18 -7 18 -19c0 -11 -7 -19 -18 -19s-20 8 -20 19zM117 542c0 11 9 19 20 19s18 -8 18 -19s-7 -20 -18 -20s-20 9 -20 20zM117 466
c0 11 9 18 20 18s18 -7 18 -18s-7 -20 -18 -20s-20 9 -20 20zM117 389c0 11 9 19 20 19s18 -8 18 -19c0 -9 -7 -19 -18 -19s-20 10 -20 19zM117 312c0 12 9 20 20 20s18 -8 18 -20c0 -9 -7 -18 -18 -18s-20 9 -20 18zM117 236c0 12 9 20 20 20s18 -8 18 -20
c0 -9 -7 -18 -18 -18s-20 9 -20 18zM117 160c0 12 9 20 20 20s18 -8 18 -20c0 -11 -7 -18 -18 -18s-20 7 -20 18zM117 84c0 12 9 19 20 19s18 -7 18 -19c0 -11 -7 -20 -18 -20s-20 9 -20 20z" />
    <glyph glyph-name="j" unicode="j" horiz-adv-x="392" 
d="M256 694c-45 0 -79 -28 -79 -95v-363c0 -68 -29 -90 -81 -90c-48 0 -76 -26 -76 -73c0 -48 28 -73 76 -73h18c135 0 221 82 221 227v372c0 67 -34 95 -79 95zM235 604c0 12 9 20 20 20c12 0 18 -8 18 -20c0 -9 -6 -18 -18 -18c-11 0 -20 9 -20 18zM235 526
c0 12 9 20 20 20c12 0 18 -8 18 -20c0 -9 -6 -18 -18 -18c-11 0 -20 9 -20 18zM235 446c0 12 9 20 20 20c12 0 18 -8 18 -20c0 -11 -6 -19 -18 -19c-11 0 -20 8 -20 19zM235 364c0 12 9 20 20 20c12 0 18 -8 18 -20c0 -11 -6 -18 -18 -18c-11 0 -20 7 -20 18zM235 285
c0 12 9 20 20 20c12 0 18 -8 18 -20c0 -11 -6 -19 -18 -19c-11 0 -20 8 -20 19zM231 203c0 12 9 20 20 20c12 0 19 -8 19 -20c0 -11 -7 -19 -19 -19c-11 0 -20 8 -20 19zM78 72c0 12 9 20 20 20c9 0 18 -8 18 -20c0 -11 -9 -18 -18 -18c-11 0 -20 7 -20 18zM154 84
c0 12 9 19 20 19c12 0 18 -7 18 -19c0 -11 -6 -20 -18 -20c-11 0 -20 9 -20 20zM211 130c0 12 10 18 18 18c12 0 20 -6 20 -18c0 -11 -8 -20 -20 -20c-8 0 -18 9 -18 20z" />
    <glyph glyph-name="k" unicode="k" horiz-adv-x="631" 
d="M216 273l195 -211c62 -62 95 -75 147 -64c43 12 65 36 62 72c-1 23 -10 41 -26 54c-10 7 -22 11 -35 12c-17 2 -35 15 -56 39l-173 179l221 199c45 47 37 96 5 121c-29 24 -74 26 -119 -25l-221 -215v165c0 67 -34 95 -79 95c-47 0 -79 -28 -79 -95v-503
c0 -68 32 -96 79 -96c45 0 79 28 79 96v177zM117 618c0 12 9 19 20 19s18 -7 18 -19c0 -11 -7 -19 -18 -19s-20 8 -20 19zM117 542c0 11 9 19 20 19s18 -8 18 -19s-7 -20 -18 -20s-20 9 -20 20zM117 466c0 11 9 18 20 18s18 -7 18 -18s-7 -20 -18 -20s-20 9 -20 20zM117 389
c0 11 9 19 20 19s18 -8 18 -19c0 -9 -7 -19 -18 -19s-20 10 -20 19zM117 312c0 12 9 20 20 20s18 -8 18 -20c0 -9 -7 -18 -18 -18s-20 9 -20 18zM117 236c0 12 9 20 20 20s18 -8 18 -20c0 -9 -7 -18 -18 -18s-20 9 -20 18zM117 160c0 12 9 20 20 20s18 -8 18 -20
c0 -11 -7 -18 -18 -18s-20 7 -20 18zM117 84c0 12 9 19 20 19s18 -7 18 -19c0 -11 -7 -20 -18 -20s-20 9 -20 20zM531 63c0 12 10 20 19 20c12 0 19 -8 19 -20c0 -8 -7 -18 -19 -18c-9 0 -19 10 -19 18zM467 88c0 12 9 18 18 18c12 0 20 -6 20 -18c0 -11 -8 -20 -20 -20
c-9 0 -18 9 -18 20zM414 142c0 9 10 18 19 18c11 0 19 -9 19 -18c0 -11 -8 -20 -19 -20c-9 0 -19 9 -19 20zM366 193c0 12 9 20 20 20s18 -8 18 -20c0 -9 -7 -18 -18 -18s-20 9 -20 18zM314 247c0 12 9 19 20 19c12 0 19 -7 19 -19c0 -11 -7 -19 -19 -19c-11 0 -20 8 -20 19
zM264 302c0 11 7 18 18 18c12 0 20 -7 20 -18s-8 -20 -20 -20c-11 0 -18 9 -18 20zM209 358c0 12 10 20 19 20c11 0 19 -8 19 -20c0 -9 -8 -18 -19 -18c-9 0 -19 9 -19 18zM268 411c0 12 8 19 19 19c12 0 19 -7 19 -19c0 -11 -7 -19 -19 -19c-11 0 -19 8 -19 19zM328 465
c0 11 10 18 19 18c11 0 19 -7 19 -18s-8 -20 -19 -20c-9 0 -19 9 -19 20zM387 519c0 11 7 19 18 19c12 0 20 -8 20 -19s-8 -19 -20 -19c-11 0 -18 8 -18 19zM439 571c0 12 9 19 20 19c12 0 19 -7 19 -19c0 -11 -7 -19 -19 -19c-11 0 -20 8 -20 19zM494 621c0 12 10 19 19 19
c11 0 19 -7 19 -19c0 -11 -8 -19 -19 -19c-9 0 -19 8 -19 19z" />
    <glyph glyph-name="l" unicode="l" horiz-adv-x="492" 
d="M216 146v452c0 67 -34 95 -79 95c-47 0 -79 -28 -79 -95v-532c0 -55 15 -66 76 -66h253c49 0 77 25 77 73c0 47 -28 73 -77 73h-171zM117 615c0 12 9 19 20 19s18 -7 18 -19c0 -11 -7 -19 -18 -19s-20 8 -20 19zM117 531c0 12 9 19 20 19s18 -7 18 -19
c0 -11 -7 -19 -18 -19s-20 8 -20 19zM117 440c0 12 9 20 20 20s18 -8 18 -20c0 -9 -7 -18 -18 -18s-20 9 -20 18zM117 348c0 11 9 19 20 19s18 -8 18 -19c0 -9 -7 -19 -18 -19s-20 10 -20 19zM117 258c0 11 9 18 20 18s18 -7 18 -18s-7 -20 -18 -20s-20 9 -20 20zM117 164
c0 12 9 19 20 19s18 -7 18 -19c0 -11 -7 -19 -18 -19s-20 8 -20 19zM117 73c0 12 9 20 20 20s18 -8 18 -20c0 -11 -7 -18 -18 -18s-20 7 -20 18zM367 73c0 12 9 20 20 20s18 -8 18 -20c0 -11 -7 -18 -18 -18s-20 7 -20 18zM286 73c0 12 10 20 19 20c11 0 19 -8 19 -20
c0 -11 -8 -18 -19 -18c-9 0 -19 7 -19 18zM201 73c0 12 9 20 20 20s18 -8 18 -20c0 -11 -7 -18 -18 -18s-20 7 -20 18z" />
    <glyph glyph-name="m" unicode="m" horiz-adv-x="828" 
d="M617 402l-5 -306c0 -68 34 -96 79 -96c47 0 80 28 80 96v494c0 79 -30 104 -89 104c-42 0 -71 -19 -90 -47l-178 -303l-179 303c-19 34 -43 47 -89 47c-59 0 -88 -25 -88 -104v-494c0 -68 32 -96 79 -96c45 0 79 28 79 96l-5 306l143 -243c12 -17 27 -28 44 -31
c6 -1 11 -1 16 -1s10 0 15 1c18 3 33 14 46 31zM117 618c0 12 9 19 20 19s18 -7 18 -19c0 -11 -7 -19 -18 -19s-20 8 -20 19zM117 542c0 11 9 19 20 19s18 -8 18 -19s-7 -20 -18 -20s-20 9 -20 20zM117 466c0 11 9 18 20 18s18 -7 18 -18s-7 -20 -18 -20s-20 9 -20 20z
M117 389c0 11 9 19 20 19s18 -8 18 -19c0 -9 -7 -19 -18 -19s-20 10 -20 19zM117 312c0 12 9 20 20 20s18 -8 18 -20c0 -9 -7 -18 -18 -18s-20 9 -20 18zM117 236c0 12 9 20 20 20s18 -8 18 -20c0 -9 -7 -18 -18 -18s-20 9 -20 18zM117 160c0 12 9 20 20 20s18 -8 18 -20
c0 -11 -7 -18 -18 -18s-20 7 -20 18zM117 84c0 12 9 19 20 19s18 -7 18 -19c0 -11 -7 -20 -18 -20s-20 9 -20 20zM672 618c0 12 10 19 19 19c12 0 20 -7 20 -19c0 -11 -8 -19 -20 -19c-9 0 -19 8 -19 19zM672 542c0 11 10 19 19 19c12 0 20 -8 20 -19s-8 -20 -20 -20
c-9 0 -19 9 -19 20zM672 466c0 11 10 18 19 18c12 0 20 -7 20 -18s-8 -20 -20 -20c-9 0 -19 9 -19 20zM672 389c0 11 10 19 19 19c12 0 20 -8 20 -19c0 -9 -8 -19 -20 -19c-9 0 -19 10 -19 19zM672 312c0 12 10 20 19 20c12 0 20 -8 20 -20c0 -9 -8 -18 -20 -18
c-9 0 -19 9 -19 18zM672 236c0 12 10 20 19 20c12 0 20 -8 20 -20c0 -9 -8 -18 -20 -18c-9 0 -19 9 -19 18zM672 160c0 12 10 20 19 20c12 0 20 -8 20 -20c0 -11 -8 -18 -20 -18c-9 0 -19 7 -19 18zM672 84c0 12 10 19 19 19c12 0 20 -7 20 -19c0 -11 -8 -20 -20 -20
c-9 0 -19 9 -19 20zM190 541c0 11 9 19 20 19c12 0 19 -8 19 -19s-7 -20 -19 -20c-11 0 -20 9 -20 20zM394 208c0 12 8 19 19 19c12 0 19 -7 19 -19c0 -11 -7 -20 -19 -20c-11 0 -19 9 -19 20zM350 271c0 12 8 20 19 20c12 0 19 -8 19 -20c0 -8 -7 -18 -19 -18
c-11 0 -19 10 -19 18zM309 340c0 11 8 18 19 18c12 0 19 -7 19 -18s-7 -20 -19 -20c-11 0 -19 9 -19 20zM270 405c0 12 8 20 19 20c12 0 19 -8 19 -20c0 -11 -7 -18 -19 -18c-11 0 -19 7 -19 18zM229 472c0 11 8 19 19 19c12 0 19 -8 19 -19c0 -9 -7 -19 -19 -19
c-11 0 -19 10 -19 19zM437 271c0 12 9 20 20 20c12 0 19 -8 19 -20c0 -8 -7 -18 -19 -18c-11 0 -20 10 -20 18zM477 340c0 11 8 18 19 18c12 0 19 -7 19 -18s-7 -20 -19 -20c-11 0 -19 9 -19 20zM520 405c0 12 8 20 19 20c12 0 19 -8 19 -20c0 -11 -7 -18 -19 -18
c-11 0 -19 7 -19 18zM561 472c0 11 8 19 19 19c12 0 19 -8 19 -19c0 -9 -7 -19 -19 -19c-11 0 -19 10 -19 19zM599 541c0 11 8 19 19 19c12 0 19 -8 19 -19s-7 -20 -19 -20c-11 0 -19 9 -19 20z" />
    <glyph glyph-name="n" unicode="n" horiz-adv-x="665" 
d="M216 558h130c73 0 108 -37 108 -100v-362c0 -68 34 -96 79 -96s79 28 79 96v362c-8 144 -93 236 -264 236h-214c-48 0 -76 -11 -76 -66v-532c0 -68 32 -96 79 -96c45 0 79 28 79 96v462zM514 84c0 12 8 19 19 19c12 0 19 -7 19 -19c0 -11 -7 -20 -19 -20
c-11 0 -19 9 -19 20zM514 389c0 11 8 19 19 19c12 0 19 -8 19 -19c0 -9 -7 -19 -19 -19c-11 0 -19 10 -19 19zM514 312c0 12 8 20 19 20c12 0 19 -8 19 -20c0 -9 -7 -18 -19 -18c-11 0 -19 9 -19 18zM514 236c0 12 8 20 19 20c12 0 19 -8 19 -20c0 -9 -7 -18 -19 -18
c-11 0 -19 9 -19 18zM514 160c0 12 8 20 19 20c12 0 19 -8 19 -20c0 -11 -7 -18 -19 -18c-11 0 -19 7 -19 18zM117 390c0 11 9 19 20 19s18 -8 18 -19c0 -9 -7 -19 -18 -19s-20 10 -20 19zM117 153c0 12 9 20 20 20s18 -8 18 -20c0 -9 -7 -18 -18 -18s-20 9 -20 18zM117 231
c0 12 9 20 20 20s18 -8 18 -20c0 -9 -7 -18 -18 -18s-20 9 -20 18zM117 310c0 11 9 19 20 19s18 -8 18 -19c0 -9 -7 -19 -18 -19s-20 10 -20 19zM359 619c0 12 9 19 20 19s18 -7 18 -19c0 -11 -7 -19 -18 -19s-20 8 -20 19zM117 468c0 12 9 19 20 19s18 -7 18 -19
c0 -9 -7 -19 -18 -19s-20 10 -20 19zM117 547c0 11 9 18 20 18s18 -7 18 -18s-7 -20 -18 -20s-20 9 -20 20zM117 624c0 11 9 19 20 19s18 -8 18 -19s-7 -20 -18 -20s-20 9 -20 20zM117 75c0 12 9 20 20 20s18 -8 18 -20c0 -11 -7 -18 -18 -18s-20 7 -20 18zM200 624
c0 11 9 19 20 19c12 0 18 -6 18 -19c0 -11 -7 -20 -18 -20s-20 9 -20 20zM280 624c0 11 9 19 20 19c12 0 18 -6 18 -19c0 -11 -7 -20 -18 -20s-20 9 -20 20zM492 542c0 11 10 19 19 19c12 0 19 -8 19 -19s-7 -20 -19 -20c-9 0 -19 9 -19 20zM514 466c0 11 8 18 19 18
c12 0 19 -7 19 -18s-7 -20 -19 -20c-11 0 -19 9 -19 20zM437 595c0 12 9 19 20 19c12 0 19 -7 19 -19c0 -9 -7 -19 -19 -19c-11 0 -20 10 -20 19z" />
    <glyph glyph-name="o" unicode="o" 
d="M398 141c-54 0 -100 18 -137 55s-55 87 -55 149c0 63 18 114 55 152s82 57 137 57s100 -19 137 -57s56 -89 56 -152c0 -62 -19 -112 -56 -149s-83 -55 -137 -55zM398 -17c103 0 188 34 257 101c69 68 104 155 104 262s-35 194 -104 261c-69 68 -155 102 -257 102
c-101 0 -187 -34 -256 -101s-104 -155 -104 -262s34 -194 103 -262c69 -67 155 -101 257 -101zM664 347c0 11 8 19 19 19s19 -8 19 -19c0 -9 -8 -19 -19 -19s-19 10 -19 19zM381 61c0 11 9 19 18 19c12 0 20 -8 20 -19c0 -9 -8 -19 -20 -19c-9 0 -18 10 -18 19zM582 145
c0 11 8 19 19 19s19 -8 19 -19c0 -9 -8 -19 -19 -19s-19 10 -19 19zM627 204c0 12 8 20 19 20s19 -8 19 -20c0 -11 -8 -19 -19 -19s-19 8 -19 19zM654 272c0 12 10 20 19 20c12 0 19 -8 19 -20c0 -9 -7 -18 -19 -18c-9 0 -19 9 -19 18zM525 99c0 9 9 18 20 18s18 -9 18 -18
c0 -11 -7 -20 -18 -20s-20 9 -20 20zM455 69c0 12 10 20 19 20c11 0 19 -8 19 -20c0 -9 -8 -18 -19 -18c-9 0 -19 9 -19 18zM399 612c-11 0 -18 10 -18 19c0 12 7 19 18 19s20 -7 20 -19c0 -9 -9 -19 -20 -19zM602 532c-12 0 -19 10 -19 19c0 12 7 19 19 19
c9 0 19 -7 19 -19c0 -9 -10 -19 -19 -19zM542 579c-12 0 -20 8 -20 19s8 19 20 19c9 0 19 -8 19 -19s-10 -19 -19 -19zM471 605c-11 0 -19 9 -19 20s8 19 19 19s19 -8 19 -19s-8 -20 -19 -20zM646 475c-11 0 -18 8 -18 19c0 12 7 19 18 19s20 -7 20 -19
c0 -11 -9 -19 -20 -19zM675 404c-11 0 -19 9 -19 20s8 18 19 18s19 -7 19 -18s-8 -20 -19 -20zM197 161c12 0 20 -10 20 -18c0 -12 -8 -20 -20 -20c-11 0 -18 8 -18 20c0 8 7 18 18 18zM257 115c11 0 18 -9 18 -18c0 -12 -7 -20 -18 -20s-20 8 -20 20c0 9 9 18 20 18z
M327 89c12 0 19 -9 19 -20s-7 -18 -19 -18c-11 0 -19 7 -19 18s8 20 19 20zM152 222c12 0 20 -9 20 -20c0 -12 -8 -19 -20 -19c-9 0 -18 7 -18 19c0 11 9 20 18 20zM125 290c12 0 19 -10 19 -19c0 -11 -7 -19 -19 -19c-11 0 -20 8 -20 19c0 9 9 19 20 19zM135 347
c0 -11 -9 -19 -20 -19c-12 0 -18 8 -18 19c0 9 6 19 18 19c11 0 20 -10 20 -19zM216 549c0 -11 -9 -19 -20 -19c-12 0 -18 8 -18 19s6 19 18 19c11 0 20 -8 20 -19zM171 490c0 -12 -9 -19 -20 -19s-18 7 -18 19c0 11 7 19 18 19s20 -8 20 -19zM143 422c0 -12 -8 -20 -19 -20
c-12 0 -20 8 -20 20c0 9 8 18 20 18c11 0 19 -9 19 -18zM271 596c0 -11 -7 -19 -18 -19c-12 0 -20 8 -20 19s8 19 20 19c11 0 18 -8 18 -19zM343 625c0 -12 -9 -20 -20 -20c-12 0 -18 8 -18 20c0 9 6 19 18 19c11 0 20 -10 20 -19z" />
    <glyph glyph-name="p" unicode="p" horiz-adv-x="563" 
d="M216 366v192h49c73 0 108 -37 108 -100c0 -61 -37 -92 -108 -92h-49zM216 223h49c176 0 260 87 260 235c0 144 -94 236 -263 236h-128c-48 0 -76 -11 -76 -66v-532c0 -68 32 -96 79 -96c45 0 79 28 79 96v127zM117 624c0 11 9 19 20 19s18 -8 18 -19s-7 -20 -18 -20
s-20 9 -20 20zM117 547c0 11 9 18 20 18s18 -7 18 -18s-7 -20 -18 -20s-20 9 -20 20zM117 468c0 12 9 19 20 19s18 -7 18 -19c0 -9 -7 -19 -18 -19s-20 10 -20 19zM117 390c0 11 9 19 20 19s18 -8 18 -19c0 -9 -7 -19 -18 -19s-20 10 -20 19zM117 310c0 11 9 19 20 19
s18 -8 18 -19c0 -9 -7 -19 -18 -19s-20 10 -20 19zM117 231c0 12 9 20 20 20s18 -8 18 -20c0 -9 -7 -18 -18 -18s-20 9 -20 18zM117 153c0 12 9 20 20 20s18 -8 18 -20c0 -9 -7 -18 -18 -18s-20 9 -20 18zM117 75c0 12 9 20 20 20s18 -8 18 -20c0 -11 -7 -18 -18 -18
s-20 7 -20 18zM193 626c0 11 9 19 20 19c12 0 18 -8 18 -19s-6 -20 -18 -20c-11 0 -20 9 -20 20zM271 624c0 11 8 19 19 19c12 0 19 -8 19 -19s-7 -20 -19 -20c-11 0 -19 9 -19 20zM345 607c0 12 7 20 18 20c12 0 20 -8 20 -20c0 -9 -8 -18 -20 -18c-11 0 -18 9 -18 18z
M195 294c0 12 9 18 20 18c12 0 18 -6 18 -18c0 -11 -6 -20 -18 -20c-11 0 -20 9 -20 20zM274 297c0 11 9 18 20 18c12 0 18 -7 18 -18s-6 -20 -18 -20c-11 0 -20 9 -20 20zM350 310c0 11 8 19 19 19c12 0 19 -8 19 -19c0 -9 -7 -19 -19 -19c-11 0 -19 10 -19 19zM408 354
c0 12 10 20 19 20c12 0 19 -8 19 -20c0 -9 -7 -18 -19 -18c-9 0 -19 9 -19 18zM435 425c0 11 8 18 19 18c12 0 19 -7 19 -18s-7 -20 -19 -20c-11 0 -19 9 -19 20zM434 499c0 12 8 19 19 19c12 0 19 -7 19 -19c0 -11 -7 -20 -19 -20c-11 0 -19 9 -19 20zM401 563
c0 12 9 20 20 20s18 -8 18 -20c0 -9 -7 -18 -18 -18s-20 9 -20 18z" />
    <glyph glyph-name="q" unicode="q" 
d="M622 56c11 8 22 18 33 29c69 67 104 154 104 261s-35 194 -104 261c-69 68 -155 102 -257 102c-101 0 -187 -34 -256 -101s-104 -155 -104 -262s34 -194 103 -262c69 -67 155 -101 257 -101c31 0 60 3 88 10c47 -63 82 -84 103 -92s51 -16 76 -13c52 5 77 35 74 70
c-1 35 -21 63 -73 66c-16 3 -31 13 -44 32zM662 347c0 11 8 19 19 19s19 -8 19 -19c0 -9 -8 -19 -19 -19s-19 10 -19 19zM381 61c0 11 9 19 18 19c12 0 20 -8 20 -19c0 -9 -8 -19 -20 -19c-9 0 -18 10 -18 19zM582 145c0 11 8 19 19 19s19 -8 19 -19c0 -9 -8 -19 -19 -19
s-19 10 -19 19zM627 204c0 12 8 20 19 20s19 -8 19 -20c0 -11 -8 -19 -19 -19s-19 8 -19 19zM654 272c0 12 10 20 19 20c12 0 19 -8 19 -20c0 -9 -7 -18 -19 -18c-9 0 -19 9 -19 18zM525 99c0 9 9 18 20 18s18 -9 18 -18c0 -11 -7 -20 -18 -20s-20 9 -20 20zM455 69
c0 12 10 20 19 20c11 0 19 -8 19 -20c0 -9 -8 -18 -19 -18c-9 0 -19 9 -19 18zM399 612c-11 0 -18 10 -18 19c0 12 7 19 18 19s20 -7 20 -19c0 -9 -9 -19 -20 -19zM599 534c-12 0 -19 10 -19 19c0 12 7 19 19 19c9 0 19 -7 19 -19c0 -9 -10 -19 -19 -19zM542 579
c-12 0 -20 8 -20 19s8 19 20 19c9 0 19 -8 19 -19s-10 -19 -19 -19zM471 605c-11 0 -19 9 -19 20s8 19 19 19s19 -8 19 -19s-8 -20 -19 -20zM646 475c-12 0 -19 8 -19 19c0 12 7 19 19 19c9 0 19 -7 19 -19c0 -11 -10 -19 -19 -19zM675 404c-11 0 -19 9 -19 20s8 18 19 18
s19 -7 19 -18s-8 -20 -19 -20zM199 160c12 0 20 -10 20 -18c0 -12 -8 -20 -20 -20c-11 0 -18 8 -18 20c0 8 7 18 18 18zM257 115c11 0 18 -9 18 -18c0 -12 -7 -20 -18 -20s-20 8 -20 20c0 9 9 18 20 18zM327 89c12 0 19 -9 19 -20s-7 -18 -19 -18c-11 0 -19 7 -19 18
s8 20 19 20zM152 220c12 0 20 -9 20 -20c0 -12 -8 -18 -20 -18c-9 0 -18 6 -18 18c0 11 9 20 18 20zM123 290c12 0 20 -10 20 -19c0 -11 -8 -19 -20 -19c-11 0 -19 8 -19 19c0 9 8 19 19 19zM136 347c0 -11 -9 -19 -20 -19c-12 0 -18 8 -18 19c0 9 6 19 18 19
c11 0 20 -10 20 -19zM216 549c0 -11 -9 -19 -20 -19c-12 0 -18 8 -18 19s6 19 18 19c11 0 20 -8 20 -19zM171 490c0 -12 -9 -19 -20 -19s-18 7 -18 19c0 11 7 19 18 19s20 -8 20 -19zM143 422c0 -12 -8 -20 -19 -20c-12 0 -20 8 -20 20c0 9 8 18 20 18c11 0 19 -9 19 -18z
M271 596c0 -11 -7 -19 -18 -19c-12 0 -20 8 -20 19s8 19 20 19c11 0 18 -8 18 -19zM343 625c0 -12 -9 -20 -20 -20c-12 0 -18 8 -18 20c0 9 6 19 18 19c11 0 20 -10 20 -19zM647 -45c0 12 9 20 20 20s19 -8 19 -20c0 -11 -8 -18 -19 -18s-20 7 -20 18zM531 26
c0 12 10 20 19 20c12 0 19 -8 19 -20c0 -8 -7 -18 -19 -18c-9 0 -19 10 -19 18zM583 -22c0 9 8 18 19 18s19 -9 19 -18c0 -11 -8 -20 -19 -20s-19 9 -19 20zM398 141c-57 0 -104 19 -139 56c-35 38 -53 88 -53 150s18 112 53 150s82 57 139 57s104 -19 139 -57
c36 -38 54 -88 54 -150s-18 -112 -54 -150c-35 -37 -82 -56 -139 -56z" />
    <glyph glyph-name="r" unicode="r" horiz-adv-x="568" 
d="M216 390v159h55c63 0 99 -30 99 -83c0 -48 -37 -76 -100 -76h-54zM397 271c33 9 64 31 91 67c28 37 42 83 42 139c0 133 -95 217 -259 217h-137c-48 0 -76 -11 -76 -66v-532c0 -68 32 -96 79 -96c45 0 79 28 79 96v169l167 -222c24 -29 45 -42 74 -43c43 0 72 33 72 74
c0 36 -15 56 -34 76zM117 622c0 12 9 19 20 19s18 -7 18 -19c0 -11 -7 -19 -18 -19s-20 8 -20 19zM117 549c0 11 9 18 20 18s18 -7 18 -18s-7 -20 -18 -20s-20 9 -20 20zM117 472c0 11 9 19 20 19s18 -8 18 -19c0 -9 -7 -19 -18 -19s-20 10 -20 19zM117 395c0 11 9 19 20 19
s18 -8 18 -19s-7 -19 -18 -19s-20 8 -20 19zM117 318c0 12 9 20 20 20s18 -8 18 -20c0 -9 -7 -18 -18 -18s-20 9 -20 18zM117 239c0 12 9 20 20 20s18 -8 18 -20c0 -11 -7 -18 -18 -18s-20 7 -20 18zM117 162c0 12 9 20 20 20s18 -8 18 -20c0 -11 -7 -19 -18 -19
s-20 8 -20 19zM117 84c0 12 9 19 20 19s18 -7 18 -19c0 -11 -7 -20 -18 -20s-20 9 -20 20zM193 624c0 11 9 19 20 19c12 0 18 -8 18 -19s-6 -20 -18 -20c-11 0 -20 9 -20 20zM270 623c0 11 8 19 19 19c12 0 19 -8 19 -19s-7 -19 -19 -19c-11 0 -19 8 -19 19zM345 608
c0 12 7 20 18 20c12 0 20 -8 20 -20c0 -9 -8 -18 -20 -18c-11 0 -18 9 -18 18zM404 568c0 12 9 20 20 20s18 -8 18 -20c0 -9 -7 -19 -18 -19s-20 10 -20 19zM436 508c0 11 8 18 19 18c12 0 19 -7 19 -18s-7 -20 -19 -20c-11 0 -19 9 -19 20zM402 373c0 12 9 19 20 19
s18 -7 18 -19c0 -11 -7 -19 -18 -19s-20 8 -20 19zM340 337c0 12 9 18 18 18c12 0 20 -6 20 -18c0 -11 -8 -20 -20 -20c-9 0 -18 9 -18 20zM193 319c0 12 9 20 20 20c12 0 18 -8 18 -20c0 -9 -6 -18 -18 -18c-11 0 -20 9 -20 18zM267 319c0 12 8 20 19 20c12 0 19 -8 19 -20
c0 -9 -7 -18 -19 -18c-11 0 -19 9 -19 18zM437 437c0 12 8 20 19 20c12 0 19 -8 19 -20c0 -9 -7 -18 -19 -18c-11 0 -19 9 -19 18zM436 76c0 12 8 20 19 20c12 0 19 -8 19 -20c0 -11 -7 -18 -19 -18c-11 0 -19 7 -19 18zM390 133c0 12 8 18 19 18c12 0 19 -6 19 -18
c0 -11 -7 -20 -19 -20c-11 0 -19 9 -19 20zM346 190c0 12 7 20 18 20c12 0 20 -8 20 -20c0 -9 -8 -18 -20 -18c-11 0 -18 9 -18 18zM297 248c0 12 9 19 18 19c12 0 20 -7 20 -19c0 -11 -8 -19 -20 -19c-9 0 -18 8 -18 19z" />
    <glyph glyph-name="s" unicode="s" horiz-adv-x="518" 
d="M325 200c0 -40 -31 -71 -88 -71c-25 0 -50 7 -75 20s-43 20 -56 20c-47 0 -78 -33 -78 -76c0 -30 20 -56 59 -79s88 -34 147 -34c75 0 136 20 183 61c48 41 72 95 72 164c0 57 -15 101 -46 131c-30 30 -81 59 -154 86c-62 23 -93 50 -93 81c0 41 30 64 77 64
c24 0 44 -5 61 -16c17 -10 32 -15 45 -15c44 0 70 26 70 74c0 59 -70 102 -179 102c-69 0 -126 -19 -171 -57c-45 -37 -67 -88 -67 -152c0 -101 62 -164 182 -207c43 -16 73 -30 88 -42c15 -11 23 -29 23 -54zM85 93c0 12 10 18 19 18c11 0 19 -6 19 -18
c0 -11 -8 -20 -19 -20c-9 0 -19 9 -19 20zM152 60c0 9 9 18 20 18c12 0 18 -9 18 -18c0 -11 -6 -20 -18 -20c-11 0 -20 9 -20 20zM227 52c0 12 8 18 19 18c12 0 19 -6 19 -18c0 -11 -7 -20 -19 -20c-11 0 -19 9 -19 20zM301 66c0 12 9 20 18 20c12 0 20 -8 20 -20
c0 -8 -8 -18 -20 -18c-9 0 -18 10 -18 18zM361 107c0 12 9 20 20 20s18 -8 18 -20c0 -8 -7 -18 -18 -18s-20 10 -20 18zM393 173c0 12 8 18 19 18c12 0 19 -6 19 -18c0 -11 -7 -20 -19 -20c-11 0 -19 9 -19 20zM389 248c0 12 8 19 19 19c12 0 19 -7 19 -19
c0 -11 -7 -19 -19 -19c-11 0 -19 8 -19 19zM342 304c0 11 9 18 18 18c12 0 20 -7 20 -18s-8 -20 -20 -20c-9 0 -18 9 -18 20zM276 342c0 11 9 18 20 18c12 0 18 -7 18 -18s-6 -20 -18 -20c-11 0 -20 9 -20 20zM207 371c0 12 10 19 19 19c11 0 19 -7 19 -19
c0 -11 -8 -19 -19 -19c-9 0 -19 8 -19 19zM140 411c0 12 7 19 18 19c12 0 20 -7 20 -19c0 -11 -8 -19 -20 -19c-11 0 -18 8 -18 19zM395 615c0 -12 -8 -19 -19 -19c-12 0 -20 7 -20 19c0 11 8 19 20 19c11 0 19 -8 19 -19zM320 643c0 -12 -9 -19 -18 -19c-12 0 -20 7 -20 19
c0 9 8 19 20 19c9 0 18 -10 18 -19zM240 640c0 -12 -9 -19 -18 -19c-12 0 -20 7 -20 19c0 9 8 19 20 19c9 0 18 -10 18 -19zM169 611c0 -11 -9 -19 -20 -19c-9 0 -18 8 -18 19s9 20 18 20c11 0 20 -9 20 -20zM128 549c0 -11 -9 -19 -20 -19c-9 0 -18 8 -18 19s9 19 18 19
c11 0 20 -8 20 -19zM131 472c0 -11 -9 -19 -20 -19s-18 8 -18 19c0 9 7 19 18 19s20 -10 20 -19z" />
    <glyph glyph-name="t" unicode="t" horiz-adv-x="521" 
d="M182 549v-453c0 -68 32 -96 79 -96c45 0 79 28 79 96v453h95c48 0 76 25 76 73c0 47 -28 72 -76 72h-349c-48 0 -76 -25 -76 -73c0 -47 28 -72 76 -72h96zM241 621c0 12 9 19 20 19s18 -7 18 -19c0 -11 -7 -19 -18 -19s-20 8 -20 19zM241 542c0 11 9 19 20 19
s18 -8 18 -19s-7 -20 -18 -20s-20 9 -20 20zM241 466c0 11 9 18 20 18s18 -7 18 -18s-7 -20 -18 -20s-20 9 -20 20zM241 389c0 11 9 19 20 19s18 -8 18 -19c0 -9 -7 -19 -18 -19s-20 10 -20 19zM241 312c0 12 9 20 20 20s18 -8 18 -20c0 -9 -7 -18 -18 -18s-20 9 -20 18z
M241 236c0 12 9 20 20 20s18 -8 18 -20c0 -9 -7 -18 -18 -18s-20 9 -20 18zM241 160c0 12 9 20 20 20s18 -8 18 -20c0 -11 -7 -18 -18 -18s-20 7 -20 18zM241 84c0 12 9 19 20 19s18 -7 18 -19c0 -11 -7 -20 -18 -20s-20 9 -20 20zM150 621c0 12 9 19 20 19
c12 0 18 -7 18 -19c0 -11 -6 -19 -18 -19c-11 0 -20 8 -20 19zM69 621c0 12 9 19 20 19c12 0 18 -7 18 -19c0 -11 -6 -19 -18 -19c-11 0 -20 8 -20 19zM413 621c0 12 10 19 19 19c11 0 19 -7 19 -19c0 -11 -8 -19 -19 -19c-9 0 -19 8 -19 19zM327 621c0 12 10 19 19 19
c11 0 19 -7 19 -19c0 -11 -8 -19 -19 -19c-9 0 -19 8 -19 19z" />
    <glyph glyph-name="u" unicode="u" horiz-adv-x="691" 
d="M555 694c-45 0 -79 -28 -79 -95v-290c0 -111 -51 -175 -130 -175c-80 0 -130 64 -130 175v290c0 67 -34 95 -79 95c-47 0 -79 -28 -79 -95v-294c0 -101 26 -179 78 -235c53 -56 123 -84 210 -84s157 28 209 84c53 56 79 134 79 235v294c0 67 -32 95 -79 95zM466 105
c0 12 9 20 18 20c12 0 20 -8 20 -20c0 -8 -8 -18 -20 -18c-9 0 -18 10 -18 18zM117 616c0 12 9 19 20 19s18 -7 18 -19c0 -11 -7 -19 -18 -19s-20 8 -20 19zM117 311c0 11 9 19 20 19s18 -8 18 -19c0 -9 -7 -19 -18 -19s-20 10 -20 19zM536 616c0 12 10 19 19 19
c11 0 19 -7 19 -19c0 -11 -8 -19 -19 -19c-9 0 -19 8 -19 19zM536 540c0 12 10 19 19 19c11 0 19 -7 19 -19c0 -11 -8 -19 -19 -19c-9 0 -19 8 -19 19zM536 464c0 11 10 18 19 18c11 0 19 -7 19 -18s-8 -20 -19 -20c-9 0 -19 9 -19 20zM117 387c0 12 9 19 20 19
s18 -7 18 -19c0 -9 -7 -19 -18 -19s-20 10 -20 19zM536 311c0 11 10 19 19 19c11 0 19 -8 19 -19c0 -9 -8 -19 -19 -19c-9 0 -19 10 -19 19zM533 234c0 12 10 20 19 20c12 0 19 -8 19 -20c0 -9 -7 -18 -19 -18c-9 0 -19 9 -19 18zM121 234c0 12 9 20 20 20c9 0 18 -8 18 -20
c0 -9 -9 -18 -18 -18c-11 0 -20 9 -20 18zM331 53c0 11 10 18 19 18c11 0 19 -7 19 -18s-8 -20 -19 -20c-9 0 -19 9 -19 20zM404 66c0 12 9 20 20 20s18 -8 18 -20c0 -8 -7 -18 -18 -18s-20 10 -20 18zM117 464c0 11 9 18 20 18s18 -7 18 -18s-7 -20 -18 -20s-20 9 -20 20z
M511 162c0 12 8 20 19 20c12 0 19 -8 19 -20c0 -11 -7 -19 -19 -19c-11 0 -19 8 -19 19zM257 64c0 12 9 20 18 20c12 0 20 -8 20 -20c0 -8 -8 -18 -20 -18c-9 0 -18 10 -18 18zM191 103c0 11 9 19 20 19c12 0 18 -8 18 -19c0 -9 -6 -19 -18 -19c-11 0 -20 10 -20 19z
M144 162c0 12 8 20 19 20c12 0 20 -8 20 -20c0 -11 -8 -19 -20 -19c-11 0 -19 8 -19 19zM536 387c0 12 10 19 19 19c11 0 19 -7 19 -19c0 -9 -8 -19 -19 -19c-9 0 -19 10 -19 19zM117 540c0 12 9 19 20 19s18 -7 18 -19c0 -11 -7 -19 -18 -19s-20 8 -20 19z" />
    <glyph glyph-name="v" unicode="v" horiz-adv-x="651" 
d="M305 67c0 12 8 20 19 20c12 0 20 -8 20 -20c0 -8 -8 -18 -20 -18c-11 0 -19 10 -19 18zM268 146c0 12 8 20 19 20c12 0 19 -8 19 -20c0 -8 -7 -18 -19 -18c-11 0 -19 10 -19 18zM345 147c0 12 7 20 18 20c12 0 20 -8 20 -20c0 -8 -8 -18 -20 -18c-11 0 -18 10 -18 18z
M374 224c0 11 10 19 19 19c11 0 19 -8 19 -19c0 -9 -8 -19 -19 -19c-9 0 -19 10 -19 19zM441 384c0 11 9 18 20 18s18 -7 18 -18s-7 -20 -18 -20s-20 9 -20 20zM472 462c0 11 8 18 19 18c12 0 19 -7 19 -18s-7 -20 -19 -20c-11 0 -19 9 -19 20zM507 540c0 12 9 19 18 19
c12 0 20 -7 20 -19c0 -11 -8 -19 -20 -19c-9 0 -18 8 -18 19zM538 615c0 12 8 19 19 19s19 -7 19 -19c0 -11 -8 -19 -19 -19s-19 8 -19 19zM325 257l-151 374c-25 61 -66 76 -110 57c-41 -17 -60 -55 -36 -119l218 -511c12 -37 46 -71 82 -65c45 1 69 39 77 65l218 511
c25 64 5 102 -36 119c-43 19 -85 4 -109 -57zM408 305c0 11 10 19 19 19c12 0 19 -8 19 -19c0 -9 -7 -19 -19 -19c-9 0 -19 10 -19 19zM233 224c0 11 9 19 20 19c12 0 18 -8 18 -19c0 -9 -6 -19 -18 -19c-11 0 -20 10 -20 19zM198 305c0 11 9 19 20 19s18 -8 18 -19
c0 -9 -7 -19 -18 -19s-20 10 -20 19zM166 384c0 11 10 18 19 18c11 0 19 -7 19 -18s-8 -20 -19 -20c-9 0 -19 9 -19 20zM136 462c0 11 7 18 18 18c12 0 20 -7 20 -18s-8 -20 -20 -20c-11 0 -18 9 -18 20zM104 539c0 12 9 19 20 19c12 0 19 -7 19 -19c0 -11 -7 -19 -19 -19
c-11 0 -20 8 -20 19zM75 615c0 12 9 19 20 19s18 -7 18 -19c0 -11 -7 -19 -18 -19s-20 8 -20 19z" />
    <glyph glyph-name="w" unicode="w" horiz-adv-x="937" 
d="M470 334l101 -270c9 -28 33 -69 75 -69c56 -5 76 41 85 69l182 511c20 65 -1 103 -45 116c-43 17 -85 -2 -104 -63l-114 -349l-101 272c-16 45 -25 55 -48 63c-11 5 -22 7 -33 7c-24 0 -42 -10 -57 -26c-7 -7 -14 -22 -22 -44l-102 -272l-113 349c-20 61 -61 80 -105 63
c-44 -13 -64 -51 -45 -116l182 -511c12 -29 31 -69 75 -69c53 -5 74 41 85 69zM265 67c0 12 8 20 19 20c12 0 20 -8 20 -20c0 -8 -8 -18 -20 -18c-11 0 -19 10 -19 18zM231 145c0 11 9 19 20 19c12 0 19 -8 19 -19c0 -9 -7 -19 -19 -19c-11 0 -20 10 -20 19zM299 145
c0 11 9 19 18 19c12 0 20 -8 20 -19c0 -9 -8 -19 -20 -19c-9 0 -18 10 -18 19zM446 542c0 11 9 19 20 19s18 -8 18 -19s-7 -20 -18 -20s-20 9 -20 20zM604 145c0 11 9 19 20 19s19 -8 19 -19c0 -9 -8 -19 -19 -19s-20 10 -20 19zM635 67c0 12 8 20 19 20c12 0 19 -8 19 -20
c0 -8 -7 -18 -19 -18c-11 0 -19 10 -19 18zM671 145c0 11 10 19 19 19c12 0 20 -8 20 -19c0 -9 -8 -19 -20 -19c-9 0 -19 10 -19 19zM696 226c0 11 10 19 19 19c12 0 19 -8 19 -19c0 -9 -7 -19 -19 -19c-9 0 -19 10 -19 19zM722 305c0 11 8 19 19 19c12 0 19 -8 19 -19
c0 -9 -7 -19 -19 -19c-11 0 -19 10 -19 19zM747 385c0 11 8 18 19 18s19 -7 19 -18s-8 -20 -19 -20s-19 9 -19 20zM774 464c0 11 10 18 19 18c12 0 19 -7 19 -18s-7 -20 -19 -20c-9 0 -19 9 -19 20zM799 540c0 12 10 19 19 19c12 0 19 -7 19 -19c0 -11 -7 -19 -19 -19
c-9 0 -19 8 -19 19zM823 616c0 12 8 19 19 19c12 0 19 -7 19 -19c0 -11 -7 -19 -19 -19c-11 0 -19 8 -19 19zM576 226c0 11 10 19 19 19c12 0 19 -8 19 -19c0 -9 -7 -19 -19 -19c-9 0 -19 10 -19 19zM329 226c0 11 10 19 19 19c11 0 19 -8 19 -19c0 -9 -8 -19 -19 -19
c-9 0 -19 10 -19 19zM204 226c0 11 9 19 20 19c9 0 18 -8 18 -19c0 -9 -9 -19 -18 -19c-11 0 -20 10 -20 19zM544 306c0 11 9 19 18 19c12 0 20 -8 20 -19c0 -9 -8 -19 -20 -19c-9 0 -18 10 -18 19zM355 306c0 11 9 19 20 19c12 0 19 -8 19 -19c0 -9 -7 -19 -19 -19
c-11 0 -20 10 -20 19zM179 306c0 11 7 19 18 19c12 0 20 -8 20 -19c0 -9 -8 -19 -20 -19c-11 0 -18 10 -18 19zM511 387c0 11 8 18 19 18c12 0 19 -7 19 -18s-7 -20 -19 -20c-11 0 -19 9 -19 20zM388 387c0 11 8 18 19 18c12 0 20 -7 20 -18s-8 -20 -20 -20
c-11 0 -19 9 -19 20zM151 385c0 11 9 18 20 18c12 0 18 -7 18 -18s-6 -20 -18 -20c-11 0 -20 9 -20 20zM479 465c0 11 9 18 20 18c12 0 19 -7 19 -18s-7 -20 -19 -20c-11 0 -20 9 -20 20zM416 463c0 11 8 18 19 18s19 -7 19 -18s-8 -20 -19 -20s-19 9 -19 20zM126 463
c0 11 10 18 19 18c11 0 19 -7 19 -18s-8 -20 -19 -20c-9 0 -19 9 -19 20zM100 539c0 12 7 19 18 19c12 0 20 -7 20 -19c0 -11 -8 -19 -20 -19c-11 0 -18 8 -18 19zM77 616c0 12 9 19 20 19c9 0 18 -7 18 -19c0 -11 -9 -19 -18 -19c-11 0 -20 8 -20 19z" />
    <glyph glyph-name="x" unicode="x" horiz-adv-x="655" 
d="M327 233l153 -195c41 -55 85 -52 121 -24c39 29 46 74 2 126l-177 217l158 195c44 51 34 94 -2 125c-37 28 -79 27 -122 -25l-133 -171l-132 171c-43 52 -83 53 -122 25c-36 -31 -46 -74 -2 -125l158 -195l-176 -217c-44 -52 -38 -97 2 -126c35 -28 79 -31 120 24zM85 81
c0 12 10 20 19 20c11 0 19 -8 19 -20c0 -11 -8 -19 -19 -19c-9 0 -19 8 -19 19zM513 615c0 12 8 19 19 19c12 0 19 -7 19 -19c0 -11 -7 -19 -19 -19c-11 0 -19 8 -19 19zM106 615c0 12 9 19 20 19c12 0 19 -7 19 -19c0 -11 -7 -19 -19 -19c-11 0 -20 8 -20 19zM135 148
c0 12 9 20 18 20c12 0 20 -8 20 -20c0 -8 -8 -18 -20 -18c-9 0 -18 10 -18 18zM188 219c0 11 9 18 20 18c12 0 19 -7 19 -18s-7 -20 -19 -20c-11 0 -20 9 -20 20zM308 359c0 12 8 20 19 20c12 0 19 -8 19 -20c0 -9 -7 -18 -19 -18c-11 0 -19 9 -19 18zM363 429
c0 11 9 19 20 19s18 -8 18 -19c0 -9 -7 -19 -18 -19s-20 10 -20 19zM460 553c0 12 8 19 19 19s19 -7 19 -19c0 -9 -8 -19 -19 -19s-19 10 -19 19zM412 495c0 12 10 19 19 19c11 0 19 -7 19 -19c0 -11 -8 -19 -19 -19c-9 0 -19 8 -19 19zM154 551c0 12 9 19 20 19
c12 0 18 -7 18 -19c0 -9 -6 -19 -18 -19c-11 0 -20 10 -20 19zM202 490c0 12 9 19 20 19c9 0 18 -7 18 -19c0 -11 -9 -19 -18 -19c-11 0 -20 8 -20 19zM252 428c0 12 10 19 19 19c11 0 19 -7 19 -19c0 -9 -8 -19 -19 -19c-9 0 -19 10 -19 19zM244 286c0 12 9 19 20 19
c9 0 18 -7 18 -19c0 -11 -9 -19 -18 -19c-11 0 -20 8 -20 19zM531 80c0 12 10 20 19 20c12 0 19 -8 19 -20c0 -11 -7 -19 -19 -19c-9 0 -19 8 -19 19zM478 146c0 12 8 20 19 20c12 0 19 -8 19 -20c0 -8 -7 -18 -19 -18c-11 0 -19 10 -19 18zM422 218c0 11 9 18 18 18
c12 0 20 -7 20 -18s-8 -20 -20 -20c-9 0 -18 9 -18 20zM366 286c0 12 9 19 20 19s18 -7 18 -19c0 -11 -7 -19 -18 -19s-20 8 -20 19z" />
    <glyph glyph-name="y" unicode="y" horiz-adv-x="631" 
d="M315 404l-150 248c-39 55 -85 57 -120 29c-36 -28 -44 -71 -7 -124l198 -311v-150c0 -68 34 -96 79 -96c47 0 80 28 80 96v152l198 309c39 53 30 96 -6 124s-81 26 -120 -29zM296 295c0 12 7 20 16 20c15 -3 22 -8 22 -20c0 -11 -8 -20 -20 -20c-9 0 -18 9 -18 20z
M298 224c0 11 9 19 18 19c12 0 20 -8 20 -19c0 -9 -8 -19 -20 -19c-9 0 -18 10 -18 19zM298 152c0 12 9 20 18 20c12 0 20 -8 20 -20c0 -9 -8 -18 -20 -18c-9 0 -18 9 -18 18zM298 80c0 12 9 20 18 20c12 0 20 -8 20 -20c0 -11 -8 -19 -20 -19c-9 0 -18 8 -18 19zM348 354
c0 11 8 19 19 19c12 0 20 -8 20 -19s-8 -19 -20 -19c-11 0 -19 8 -19 19zM247 354c0 12 10 20 19 20c11 0 19 -8 19 -20c0 -9 -8 -18 -19 -18c-9 0 -19 9 -19 18zM203 419c0 11 9 18 20 18c9 0 18 -7 18 -18s-9 -20 -18 -20c-11 0 -20 9 -20 20zM157 489c0 12 9 20 20 20
s18 -8 18 -20c0 -11 -7 -19 -18 -19s-20 8 -20 19zM115 553c0 12 9 19 20 19s18 -7 18 -19c0 -9 -7 -19 -18 -19s-20 10 -20 19zM75 618c0 12 9 19 20 19s18 -7 18 -19c0 -11 -7 -19 -18 -19s-20 8 -20 19zM394 420c0 11 8 18 19 18c12 0 19 -7 19 -18s-7 -20 -19 -20
c-11 0 -19 9 -19 20zM436 489c0 12 8 20 19 20c12 0 19 -8 19 -20c0 -11 -7 -19 -19 -19c-11 0 -19 8 -19 19zM478 553c0 12 8 19 19 19c12 0 19 -7 19 -19c0 -9 -7 -19 -19 -19c-11 0 -19 10 -19 19zM519 618c0 12 8 19 19 19c12 0 19 -7 19 -19c0 -11 -7 -19 -19 -19
c-11 0 -19 8 -19 19z" />
    <glyph glyph-name="z" unicode="z" horiz-adv-x="598" 
d="M263 146l263 427c9 19 14 29 14 49c0 47 -28 72 -76 72h-329c-48 0 -76 -25 -76 -73c0 -47 28 -72 76 -72h187l-272 -434c-8 -11 -12 -25 -12 -43c0 -47 28 -72 76 -72h370c48 0 76 25 76 73c0 47 -28 73 -76 73h-221zM102 73c0 12 8 20 19 20c12 0 20 -8 20 -20
c0 -11 -8 -18 -20 -18c-11 0 -19 7 -19 18zM461 73c0 12 10 20 19 20c12 0 19 -8 19 -20c0 -11 -7 -18 -19 -18c-9 0 -19 7 -19 18zM372 73c0 12 9 20 20 20s18 -8 18 -20c0 -11 -7 -18 -18 -18s-20 7 -20 18zM282 73c0 12 9 20 20 20s18 -8 18 -20c0 -11 -7 -18 -18 -18
s-20 7 -20 18zM194 73c0 12 9 20 20 20c12 0 18 -8 18 -20c0 -11 -6 -18 -18 -18c-11 0 -20 7 -20 18zM117 622c0 12 9 19 20 19s18 -7 18 -19c0 -11 -7 -19 -18 -19s-20 8 -20 19zM444 622c0 12 9 19 20 19s18 -7 18 -19c0 -11 -7 -19 -18 -19s-20 8 -20 19zM367 622
c0 12 9 19 20 19s18 -7 18 -19c0 -11 -7 -19 -18 -19s-20 8 -20 19zM287 622c0 12 10 19 19 19c11 0 19 -7 19 -19c0 -11 -8 -19 -19 -19c-9 0 -19 8 -19 19zM202 622c0 12 9 19 20 19c9 0 18 -7 18 -19c0 -11 -9 -19 -18 -19c-11 0 -20 8 -20 19zM142 143c0 11 7 19 18 19
c12 0 20 -8 20 -19c0 -9 -8 -19 -20 -19c-11 0 -18 10 -18 19zM183 212c0 12 7 18 18 18c12 0 20 -6 20 -18c0 -11 -8 -20 -20 -20c-11 0 -18 9 -18 20zM227 279c0 12 8 20 19 20c12 0 19 -8 19 -20c0 -11 -7 -18 -19 -18c-11 0 -19 7 -19 18zM270 348c0 11 8 19 19 19
c12 0 19 -8 19 -19c0 -9 -7 -19 -19 -19c-11 0 -19 10 -19 19zM315 418c0 12 9 19 20 19c12 0 19 -7 19 -19c0 -11 -7 -20 -19 -20c-11 0 -20 9 -20 20zM360 483c0 12 9 20 20 20s18 -8 18 -20c0 -9 -7 -18 -18 -18s-20 9 -20 18zM402 551c0 12 9 19 20 19s18 -7 18 -19
c0 -9 -7 -19 -18 -19s-20 10 -20 19z" />
    <glyph glyph-name="braceleft" unicode="{" horiz-adv-x="652" 
d="M216 190h221v-94c0 -68 32 -96 79 -96c45 0 79 28 79 96v508c0 60 -32 90 -95 90h-206c-145 0 -236 -93 -236 -264v-334c0 -68 32 -96 79 -96c45 0 79 28 79 96v94zM437 321h-221v118c0 75 38 109 99 109h122v-227zM229 261c0 -12 -8 -20 -19 -20c-12 0 -20 8 -20 20
c0 9 8 18 20 18c11 0 19 -9 19 -18zM458 261c0 -12 -9 -20 -20 -20s-18 8 -18 20c0 9 7 18 18 18s20 -9 20 -18zM305 261c0 -12 -8 -20 -19 -20c-12 0 -19 8 -19 20c0 9 7 18 19 18c11 0 19 -9 19 -18zM382 261c0 -12 -9 -20 -20 -20s-18 8 -18 20c0 9 7 18 18 18
s20 -9 20 -18zM267 624c0 11 8 19 19 19c12 0 19 -8 19 -19s-7 -20 -19 -20c-11 0 -19 9 -19 20zM116 390c0 11 9 19 20 19s18 -8 18 -19c0 -9 -7 -19 -18 -19s-20 10 -20 19zM498 468c0 12 8 19 19 19s19 -7 19 -19c0 -9 -8 -19 -19 -19s-19 10 -19 19zM498 310
c0 11 8 19 19 19s19 -8 19 -19c0 -9 -8 -19 -19 -19s-19 10 -19 19zM498 231c0 12 8 20 19 20s19 -8 19 -20c0 -9 -8 -18 -19 -18s-19 9 -19 18zM498 153c0 12 8 20 19 20s19 -8 19 -20c0 -9 -8 -18 -19 -18s-19 9 -19 18zM116 468c0 12 9 19 20 19s18 -7 18 -19
c0 -9 -7 -19 -18 -19s-20 10 -20 19zM116 75c0 12 9 20 20 20s18 -8 18 -20c0 -11 -7 -18 -18 -18s-20 7 -20 18zM116 231c0 12 9 20 20 20s18 -8 18 -20c0 -9 -7 -18 -18 -18s-20 9 -20 18zM498 390c0 11 8 19 19 19s19 -8 19 -19c0 -9 -8 -19 -19 -19s-19 10 -19 19z
M498 75c0 12 8 20 19 20s19 -8 19 -20c0 -11 -8 -18 -19 -18s-19 7 -19 18zM116 310c0 11 9 19 20 19s18 -8 18 -19c0 -9 -7 -19 -18 -19s-20 10 -20 19zM116 153c0 12 9 20 20 20s18 -8 18 -20c0 -9 -7 -18 -18 -18s-20 9 -20 18zM136 547c0 11 7 18 18 18
c12 0 20 -7 20 -18s-8 -20 -20 -20c-11 0 -18 9 -18 20zM189 597c0 11 9 19 20 19c12 0 19 -8 19 -19c0 -9 -7 -19 -19 -19c-11 0 -20 10 -20 19zM343 624c0 11 9 19 18 19c12 0 20 -8 20 -19s-8 -20 -20 -20c-9 0 -18 9 -18 20zM498 623c0 11 8 19 19 19s19 -8 19 -19
s-8 -19 -19 -19s-19 8 -19 19zM420 623c0 11 9 19 18 19c12 0 20 -8 20 -19s-8 -19 -20 -19c-9 0 -18 8 -18 19zM498 546c0 11 8 18 19 18s19 -7 19 -18s-8 -20 -19 -20s-19 9 -19 20z" />
    <glyph glyph-name="bar" unicode="|" horiz-adv-x="271" 
d="M86 731v-769c0 -36 16 -58 51 -58c29 0 49 23 49 58v769c0 39 -18 59 -49 59c-32 0 -51 -23 -51 -59zM150 718c0 -8 -5 -14 -13 -14s-15 6 -15 14c0 9 7 14 15 14s13 -5 13 -14zM150 656c0 -9 -5 -14 -13 -14s-15 5 -15 14s7 15 15 15s13 -6 13 -15zM150 594
c0 -8 -5 -14 -13 -14s-15 6 -15 14c0 9 7 14 15 14s13 -5 13 -14zM150 532c0 -9 -5 -14 -13 -14s-15 5 -15 14s7 15 15 15s13 -6 13 -15zM150 470c0 -8 -5 -14 -13 -14s-15 6 -15 14c0 9 7 14 15 14s13 -5 13 -14zM150 408c0 -9 -5 -14 -13 -14s-15 5 -15 14s7 15 15 15
s13 -6 13 -15zM150 346c0 -8 -5 -14 -13 -14s-15 6 -15 14c0 9 7 14 15 14s13 -5 13 -14zM150 284c0 -9 -5 -14 -13 -14s-15 5 -15 14s7 15 15 15s13 -6 13 -15zM150 223c0 -9 -5 -15 -13 -15s-15 6 -15 15c0 8 7 13 15 13s13 -5 13 -13zM150 160c0 -9 -5 -14 -13 -14
s-15 5 -15 14s7 15 15 15s13 -6 13 -15zM150 99c0 -9 -5 -15 -13 -15s-15 6 -15 15c0 7 7 13 15 13s13 -6 13 -13zM150 36c0 -9 -5 -15 -13 -15s-15 6 -15 15s7 15 15 15s13 -6 13 -15zM150 -25c0 -9 -5 -15 -13 -15s-15 6 -15 15c0 7 7 13 15 13s13 -6 13 -13z" />
    <glyph glyph-name="braceright" unicode="}" horiz-adv-x="652" 
d="M154 546c0 -11 -9 -20 -18 -20c-12 0 -20 9 -20 20s8 18 20 18c9 0 18 -7 18 -18zM232 623c0 -11 -7 -19 -18 -19c-12 0 -20 8 -20 19s8 19 20 19c11 0 18 -8 18 -19zM154 623c0 -11 -9 -19 -18 -19c-12 0 -20 8 -20 19s8 19 20 19c9 0 18 -8 18 -19zM310 624
c0 -11 -8 -20 -19 -20c-12 0 -20 9 -20 20s8 19 20 19c11 0 19 -8 19 -19zM463 597c0 -9 -9 -19 -20 -19s-18 10 -18 19c0 11 7 19 18 19s20 -8 20 -19zM517 547c0 -11 -8 -20 -19 -20c-12 0 -19 9 -19 20s7 18 19 18c11 0 19 -7 19 -18zM536 153c0 -9 -10 -18 -19 -18
c-11 0 -19 9 -19 18c0 12 8 20 19 20c9 0 19 -8 19 -20zM536 310c0 -9 -10 -19 -19 -19c-11 0 -19 10 -19 19c0 11 8 19 19 19c9 0 19 -8 19 -19zM154 75c0 -11 -9 -18 -18 -18c-12 0 -20 7 -20 18c0 12 8 20 20 20c9 0 18 -8 18 -20zM154 390c0 -9 -9 -19 -18 -19
c-12 0 -20 10 -20 19c0 11 8 19 20 19c9 0 18 -8 18 -19zM536 231c0 -9 -10 -18 -19 -18c-11 0 -19 9 -19 18c0 12 8 20 19 20c9 0 19 -8 19 -20zM536 75c0 -11 -10 -18 -19 -18c-11 0 -19 7 -19 18c0 12 8 20 19 20c9 0 19 -8 19 -20zM536 468c0 -9 -10 -19 -19 -19
c-11 0 -19 10 -19 19c0 12 8 19 19 19c9 0 19 -7 19 -19zM154 153c0 -9 -9 -18 -18 -18c-12 0 -20 9 -20 18c0 12 8 20 20 20c9 0 18 -8 18 -20zM154 231c0 -9 -9 -18 -18 -18c-12 0 -20 9 -20 18c0 12 8 20 20 20c9 0 18 -8 18 -20zM154 310c0 -9 -9 -19 -18 -19
c-12 0 -20 10 -20 19c0 11 8 19 20 19c9 0 18 -8 18 -19zM154 468c0 -9 -9 -19 -18 -19c-12 0 -20 10 -20 19c0 12 8 19 20 19c9 0 18 -7 18 -19zM536 390c0 -9 -10 -19 -19 -19c-11 0 -19 10 -19 19c0 11 8 19 19 19c9 0 19 -8 19 -19zM386 624c0 -11 -9 -20 -20 -20
c-12 0 -19 9 -19 20s7 19 19 19c11 0 20 -8 20 -19zM272 261c0 9 9 18 20 18c12 0 19 -9 19 -18c0 -12 -7 -20 -19 -20c-11 0 -20 8 -20 20zM349 261c0 9 8 18 19 18c12 0 19 -9 19 -18c0 -12 -7 -20 -19 -20c-11 0 -19 8 -19 20zM196 261c0 9 9 18 20 18s18 -9 18 -18
c0 -12 -7 -20 -18 -20s-20 8 -20 20zM426 261c0 9 9 18 18 18c12 0 20 -9 20 -18c0 -12 -8 -20 -20 -20c-9 0 -18 8 -18 20zM216 321v227h121c63 0 100 -34 100 -109v-118h-221zM216 190h221v-94c0 -68 32 -96 79 -96c45 0 79 28 79 96v334c0 171 -90 264 -237 264h-206
c-63 0 -94 -30 -94 -90v-508c0 -68 32 -96 79 -96c45 0 79 28 79 96v94z" />
    <glyph glyph-name="asciitilde" unicode="~" horiz-adv-x="691" 
d="M137 0c45 0 79 28 79 96v94h260v-94c0 -68 34 -96 79 -96c47 0 79 28 79 96v291c0 101 -26 179 -79 235c-52 56 -122 84 -209 84s-157 -28 -210 -84c-52 -56 -78 -134 -78 -235v-291c0 -68 32 -96 79 -96zM476 321h-260v63c0 111 50 175 130 175c79 0 130 -64 130 -175
v-63zM155 76c0 -12 -9 -18 -18 -18c-12 0 -20 6 -20 18c0 11 8 20 20 20c9 0 18 -9 18 -20zM475 261c0 -12 -8 -20 -19 -20c-12 0 -19 8 -19 20c0 9 7 18 19 18c11 0 19 -9 19 -18zM574 76c0 -12 -10 -18 -19 -18c-11 0 -19 6 -19 18c0 11 8 20 19 20c9 0 19 -9 19 -20z
M287 626c0 -12 -10 -20 -19 -20c-11 0 -19 8 -19 20c0 9 8 19 19 19c9 0 19 -10 19 -19zM570 458c0 -12 -8 -20 -19 -20s-19 8 -19 20c0 11 8 19 19 19s19 -8 19 -19zM158 458c0 -12 -10 -20 -18 -20c-12 0 -20 8 -20 20c0 11 8 19 20 19c8 0 18 -8 18 -19zM548 530
c0 -12 -9 -19 -20 -19s-19 7 -19 19c0 11 8 19 19 19s20 -8 20 -19zM574 382c0 -12 -10 -20 -19 -20c-11 0 -19 8 -19 20c0 9 8 18 19 18c9 0 19 -9 19 -18zM398 261c0 -12 -9 -20 -18 -20c-12 0 -20 8 -20 20c0 9 8 18 20 18c9 0 18 -9 18 -18zM246 261
c0 -12 -10 -20 -19 -20c-11 0 -19 8 -19 20c0 9 8 18 19 18c9 0 19 -9 19 -18zM574 305c0 -11 -10 -19 -19 -19c-11 0 -19 8 -19 19c0 9 8 19 19 19c9 0 19 -10 19 -19zM322 261c0 -12 -9 -20 -18 -20c-12 0 -20 8 -20 20c0 9 8 18 20 18c9 0 18 -9 18 -18zM155 382
c0 -12 -9 -20 -18 -20c-12 0 -20 8 -20 20c0 9 8 18 20 18c9 0 18 -9 18 -18zM226 587c0 -12 -8 -20 -19 -20c-12 0 -20 8 -20 20c0 9 8 18 20 18c11 0 19 -9 19 -18zM500 590c0 -12 -9 -20 -20 -20s-18 8 -18 20c0 9 7 18 18 18s20 -9 20 -18zM435 628
c0 -12 -8 -20 -19 -20c-12 0 -20 8 -20 20c0 9 8 18 20 18c11 0 19 -9 19 -18zM181 530c0 -12 -9 -19 -20 -19c-12 0 -18 7 -18 19c0 11 6 19 18 19c11 0 20 -8 20 -19zM360 640c0 -12 -9 -19 -18 -19c-12 0 -20 7 -20 19c0 9 8 19 20 19c9 0 18 -10 18 -19zM155 305
c0 -11 -9 -19 -18 -19c-12 0 -20 8 -20 19c0 9 8 19 20 19c9 0 18 -10 18 -19zM155 229c0 -11 -9 -19 -18 -19c-12 0 -20 8 -20 19c0 9 8 19 20 19c9 0 18 -10 18 -19zM155 152c0 -11 -9 -18 -18 -18c-12 0 -20 7 -20 18s8 20 20 20c9 0 18 -9 18 -20zM574 229
c0 -11 -10 -19 -19 -19c-11 0 -19 8 -19 19c0 9 8 19 19 19c9 0 19 -10 19 -19zM574 152c0 -11 -10 -18 -19 -18c-11 0 -19 7 -19 18s8 20 19 20c9 0 19 -9 19 -20z" />
    <glyph glyph-name="Euro" unicode="&#x20ac;" horiz-adv-x="662" 
d="M54 250h9c15 -64 44 -119 87 -166c65 -69 147 -104 246 -104c58 0 109 12 152 36s65 53 66 86c0 40 -27 79 -64 80c-19 1 -40 -7 -65 -22s-54 -23 -88 -23c-55 0 -99 19 -131 57c-14 17 -25 36 -33 56h98c24 0 38 13 38 38c0 23 -14 36 -38 36h-113v19c0 11 1 22 2 34
h168c24 0 39 13 39 38c0 23 -15 36 -39 36h-150c7 16 17 31 28 44c32 39 76 58 131 58c34 0 63 -8 88 -23s46 -23 65 -22c37 1 64 40 64 81c-1 33 -23 61 -66 84c-43 24 -94 36 -152 36c-99 0 -181 -35 -246 -104c-41 -43 -69 -94 -84 -154h-12c-27 0 -39 -13 -39 -36
c0 -25 12 -38 39 -38h2c-1 -12 -1 -23 -1 -34v-19h-1c-27 0 -39 -13 -39 -36c0 -25 12 -38 39 -38zM349 631c0 -12 -8 -20 -19 -20c-12 0 -19 8 -19 20c0 9 7 18 19 18c11 0 19 -9 19 -18zM227 133c0 -12 -8 -20 -19 -20c-12 0 -20 8 -20 20c0 11 8 18 20 18
c11 0 19 -7 19 -18zM184 193c0 -11 -8 -18 -19 -18c-12 0 -19 7 -19 18s7 20 19 20c11 0 19 -9 19 -20zM351 60c0 -12 -8 -20 -19 -20c-12 0 -20 8 -20 20c0 8 8 18 20 18c11 0 19 -10 19 -18zM284 86c0 -12 -10 -20 -19 -20c-11 0 -19 8 -19 20c0 11 8 18 19 18
c9 0 19 -7 19 -18zM224 552c0 -11 -9 -19 -20 -19c-12 0 -19 8 -19 19s7 19 19 19c11 0 20 -8 20 -19zM182 491c0 -12 -9 -19 -20 -19c-12 0 -19 7 -19 19c0 11 7 19 19 19c11 0 20 -8 20 -19zM280 602c0 -12 -9 -19 -18 -19c-12 0 -20 7 -20 19c0 9 8 19 20 19
c9 0 18 -10 18 -19zM538 567c-12 0 -19 9 -19 20s7 18 19 18c11 0 19 -7 19 -18s-8 -20 -19 -20zM475 604c-11 0 -19 9 -19 20s8 19 19 19c9 0 19 -8 19 -19s-10 -20 -19 -20zM403 32c-11 0 -18 9 -18 20c0 12 7 18 18 18s20 -6 20 -18c0 -11 -9 -20 -20 -20zM540 82
c-12 0 -19 9 -19 20c0 9 7 18 19 18c11 0 19 -9 19 -18c0 -11 -8 -20 -19 -20zM402 619c-11 0 -18 10 -18 19c0 11 7 19 18 19s20 -8 20 -19c0 -9 -9 -19 -20 -19zM476 45c-11 0 -19 10 -19 18c0 12 8 20 19 20c9 0 19 -8 19 -20c0 -8 -10 -18 -19 -18zM151 343
c0 -12 -7 -20 -18 -20c-12 0 -20 8 -20 20c0 9 8 18 20 18c11 0 18 -9 18 -18zM158 418c0 -12 -10 -20 -18 -20c-12 0 -20 8 -20 20c0 11 8 19 20 19c8 0 18 -8 18 -19zM161 267c0 -11 -10 -19 -18 -19c-12 0 -20 8 -20 19c0 9 8 19 20 19c8 0 18 -10 18 -19z" />
    <glyph glyph-name="quotesinglbase" unicode="&#x201a;" horiz-adv-x="229" 
d="M134 131c7 -50 -35 -70 -67 -75c-25 -3 -36 -15 -35 -36c1 -19 14 -28 30 -28c41 0 75 16 102 49s41 74 41 125c0 71 -40 118 -95 118c-48 0 -87 -30 -87 -90c0 -39 26 -70 77 -70c9 0 22 2 34 7zM90 201c0 12 9 22 21 22s23 -10 23 -22c0 -13 -11 -22 -23 -22
s-21 9 -21 22z" />
    <glyph glyph-name="florin" unicode="&#x192;" horiz-adv-x="1037" 
d="M585 50c51 -47 116 -70 196 -70c58 0 108 12 151 36s65 53 66 86c0 40 -27 79 -64 80c-18 1 -39 -7 -64 -22s-54 -23 -88 -23c-62 0 -108 19 -139 57c-19 23 -32 51 -39 82h186c47 0 71 23 71 70c0 44 -24 67 -71 67h-186c7 32 20 59 39 82c31 39 77 58 139 58
c34 0 63 -8 88 -23s46 -23 64 -22c37 1 64 40 64 81c-1 33 -23 61 -66 84c-43 24 -93 36 -151 36c-102 0 -182 -35 -239 -105c-43 60 -105 90 -184 90h-64c-145 0 -236 -96 -236 -255v-343c0 -68 32 -96 79 -96c45 0 79 28 79 96v94h221v-94c0 -68 32 -96 79 -96
c23 0 41 7 56 21c5 5 10 15 13 29zM437 321h-221v118c0 75 38 109 99 109h22c63 0 100 -34 100 -109v-118zM237 261c0 -12 -9 -20 -18 -20c-12 0 -20 8 -20 20c0 9 8 18 20 18c9 0 18 -9 18 -18zM313 261c0 -12 -7 -20 -18 -20c-12 0 -20 8 -20 20c0 9 8 18 20 18
c11 0 18 -9 18 -18zM390 261c0 -12 -8 -20 -19 -20c-12 0 -19 8 -19 20c0 9 7 18 19 18c11 0 19 -9 19 -18zM116 390c0 11 9 19 20 19s18 -8 18 -19c0 -9 -7 -19 -18 -19s-20 10 -20 19zM604 347c0 11 9 19 20 19s19 -8 19 -19c0 -9 -8 -19 -19 -19s-20 10 -20 19zM267 624
c0 11 8 19 19 19c12 0 19 -8 19 -19s-7 -20 -19 -20c-11 0 -19 9 -19 20zM116 75c0 12 9 20 20 20s18 -8 18 -20c0 -11 -7 -18 -18 -18s-20 7 -20 18zM116 153c0 12 9 20 20 20s18 -8 18 -20c0 -9 -7 -18 -18 -18s-20 9 -20 18zM189 597c0 11 9 19 20 19c12 0 19 -8 19 -19
c0 -9 -7 -19 -19 -19c-11 0 -20 10 -20 19zM422 597c0 11 9 19 18 19c12 0 20 -8 20 -19c0 -9 -8 -19 -20 -19c-9 0 -18 10 -18 19zM347 624c0 11 8 19 19 19c12 0 20 -8 20 -19s-8 -20 -20 -20c-11 0 -19 9 -19 20zM498 75c0 12 8 20 19 20s19 -8 19 -20
c0 -11 -8 -18 -19 -18s-19 7 -19 18zM116 231c0 12 9 20 20 20s18 -8 18 -20c0 -9 -7 -18 -18 -18s-20 9 -20 18zM770 347c0 11 8 19 19 19s19 -8 19 -19c0 -9 -8 -19 -19 -19s-19 10 -19 19zM116 468c0 12 9 19 20 19s18 -7 18 -19c0 -9 -7 -19 -18 -19s-20 10 -20 19z
M136 547c0 11 7 18 18 18c12 0 20 -7 20 -18s-8 -20 -20 -20c-11 0 -18 9 -18 20zM116 310c0 11 9 19 20 19s18 -8 18 -19c0 -9 -7 -19 -18 -19s-20 10 -20 19zM687 347c0 11 9 19 20 19s19 -8 19 -19c0 -9 -8 -19 -19 -19s-20 10 -20 19zM498 468c0 12 8 19 19 19
s19 -7 19 -19c0 -9 -8 -19 -19 -19s-19 10 -19 19zM498 310c0 11 8 19 19 19s19 -8 19 -19c0 -9 -8 -19 -19 -19s-19 10 -19 19zM498 231c0 12 8 20 19 20s19 -8 19 -20c0 -9 -8 -18 -19 -18s-19 9 -19 18zM498 153c0 12 8 20 19 20s19 -8 19 -20c0 -9 -8 -18 -19 -18
s-19 9 -19 18zM498 390c0 11 8 19 19 19s19 -8 19 -19c0 -9 -8 -19 -19 -19s-19 10 -19 19zM479 547c0 11 8 18 19 18c12 0 19 -7 19 -18s-7 -20 -19 -20c-11 0 -19 9 -19 20zM787 619c-12 0 -19 10 -19 19c0 11 7 19 19 19c9 0 19 -8 19 -19c0 -9 -10 -19 -19 -19zM859 604
c-11 0 -19 9 -19 20s8 19 19 19s19 -8 19 -19s-8 -20 -19 -20zM665 602c0 -12 -10 -19 -19 -19c-12 0 -19 7 -19 19c0 9 7 19 19 19c9 0 19 -10 19 -19zM733 631c0 -12 -8 -20 -19 -20s-19 8 -19 20c0 9 8 18 19 18s19 -9 19 -18zM922 567c-11 0 -19 9 -19 20s8 18 19 18
s19 -7 19 -18s-8 -20 -19 -20zM669 86c0 -12 -9 -20 -20 -20s-18 8 -18 20c0 11 7 18 18 18s20 -7 20 -18zM735 60c0 -12 -8 -20 -19 -20s-19 8 -19 20c0 8 8 18 19 18s19 -10 19 -18zM788 32c-12 0 -19 9 -19 20c0 12 7 18 19 18c9 0 19 -6 19 -18c0 -11 -10 -20 -19 -20z
M860 45c-11 0 -19 10 -19 18c0 12 8 20 19 20s19 -8 19 -20c0 -8 -8 -18 -19 -18zM924 82c-12 0 -19 9 -19 20c0 9 7 18 19 18c11 0 19 -9 19 -18c0 -11 -8 -20 -19 -20zM611 133c0 -12 -8 -20 -19 -20s-19 8 -19 20c0 11 8 18 19 18s19 -7 19 -18zM607 552
c0 -11 -9 -19 -18 -19c-12 0 -20 8 -20 19s8 19 20 19c9 0 18 -8 18 -19zM467 261c0 -12 -9 -20 -20 -20c-12 0 -19 8 -19 20c0 9 7 18 19 18c11 0 20 -9 20 -18z" />
    <glyph glyph-name="quotedblbase" unicode="&#x201e;" horiz-adv-x="440" 
d="M353 131c5 -50 -32 -69 -66 -75c-25 -3 -36 -15 -35 -36c1 -19 13 -28 29 -28c41 0 76 16 103 49s41 74 41 125c0 71 -40 118 -95 118c-48 0 -87 -30 -87 -90c0 -39 27 -70 75 -70c12 0 24 2 35 7zM134 131c7 -50 -35 -70 -67 -75c-25 -3 -36 -15 -35 -36
c1 -19 14 -28 30 -28c41 0 75 16 102 49s41 74 41 125c0 71 -40 118 -95 118c-48 0 -87 -30 -87 -90c0 -39 26 -70 77 -70c9 0 22 2 34 7zM90 201c0 12 9 22 21 22s23 -10 23 -22c0 -13 -11 -22 -23 -22s-21 9 -21 22zM310 201c0 12 9 22 22 22c12 0 22 -10 22 -22
c0 -13 -10 -22 -22 -22c-13 0 -22 9 -22 22z" />
    <glyph glyph-name="ellipsis" unicode="&#x2026;" horiz-adv-x="789" 
d="M28 82c0 -49 39 -89 90 -89c48 0 88 40 88 89c0 48 -40 89 -88 89c-49 0 -90 -41 -90 -89zM94 84c0 15 10 24 25 24s25 -9 25 -24s-10 -25 -25 -25s-25 10 -25 25zM300 82c0 -49 39 -89 90 -89c48 0 88 40 88 89c0 48 -40 89 -88 89c-49 0 -90 -41 -90 -89zM366 84
c0 15 10 24 25 24s25 -9 25 -24s-10 -25 -25 -25s-25 10 -25 25zM574 82c0 -49 39 -89 90 -89c48 0 88 40 88 89c0 48 -40 89 -88 89c-49 0 -90 -41 -90 -89zM640 84c0 15 10 24 25 24s25 -9 25 -24s-10 -25 -25 -25s-25 10 -25 25z" />
    <glyph glyph-name="dagger" unicode="&#x2020;" horiz-adv-x="531" 
d="M247 618c0 12 10 19 19 19c11 0 19 -7 19 -19c0 -11 -8 -19 -19 -19c-9 0 -19 8 -19 19zM247 532c0 12 10 19 19 19c11 0 19 -7 19 -19c0 -11 -8 -19 -19 -19c-9 0 -19 8 -19 19zM247 445c0 12 10 20 19 20c11 0 19 -8 19 -20c0 -11 -8 -18 -19 -18c-9 0 -19 7 -19 18z
M247 364c0 12 10 20 19 20c11 0 19 -8 19 -20c0 -11 -8 -18 -19 -18c-9 0 -19 7 -19 18zM247 283c0 12 10 20 19 20c11 0 19 -8 19 -20c0 -11 -8 -18 -19 -18c-9 0 -19 7 -19 18zM247 202c0 12 10 20 19 20c11 0 19 -8 19 -20c0 -11 -8 -19 -19 -19c-9 0 -19 8 -19 19z
M247 121c0 12 10 20 19 20c11 0 19 -8 19 -20c0 -11 -8 -19 -19 -19c-9 0 -19 8 -19 19zM247 40c0 12 10 20 19 20c11 0 19 -8 19 -20c0 -11 -8 -19 -19 -19c-9 0 -19 8 -19 19zM247 -41c0 12 10 20 19 20c11 0 19 -8 19 -20c0 -11 -8 -20 -19 -20c-9 0 -19 9 -19 20z
M78 444c0 12 9 20 20 20c9 0 18 -8 18 -20c0 -9 -9 -18 -18 -18c-11 0 -20 9 -20 18zM158 444c0 12 9 20 20 20s18 -8 18 -20c0 -9 -7 -18 -18 -18s-20 9 -20 18zM328 444c0 12 10 20 19 20c11 0 19 -8 19 -20c0 -9 -8 -18 -19 -18c-9 0 -19 9 -19 18zM408 444
c0 12 10 20 19 20c12 0 19 -8 19 -20c0 -9 -7 -18 -19 -18c-9 0 -19 9 -19 18zM191 372v-400c0 -68 28 -96 75 -96s75 28 75 96v400h86c49 0 76 23 76 72c0 44 -27 69 -76 69h-86v86c0 67 -28 95 -75 95s-75 -28 -75 -95v-86h-86c-49 0 -77 -24 -77 -71s28 -70 77 -70h86z
" />
    <glyph glyph-name="daggerdbl" unicode="&#x2021;" horiz-adv-x="531" 
d="M191 372v-184h-86c-49 0 -77 -25 -77 -70c0 -47 28 -70 77 -70h86v-76c0 -68 28 -96 75 -96s75 28 75 96v76h86c49 0 76 23 76 72c0 43 -27 68 -76 68h-86v184h86c49 0 76 23 76 72c0 44 -27 69 -76 69h-86v86c0 67 -28 95 -75 95s-75 -28 -75 -95v-86h-86
c-49 0 -77 -24 -77 -71s28 -70 77 -70h86zM78 444c0 12 9 20 20 20c9 0 18 -8 18 -20c0 -9 -9 -18 -18 -18c-11 0 -20 9 -20 18zM158 444c0 12 9 20 20 20s18 -8 18 -20c0 -9 -7 -18 -18 -18s-20 9 -20 18zM328 444c0 12 10 20 19 20c11 0 19 -8 19 -20c0 -9 -8 -18 -19 -18
c-9 0 -19 9 -19 18zM408 444c0 12 10 20 19 20c12 0 19 -8 19 -20c0 -9 -7 -18 -19 -18c-9 0 -19 9 -19 18zM78 120c0 12 9 20 20 20c9 0 18 -8 18 -20c0 -11 -9 -18 -18 -18c-11 0 -20 7 -20 18zM158 120c0 12 9 20 20 20s18 -8 18 -20c0 -11 -7 -18 -18 -18s-20 7 -20 18z
M328 120c0 12 10 20 19 20c11 0 19 -8 19 -20c0 -11 -8 -18 -19 -18c-9 0 -19 7 -19 18zM408 120c0 12 10 20 19 20c12 0 19 -8 19 -20c0 -11 -7 -18 -19 -18c-9 0 -19 7 -19 18zM247 618c0 12 10 19 19 19c11 0 19 -7 19 -19c0 -11 -8 -19 -19 -19c-9 0 -19 8 -19 19z
M247 532c0 12 10 19 19 19c11 0 19 -7 19 -19c0 -11 -8 -19 -19 -19c-9 0 -19 8 -19 19zM247 445c0 12 10 20 19 20c11 0 19 -8 19 -20c0 -11 -8 -18 -19 -18c-9 0 -19 7 -19 18zM247 364c0 12 10 20 19 20c11 0 19 -8 19 -20c0 -11 -8 -18 -19 -18c-9 0 -19 7 -19 18z
M247 283c0 12 10 20 19 20c11 0 19 -8 19 -20c0 -11 -8 -18 -19 -18c-9 0 -19 7 -19 18zM247 202c0 12 10 20 19 20c11 0 19 -8 19 -20c0 -11 -8 -19 -19 -19c-9 0 -19 8 -19 19zM247 121c0 12 10 20 19 20c11 0 19 -8 19 -20c0 -11 -8 -19 -19 -19c-9 0 -19 8 -19 19z
M247 40c0 12 10 20 19 20c11 0 19 -8 19 -20c0 -11 -8 -19 -19 -19c-9 0 -19 8 -19 19zM247 -41c0 12 10 20 19 20c11 0 19 -8 19 -20c0 -11 -8 -20 -19 -20c-9 0 -19 9 -19 20z" />
    <glyph glyph-name="circumflex" unicode="&#x2c6;" horiz-adv-x="375" 
d="M187 567l56 -54c25 -24 48 -23 69 1c19 16 21 45 -3 69l-85 79c-11 11 -23 17 -37 17c-13 -1 -25 -6 -36 -17l-86 -80c-23 -24 -22 -46 -3 -69c23 -24 45 -25 70 -1zM174 626c0 8 8 14 13 14c8 0 15 -6 15 -14c0 -9 -7 -15 -15 -15c-5 0 -13 6 -13 15zM220 590
c0 9 6 14 13 14c8 0 15 -5 15 -14c0 -8 -7 -14 -15 -14c-7 0 -13 6 -13 14zM262 549c0 8 6 13 13 13c8 0 15 -5 15 -13c0 -9 -7 -15 -15 -15c-7 0 -13 6 -13 15zM126 590c0 9 7 14 15 14c7 0 13 -5 13 -14c0 -8 -6 -14 -13 -14c-8 0 -15 6 -15 14zM87 549c0 8 7 13 15 13
c5 0 13 -5 13 -13c0 -9 -8 -15 -13 -15c-8 0 -15 6 -15 15z" />
    <glyph glyph-name="perthousand" unicode="&#x2030;" horiz-adv-x="1191" 
d="M617 695c-23 13 -48 10 -71 -30l-341 -599c-19 -33 -9 -55 15 -70c23 -13 47 -11 68 25l343 603c19 32 9 58 -14 71zM598 154c0 31 23 53 50 53c28 0 50 -22 50 -53c0 -27 -22 -51 -50 -51c-27 0 -50 24 -50 51zM499 154c0 -43 14 -79 43 -109s65 -45 106 -45
c42 0 77 15 106 45c29 31 43 67 43 109c0 44 -14 81 -43 111s-64 45 -106 45c-41 0 -77 -15 -106 -45c-29 -29 -43 -66 -43 -111zM578 647c0 9 7 15 14 15c8 0 14 -6 14 -15c0 -8 -6 -14 -14 -14c-7 0 -14 6 -14 14zM545 591c0 9 6 14 14 14c7 0 14 -5 14 -14
c0 -8 -7 -14 -14 -14c-8 0 -14 6 -14 14zM511 532c0 9 7 15 14 15c8 0 15 -6 15 -15s-7 -14 -15 -14c-7 0 -14 5 -14 14zM477 472c0 9 6 14 14 14s15 -5 15 -14c0 -8 -7 -14 -15 -14s-14 6 -14 14zM441 410c0 9 7 15 15 15s14 -6 14 -15s-6 -14 -14 -14s-15 5 -15 14z
M405 348c0 8 7 14 15 14s14 -6 14 -14s-6 -14 -14 -14s-15 6 -15 14zM371 286c0 9 7 15 15 15c7 0 13 -6 13 -15s-6 -15 -13 -15c-8 0 -15 6 -15 15zM338 228c0 8 6 14 14 14c7 0 14 -6 14 -14s-7 -14 -14 -14c-8 0 -14 6 -14 14zM303 165c0 9 6 15 13 15c8 0 15 -6 15 -15
s-7 -15 -15 -15c-7 0 -13 6 -13 15zM634 48c0 9 7 14 14 14c8 0 15 -5 15 -14s-7 -15 -15 -15c-7 0 -14 6 -14 15zM233 44c0 9 7 15 15 15s15 -6 15 -15s-7 -15 -15 -15s-15 6 -15 15zM689 63c0 9 7 15 15 15s14 -6 14 -15c0 -7 -6 -13 -14 -13s-15 6 -15 13zM737 153
c0 9 7 15 15 15c7 0 14 -6 14 -15s-7 -13 -14 -13c-8 0 -15 4 -15 13zM532 153c0 9 7 15 15 15c7 0 14 -6 14 -15s-7 -13 -14 -13c-8 0 -15 4 -15 13zM634 260c0 8 7 13 14 13c8 0 15 -5 15 -13c0 -9 -7 -15 -15 -15c-7 0 -14 6 -14 15zM687 247c0 9 6 15 14 15
s14 -6 14 -15s-6 -15 -14 -15s-14 6 -14 15zM723 209c0 9 6 15 14 15s15 -6 15 -15s-7 -15 -15 -15s-14 6 -14 15zM724 102c0 7 6 13 14 13s15 -6 15 -13c0 -9 -7 -15 -15 -15s-14 6 -14 15zM546 209c0 9 6 15 14 15c7 0 14 -6 14 -15s-7 -15 -14 -15c-8 0 -14 6 -14 15z
M582 247c0 9 6 15 14 15s14 -6 14 -15s-6 -15 -14 -15s-14 6 -14 15zM578 63c0 9 7 15 14 15c8 0 14 -6 14 -15c0 -7 -6 -13 -14 -13c-7 0 -14 6 -14 13zM545 102c0 7 6 13 14 13c7 0 14 -6 14 -13c0 -9 -7 -15 -14 -15c-8 0 -14 6 -14 15zM138 540c0 29 22 52 49 52
c28 0 50 -23 50 -52c0 -28 -22 -52 -50 -52c-27 0 -49 24 -49 52zM38 540c0 -43 14 -80 43 -110c29 -29 65 -44 106 -44c42 0 77 15 106 45s44 66 44 109s-15 79 -44 109c-29 31 -64 46 -106 46c-41 0 -77 -15 -106 -45s-43 -67 -43 -110zM174 433c0 8 8 14 13 14
c8 0 15 -6 15 -14s-7 -14 -15 -14c-5 0 -13 6 -13 14zM229 449c0 9 6 15 14 15s15 -6 15 -15s-7 -14 -15 -14s-14 5 -14 14zM276 539c0 9 7 14 15 14s14 -5 14 -14s-6 -15 -14 -15s-15 6 -15 15zM71 539c0 9 7 14 15 14s15 -5 15 -14s-7 -15 -15 -15s-15 6 -15 15zM174 645
c0 8 8 14 13 14c8 0 15 -6 15 -14c0 -9 -7 -14 -15 -14c-5 0 -13 5 -13 14zM226 632c0 9 6 14 14 14s15 -5 15 -14c0 -8 -7 -14 -15 -14s-14 6 -14 14zM263 594c0 9 6 14 13 14c8 0 15 -5 15 -14c0 -8 -7 -14 -15 -14c-7 0 -13 6 -13 14zM264 486c0 9 5 15 13 15
s15 -6 15 -15s-7 -14 -15 -14s-13 5 -13 14zM85 594c0 9 7 14 15 14c5 0 13 -5 13 -14c0 -8 -8 -14 -13 -14c-8 0 -15 6 -15 14zM121 632c0 9 7 14 15 14s13 -5 13 -14c0 -8 -5 -14 -13 -14s-15 6 -15 14zM117 449c0 9 7 15 15 15s14 -6 14 -15s-6 -14 -14 -14s-15 5 -15 14
zM84 486c0 9 7 15 15 15c7 0 13 -6 13 -15s-6 -14 -13 -14c-8 0 -15 5 -15 14zM267 104c0 8 6 14 14 14s15 -6 15 -14s-7 -14 -15 -14s-14 6 -14 14zM954 154c0 31 22 53 50 53c27 0 50 -22 50 -53c0 -27 -23 -51 -50 -51c-28 0 -50 24 -50 51zM854 154
c0 -43 14 -79 43 -109s65 -45 107 -45c41 0 76 15 105 45c29 31 44 67 44 109c0 44 -15 81 -44 111s-64 45 -105 45c-42 0 -78 -15 -107 -45c-29 -29 -43 -66 -43 -111zM990 48c0 9 6 14 14 14s15 -5 15 -14s-7 -15 -15 -15s-14 6 -14 15zM1045 63c0 9 7 15 15 15
c7 0 14 -6 14 -15c0 -7 -7 -13 -14 -13c-8 0 -15 6 -15 13zM1093 153c0 9 7 15 14 15c8 0 14 -6 14 -15s-6 -13 -14 -13c-7 0 -14 4 -14 13zM888 153c0 9 6 15 14 15s14 -6 14 -15s-6 -13 -14 -13s-14 4 -14 13zM990 260c0 8 6 13 14 13s15 -5 15 -13c0 -9 -7 -15 -15 -15
s-14 6 -14 15zM1042 247c0 9 7 15 15 15c7 0 14 -6 14 -15s-7 -15 -14 -15c-8 0 -15 6 -15 15zM1078 209c0 9 7 15 15 15s14 -6 14 -15s-6 -15 -14 -15s-15 6 -15 15zM1079 102c0 7 7 13 15 13s14 -6 14 -13c0 -9 -6 -15 -14 -15s-15 6 -15 15zM901 209c0 9 7 15 14 15
c8 0 15 -6 15 -15s-7 -15 -15 -15c-7 0 -14 6 -14 15zM937 247c0 9 7 15 15 15c7 0 14 -6 14 -15s-7 -15 -14 -15c-8 0 -15 6 -15 15zM934 63c0 9 6 15 14 15s14 -6 14 -15c0 -7 -6 -13 -14 -13s-14 6 -14 13zM900 102c0 7 7 13 15 13c7 0 14 -6 14 -13c0 -9 -7 -15 -14 -15
c-8 0 -15 6 -15 15z" />
    <glyph glyph-name="Scaron" unicode="&#x160;" horiz-adv-x="518" 
d="M325 200c0 -40 -31 -71 -88 -71c-25 0 -50 7 -75 20s-43 20 -56 20c-47 0 -78 -33 -78 -76c0 -30 20 -56 59 -79s88 -34 147 -34c75 0 136 20 183 61c48 41 72 95 72 164c0 57 -15 101 -46 131c-30 30 -81 59 -154 86c-62 23 -93 50 -93 81c0 41 30 64 77 64
c24 0 44 -5 61 -16c17 -10 32 -15 45 -15c44 0 70 26 70 74c0 59 -70 102 -179 102c-69 0 -126 -19 -171 -57c-45 -37 -67 -88 -67 -152c0 -101 62 -164 182 -207c43 -16 73 -30 88 -42c15 -11 23 -29 23 -54zM85 93c0 12 10 18 19 18c11 0 19 -6 19 -18
c0 -11 -8 -20 -19 -20c-9 0 -19 9 -19 20zM152 60c0 9 9 18 20 18c12 0 18 -9 18 -18c0 -11 -6 -20 -18 -20c-11 0 -20 9 -20 20zM227 52c0 12 8 18 19 18c12 0 19 -6 19 -18c0 -11 -7 -20 -19 -20c-11 0 -19 9 -19 20zM301 66c0 12 9 20 18 20c12 0 20 -8 20 -20
c0 -8 -8 -18 -20 -18c-9 0 -18 10 -18 18zM361 107c0 12 9 20 20 20s18 -8 18 -20c0 -8 -7 -18 -18 -18s-20 10 -20 18zM393 173c0 12 8 18 19 18c12 0 19 -6 19 -18c0 -11 -7 -20 -19 -20c-11 0 -19 9 -19 20zM389 248c0 12 8 19 19 19c12 0 19 -7 19 -19
c0 -11 -7 -19 -19 -19c-11 0 -19 8 -19 19zM342 304c0 11 9 18 18 18c12 0 20 -7 20 -18s-8 -20 -20 -20c-9 0 -18 9 -18 20zM276 342c0 11 9 18 20 18c12 0 18 -7 18 -18s-6 -20 -18 -20c-11 0 -20 9 -20 20zM207 371c0 12 10 19 19 19c11 0 19 -7 19 -19
c0 -11 -8 -19 -19 -19c-9 0 -19 8 -19 19zM140 411c0 12 7 19 18 19c12 0 20 -7 20 -19c0 -11 -8 -19 -20 -19c-11 0 -18 8 -18 19zM395 615c0 -12 -8 -19 -19 -19c-12 0 -20 7 -20 19c0 11 8 19 20 19c11 0 19 -8 19 -19zM320 643c0 -12 -9 -19 -18 -19c-12 0 -20 7 -20 19
c0 9 8 19 20 19c9 0 18 -10 18 -19zM240 640c0 -12 -9 -19 -18 -19c-12 0 -20 7 -20 19c0 9 8 19 20 19c9 0 18 -10 18 -19zM169 611c0 -11 -9 -19 -20 -19c-9 0 -18 8 -18 19s9 20 18 20c11 0 20 -9 20 -20zM128 549c0 -11 -9 -19 -20 -19c-9 0 -18 8 -18 19s9 19 18 19
c11 0 20 -8 20 -19zM131 472c0 -11 -9 -19 -20 -19s-18 8 -18 19c0 9 7 19 18 19s20 -10 20 -19zM251 835l-55 55c-25 24 -48 23 -69 -1c-19 -17 -21 -46 2 -69l85 -79c11 -11 24 -17 37 -17c13 1 26 6 37 17l85 80c24 23 23 46 4 69c-23 24 -45 25 -70 1zM268 778
c0 -9 -7 -15 -15 -15c-5 0 -13 6 -13 15c0 8 8 14 13 14c8 0 15 -6 15 -14zM222 813c0 -9 -8 -15 -13 -15c-8 0 -15 6 -15 15s7 14 15 14c5 0 13 -5 13 -14zM180 855c0 -9 -8 -15 -13 -15c-8 0 -15 6 -15 15c0 8 7 14 15 14c5 0 13 -6 13 -14zM316 813c0 -9 -7 -15 -15 -15
s-13 6 -13 15s5 14 13 14s15 -5 15 -14zM355 855c0 -9 -7 -15 -15 -15c-7 0 -13 6 -13 15c0 8 6 14 13 14c8 0 15 -6 15 -14z" />
    <glyph glyph-name="guilsinglleft" unicode="&#x2039;" horiz-adv-x="337" 
d="M179 254l95 98c33 32 33 62 -2 93c-21 25 -62 28 -91 -5l-129 -137c-16 -15 -24 -32 -24 -49c1 -18 9 -34 24 -49l129 -138c29 -32 60 -30 91 -5c35 32 35 62 2 94zM202 120c0 12 9 20 20 20c9 0 18 -8 18 -20c0 -11 -9 -18 -18 -18c-11 0 -20 7 -20 18zM139 182
c0 9 7 18 18 18c12 0 20 -9 20 -18c0 -11 -8 -20 -20 -20c-11 0 -18 9 -18 20zM135 324c0 12 9 20 18 20c12 0 20 -8 20 -20c0 -11 -8 -19 -20 -19c-9 0 -18 8 -18 19zM201 388c0 11 9 19 20 19s18 -8 18 -19c0 -9 -7 -19 -18 -19s-20 10 -20 19zM80 254c0 12 9 18 20 18
c9 0 18 -6 18 -18c0 -11 -9 -20 -18 -20c-11 0 -20 9 -20 20z" />
    <glyph glyph-name="OE" unicode="&#x152;" horiz-adv-x="1113" 
d="M759 146v133h208c48 0 76 25 76 74c0 47 -28 73 -76 73h-208v123h239c49 0 77 25 77 73c0 47 -28 72 -77 72h-302c-33 0 -58 -8 -73 -23c-6 -5 -11 -14 -15 -26c-59 43 -129 64 -210 64c-101 0 -187 -34 -256 -101s-104 -155 -104 -262s34 -194 103 -262
c69 -67 155 -101 257 -101c81 0 152 21 211 64c4 -11 9 -20 14 -26c15 -14 40 -21 73 -21h301c49 0 77 25 77 73c0 47 -28 73 -77 73h-238zM664 347c0 11 8 19 19 19s19 -8 19 -19c0 -9 -8 -19 -19 -19s-19 10 -19 19zM381 61c0 11 9 19 18 19c12 0 20 -8 20 -19
c0 -9 -8 -19 -20 -19c-9 0 -18 10 -18 19zM582 145c0 11 8 19 19 19s19 -8 19 -19c0 -9 -8 -19 -19 -19s-19 10 -19 19zM627 204c0 12 8 20 19 20s19 -8 19 -20c0 -11 -8 -19 -19 -19s-19 8 -19 19zM654 272c0 12 10 20 19 20c12 0 19 -8 19 -20c0 -9 -7 -18 -19 -18
c-9 0 -19 9 -19 18zM525 99c0 9 9 18 20 18s18 -9 18 -18c0 -11 -7 -20 -18 -20s-20 9 -20 20zM455 69c0 12 10 20 19 20c11 0 19 -8 19 -20c0 -9 -8 -18 -19 -18c-9 0 -19 9 -19 18zM399 612c-11 0 -18 10 -18 19c0 12 7 19 18 19s20 -7 20 -19c0 -9 -9 -19 -20 -19z
M602 532c-12 0 -19 10 -19 19c0 12 7 19 19 19c9 0 19 -7 19 -19c0 -9 -10 -19 -19 -19zM542 579c-12 0 -20 8 -20 19s8 19 20 19c9 0 19 -8 19 -19s-10 -19 -19 -19zM471 605c-11 0 -19 9 -19 20s8 19 19 19s19 -8 19 -19s-8 -20 -19 -20zM646 475c-11 0 -18 8 -18 19
c0 12 7 19 18 19s20 -7 20 -19c0 -11 -9 -19 -20 -19zM675 404c-11 0 -19 9 -19 20s8 18 19 18s19 -7 19 -18s-8 -20 -19 -20zM197 161c12 0 20 -10 20 -18c0 -12 -8 -20 -20 -20c-11 0 -18 8 -18 20c0 8 7 18 18 18zM257 115c11 0 18 -9 18 -18c0 -12 -7 -20 -18 -20
s-20 8 -20 20c0 9 9 18 20 18zM327 89c12 0 19 -9 19 -20s-7 -18 -19 -18c-11 0 -19 7 -19 18s8 20 19 20zM152 222c12 0 20 -9 20 -20c0 -12 -8 -19 -20 -19c-9 0 -18 7 -18 19c0 11 9 20 18 20zM125 290c12 0 19 -10 19 -19c0 -11 -7 -19 -19 -19c-11 0 -20 8 -20 19
c0 9 9 19 20 19zM135 347c0 -11 -9 -19 -20 -19c-12 0 -18 8 -18 19c0 9 6 19 18 19c11 0 20 -10 20 -19zM216 549c0 -11 -9 -19 -20 -19c-12 0 -18 8 -18 19s6 19 18 19c11 0 20 -8 20 -19zM171 490c0 -12 -9 -19 -20 -19s-18 7 -18 19c0 11 7 19 18 19s20 -8 20 -19z
M143 422c0 -12 -8 -20 -19 -20c-12 0 -20 8 -20 20c0 9 8 18 20 18c11 0 19 -9 19 -18zM271 596c0 -11 -7 -19 -18 -19c-12 0 -20 8 -20 19s8 19 20 19c11 0 18 -8 18 -19zM343 625c0 -12 -9 -20 -20 -20c-12 0 -18 8 -18 20c0 9 6 19 18 19c11 0 20 -10 20 -19zM666 623
c0 11 8 19 19 19s19 -8 19 -19s-8 -19 -19 -19s-19 8 -19 19zM666 73c0 12 8 20 19 20s19 -8 19 -20c0 -11 -8 -18 -19 -18s-19 7 -19 18zM963 353c0 11 10 19 19 19c12 0 19 -8 19 -19c0 -9 -7 -19 -19 -19c-9 0 -19 10 -19 19zM891 353c0 11 8 19 19 19s19 -8 19 -19
c0 -9 -8 -19 -19 -19s-19 10 -19 19zM817 353c0 11 10 19 19 19c12 0 19 -8 19 -19c0 -9 -7 -19 -19 -19c-9 0 -19 10 -19 19zM741 353c0 11 10 19 19 19c12 0 19 -8 19 -19c0 -9 -7 -19 -19 -19c-9 0 -19 10 -19 19zM985 623c0 11 10 19 19 19c12 0 19 -8 19 -19
s-7 -19 -19 -19c-9 0 -19 8 -19 19zM908 623c0 11 8 19 19 19c12 0 19 -8 19 -19s-7 -19 -19 -19c-11 0 -19 8 -19 19zM829 623c0 11 8 19 19 19s19 -8 19 -19s-8 -19 -19 -19s-19 8 -19 19zM746 623c0 11 8 19 19 19s19 -8 19 -19s-8 -19 -19 -19s-19 8 -19 19zM985 73
c0 12 10 20 19 20c12 0 19 -8 19 -20c0 -11 -7 -18 -19 -18c-9 0 -19 7 -19 18zM908 73c0 12 8 20 19 20c12 0 19 -8 19 -20c0 -11 -7 -18 -19 -18c-11 0 -19 7 -19 18zM829 73c0 12 8 20 19 20s19 -8 19 -20c0 -11 -8 -18 -19 -18s-19 7 -19 18zM746 73c0 12 8 20 19 20
s19 -8 19 -20c0 -11 -8 -18 -19 -18s-19 7 -19 18zM665 548c0 11 8 18 19 18s19 -7 19 -18s-8 -20 -19 -20s-19 9 -19 20zM665 151c0 12 8 20 19 20s19 -8 19 -20c0 -9 -8 -18 -19 -18s-19 9 -19 18zM398 141c-57 0 -104 19 -139 56c-35 38 -53 88 -53 150s18 112 53 150
s82 57 139 57s104 -19 139 -57c36 -38 54 -88 54 -150s-18 -112 -54 -150c-35 -37 -82 -56 -139 -56z" />
    <glyph glyph-name="Zcaron" unicode="&#x17d;" horiz-adv-x="598" 
d="M263 146l263 427c9 19 14 29 14 49c0 47 -28 72 -76 72h-329c-48 0 -76 -25 -76 -73c0 -47 28 -72 76 -72h187l-272 -434c-8 -11 -12 -25 -12 -43c0 -47 28 -72 76 -72h370c48 0 76 25 76 73c0 47 -28 73 -76 73h-221zM102 73c0 12 8 20 19 20c12 0 20 -8 20 -20
c0 -11 -8 -18 -20 -18c-11 0 -19 7 -19 18zM461 73c0 12 10 20 19 20c12 0 19 -8 19 -20c0 -11 -7 -18 -19 -18c-9 0 -19 7 -19 18zM372 73c0 12 9 20 20 20s18 -8 18 -20c0 -11 -7 -18 -18 -18s-20 7 -20 18zM282 73c0 12 9 20 20 20s18 -8 18 -20c0 -11 -7 -18 -18 -18
s-20 7 -20 18zM194 73c0 12 9 20 20 20c12 0 18 -8 18 -20c0 -11 -6 -18 -18 -18c-11 0 -20 7 -20 18zM117 622c0 12 9 19 20 19s18 -7 18 -19c0 -11 -7 -19 -18 -19s-20 8 -20 19zM444 622c0 12 9 19 20 19s18 -7 18 -19c0 -11 -7 -19 -18 -19s-20 8 -20 19zM367 622
c0 12 9 19 20 19s18 -7 18 -19c0 -11 -7 -19 -18 -19s-20 8 -20 19zM287 622c0 12 10 19 19 19c11 0 19 -7 19 -19c0 -11 -8 -19 -19 -19c-9 0 -19 8 -19 19zM202 622c0 12 9 19 20 19c9 0 18 -7 18 -19c0 -11 -9 -19 -18 -19c-11 0 -20 8 -20 19zM142 143c0 11 7 19 18 19
c12 0 20 -8 20 -19c0 -9 -8 -19 -20 -19c-11 0 -18 10 -18 19zM183 212c0 12 7 18 18 18c12 0 20 -6 20 -18c0 -11 -8 -20 -20 -20c-11 0 -18 9 -18 20zM227 279c0 12 8 20 19 20c12 0 19 -8 19 -20c0 -11 -7 -18 -19 -18c-11 0 -19 7 -19 18zM270 348c0 11 8 19 19 19
c12 0 19 -8 19 -19c0 -9 -7 -19 -19 -19c-11 0 -19 10 -19 19zM315 418c0 12 9 19 20 19c12 0 19 -7 19 -19c0 -11 -7 -20 -19 -20c-11 0 -20 9 -20 20zM360 483c0 12 9 20 20 20s18 -8 18 -20c0 -9 -7 -18 -18 -18s-20 9 -20 18zM402 551c0 12 9 19 20 19s18 -7 18 -19
c0 -9 -7 -19 -18 -19s-20 10 -20 19zM287 831l-55 55c-25 24 -48 23 -69 -1c-19 -17 -21 -46 2 -69l85 -79c11 -11 24 -17 37 -17c13 1 26 6 37 17l85 80c24 23 23 46 4 69c-23 24 -45 25 -70 1zM304 774c0 -9 -7 -15 -15 -15c-5 0 -13 6 -13 15c0 8 8 14 13 14
c8 0 15 -6 15 -14zM258 809c0 -9 -8 -15 -13 -15c-8 0 -15 6 -15 15s7 14 15 14c5 0 13 -5 13 -14zM216 851c0 -9 -8 -15 -13 -15c-8 0 -15 6 -15 15c0 8 7 14 15 14c5 0 13 -6 13 -14zM352 809c0 -9 -7 -15 -15 -15s-13 6 -13 15s5 14 13 14s15 -5 15 -14zM391 851
c0 -9 -7 -15 -15 -15c-7 0 -13 6 -13 15c0 8 6 14 13 14c8 0 15 -6 15 -14z" />
    <glyph glyph-name="quoteleft" unicode="&#x2018;" horiz-adv-x="229" 
d="M96 556c-7 47 32 71 65 75c25 3 36 16 35 37c-1 17 -12 26 -29 26c-41 0 -76 -16 -103 -49c-27 -32 -41 -73 -41 -124c0 -71 40 -119 95 -119c48 0 87 30 87 90c0 39 -27 70 -75 70c-12 0 -23 -1 -34 -6zM101 487c0 12 8 22 21 22c12 0 22 -10 22 -22s-10 -22 -22 -22
c-13 0 -21 10 -21 22z" />
    <glyph glyph-name="quoteright" unicode="&#x2019;" horiz-adv-x="229" 
d="M134 541c7 -48 -35 -71 -67 -75c-25 -3 -36 -16 -35 -37c1 -17 14 -27 30 -27c41 0 75 16 102 49s41 74 41 125c0 71 -40 118 -95 118c-48 0 -87 -30 -87 -90c0 -39 26 -70 77 -70c9 0 22 2 34 7zM86 611c0 12 10 21 21 21c12 0 23 -9 23 -21s-11 -22 -23 -22
c-11 0 -21 10 -21 22z" />
    <glyph glyph-name="quotedblleft" unicode="&#x201c;" horiz-adv-x="448" 
d="M96 556c-7 47 32 71 65 75c25 3 36 16 35 37c-1 17 -12 26 -29 26c-41 0 -76 -16 -103 -49c-27 -32 -41 -73 -41 -124c0 -71 40 -119 95 -119c48 0 87 30 87 90c0 39 -27 70 -75 70c-12 0 -23 -1 -34 -6zM314 556c-4 47 33 71 67 75c25 3 36 16 35 37
c-1 17 -14 26 -29 26c-41 0 -76 -16 -103 -49c-27 -32 -41 -73 -41 -124c0 -71 40 -119 95 -119c48 0 87 30 87 90c0 39 -27 70 -76 70c-11 0 -23 -1 -35 -6zM101 487c0 12 8 22 21 22c12 0 22 -10 22 -22s-10 -22 -22 -22c-13 0 -21 10 -21 22zM323 487c0 12 10 22 23 22
c11 0 21 -10 21 -22s-10 -22 -21 -22c-13 0 -23 10 -23 22z" />
    <glyph glyph-name="quotedblright" unicode="&#x201d;" horiz-adv-x="440" 
d="M353 541c5 -48 -32 -71 -66 -75c-25 -3 -36 -16 -35 -37c1 -17 13 -27 29 -27c41 0 76 16 103 49s41 74 41 125c0 71 -40 118 -95 118c-48 0 -87 -30 -87 -90c0 -39 27 -70 75 -70c12 0 24 2 35 7zM134 541c7 -48 -35 -71 -67 -75c-25 -3 -36 -16 -35 -37
c1 -17 14 -27 30 -27c41 0 75 16 102 49s41 74 41 125c0 71 -40 118 -95 118c-48 0 -87 -30 -87 -90c0 -39 26 -70 77 -70c9 0 22 2 34 7zM86 611c0 12 10 21 21 21c12 0 23 -9 23 -21s-11 -22 -23 -22c-11 0 -21 10 -21 22zM309 611c0 12 9 21 22 21c12 0 22 -9 22 -21
s-10 -22 -22 -22c-13 0 -22 10 -22 22z" />
    <glyph glyph-name="bullet" unicode="&#x2022;" horiz-adv-x="426" 
d="M48 354c0 -41 13 -75 40 -102s61 -40 100 -40s73 14 100 42c28 28 42 61 42 100s-14 72 -41 99s-61 41 -100 41s-72 -14 -100 -41c-27 -27 -41 -60 -41 -99zM86 353c0 8 7 14 15 14c5 0 13 -6 13 -14c0 -9 -8 -14 -13 -14c-8 0 -15 5 -15 14zM177 448c0 9 6 15 13 15
c8 0 15 -6 15 -15s-7 -14 -15 -14c-7 0 -13 5 -13 14zM269 353c0 8 6 14 14 14s15 -6 15 -14c0 -9 -7 -14 -15 -14s-14 5 -14 14zM174 261c0 8 8 13 13 13c8 0 15 -5 15 -13c0 -9 -7 -15 -15 -15c-5 0 -13 6 -13 15zM131 271c0 9 7 15 14 15s14 -6 14 -15
c0 -8 -7 -13 -14 -13s-14 5 -14 13zM99 305c0 9 5 14 13 14s15 -5 15 -14c0 -8 -7 -14 -15 -14s-13 6 -13 14zM95 399c0 9 6 15 13 15c8 0 15 -6 15 -15c0 -8 -7 -13 -15 -13c-7 0 -13 5 -13 13zM126 437c0 8 7 14 15 14c7 0 13 -6 13 -14c0 -9 -6 -14 -13 -14
c-8 0 -15 5 -15 14zM254 305c0 9 7 14 14 14s14 -5 14 -14c0 -8 -7 -14 -14 -14s-14 6 -14 14zM219 271c0 9 6 15 13 15c8 0 15 -6 15 -15c0 -8 -7 -13 -15 -13c-7 0 -13 5 -13 13zM255 399c0 9 7 15 14 15s14 -6 14 -15c0 -8 -7 -13 -14 -13s-14 5 -14 13zM223 434
c0 8 5 14 13 14s15 -6 15 -14c0 -9 -7 -14 -15 -14s-13 5 -13 14z" />
    <glyph glyph-name="endash" unicode="&#x2013;" horiz-adv-x="555" 
d="M0 348c0 -47 25 -69 72 -69h411c48 0 72 22 72 70c0 44 -24 67 -72 67h-411c-47 0 -72 -23 -72 -68zM302 349c0 11 7 19 18 19c12 0 20 -8 20 -19c0 -9 -8 -19 -20 -19c-11 0 -18 10 -18 19zM218 349c0 11 9 19 18 19c12 0 20 -8 20 -19c0 -9 -8 -19 -20 -19
c-9 0 -18 10 -18 19zM135 349c0 11 9 19 18 19c12 0 20 -8 20 -19c0 -9 -8 -19 -20 -19c-9 0 -18 10 -18 19zM51 349c0 11 9 19 18 19c12 0 20 -8 20 -19c0 -9 -8 -19 -20 -19c-9 0 -18 10 -18 19zM466 349c0 11 9 19 18 19c12 0 20 -8 20 -19c0 -9 -8 -19 -20 -19
c-9 0 -18 10 -18 19zM386 349c0 11 7 19 18 19c12 0 20 -8 20 -19c0 -9 -8 -19 -20 -19c-11 0 -18 10 -18 19z" />
    <glyph glyph-name="emdash" unicode="&#x2014;" horiz-adv-x="713" 
d="M0 348c0 -47 25 -69 72 -69h570c47 0 71 22 71 70c0 44 -24 67 -71 67h-570c-47 0 -72 -23 -72 -68zM298 349c0 11 9 19 18 19c12 0 20 -8 20 -19c0 -9 -8 -19 -20 -19c-9 0 -18 10 -18 19zM216 349c0 11 9 19 18 19c12 0 20 -8 20 -19c0 -9 -8 -19 -20 -19
c-9 0 -18 10 -18 19zM132 349c0 11 9 19 18 19c12 0 20 -8 20 -19c0 -9 -8 -19 -20 -19c-9 0 -18 10 -18 19zM51 349c0 11 9 19 18 19c12 0 20 -8 20 -19c0 -9 -8 -19 -20 -19c-9 0 -18 10 -18 19zM463 349c0 11 9 19 18 19c12 0 20 -8 20 -19c0 -9 -8 -19 -20 -19
c-9 0 -18 10 -18 19zM380 349c0 11 9 19 18 19c12 0 20 -8 20 -19c0 -9 -8 -19 -20 -19c-9 0 -18 10 -18 19zM628 349c0 11 9 19 18 19c12 0 20 -8 20 -19c0 -9 -8 -19 -20 -19c-9 0 -18 10 -18 19zM546 349c0 11 9 19 18 19c12 0 20 -8 20 -19c0 -9 -8 -19 -20 -19
c-9 0 -18 10 -18 19z" />
    <glyph glyph-name="tilde" unicode="&#x2dc;" horiz-adv-x="373" 
d="M91 502c23 0 36 17 61 17c11 0 26 -3 45 -10c20 -6 35 -9 46 -9c45 0 82 37 82 85c0 31 -16 53 -43 53c-24 0 -37 -18 -61 -18c-10 0 -25 3 -45 9c-20 7 -35 10 -46 10c-45 0 -82 -37 -82 -86c0 -32 15 -51 43 -51zM172 571c0 9 7 15 14 15s14 -6 14 -15s-7 -14 -14 -14
s-14 5 -14 14zM126 585c0 8 7 14 15 14c7 0 13 -6 13 -14c0 -9 -6 -15 -13 -15c-8 0 -15 6 -15 15zM85 559c0 8 7 14 15 14c5 0 13 -6 13 -14c0 -9 -8 -14 -13 -14c-8 0 -15 5 -15 14zM223 556c0 8 5 14 13 14s15 -6 15 -14c0 -9 -7 -14 -15 -14s-13 5 -13 14zM264 580
c0 9 5 14 13 14s15 -5 15 -14s-7 -15 -15 -15s-13 6 -13 15z" />
    <glyph glyph-name="trademark" unicode="&#x2122;" horiz-adv-x="702" 
d="M485 554l-46 108c-12 27 -29 36 -56 36c-33 0 -49 -15 -58 -55l-36 -214c-2 -11 -3 -18 -3 -23c0 -27 18 -47 46 -47c26 0 41 18 46 55l23 131l35 -84c9 -23 25 -35 49 -35c28 0 42 14 50 35l31 84l26 -137c5 -33 21 -49 47 -49c28 0 44 20 44 47c0 5 -1 11 -2 18
l-37 219c-5 39 -32 55 -61 55c-27 0 -46 -12 -56 -37zM91 611v-195c0 -36 18 -52 45 -52c24 0 45 16 45 52v195h38c29 0 43 13 43 40c0 29 -14 43 -43 43h-165c-29 0 -44 -14 -44 -43c0 -27 15 -40 44 -40h37zM201 652c0 9 7 15 15 15s13 -6 13 -15c0 -8 -5 -14 -13 -14
s-15 6 -15 14zM123 595c0 9 7 14 15 14c7 0 13 -5 13 -14c0 -8 -6 -14 -13 -14c-8 0 -15 6 -15 14zM123 536c0 9 7 14 15 14c7 0 13 -5 13 -14s-6 -15 -13 -15c-8 0 -15 6 -15 15zM123 477c0 8 7 14 15 14c7 0 13 -6 13 -14c0 -9 -6 -14 -13 -14c-8 0 -15 5 -15 14zM123 418
c0 9 7 14 15 14c7 0 13 -5 13 -14s-6 -15 -13 -15c-8 0 -15 6 -15 15zM373 649c0 9 7 15 14 15c8 0 14 -6 14 -15c0 -8 -6 -14 -14 -14c-7 0 -14 6 -14 14zM353 594c0 9 6 14 14 14s15 -5 15 -14c0 -8 -7 -14 -15 -14s-14 6 -14 14zM328 474c0 8 7 14 15 14
c7 0 13 -6 13 -14s-6 -14 -13 -14c-8 0 -15 6 -15 14zM316 412c0 9 7 15 15 15s15 -6 15 -15s-7 -15 -15 -15s-15 6 -15 15zM147 652c0 9 7 15 15 15s15 -6 15 -15c0 -8 -7 -14 -15 -14s-15 6 -15 14zM94 652c0 9 6 15 13 15c8 0 15 -6 15 -15c0 -8 -7 -14 -15 -14
c-7 0 -13 6 -13 14zM38 652c0 9 7 15 15 15s13 -6 13 -15c0 -8 -5 -14 -13 -14s-15 6 -15 14zM341 532c0 9 6 15 13 15c8 0 15 -6 15 -15s-7 -14 -15 -14c-7 0 -13 5 -13 14zM603 649c0 -8 -7 -14 -14 -14c-8 0 -15 6 -15 14c0 9 7 15 15 15c7 0 14 -6 14 -15zM621 594
c0 -8 -7 -14 -15 -14c-7 0 -14 6 -14 14c0 9 7 14 14 14c8 0 15 -5 15 -14zM646 474c0 -8 -7 -14 -15 -14c-7 0 -14 6 -14 14s7 14 14 14c8 0 15 -6 15 -14zM657 412c0 -9 -7 -15 -14 -15c-8 0 -14 6 -14 15s6 15 14 15c7 0 14 -6 14 -15zM633 532c0 -9 -6 -14 -14 -14
s-15 5 -15 14s7 15 15 15s14 -6 14 -15zM531 594c0 9 7 14 15 14c7 0 14 -5 14 -14c0 -8 -7 -14 -14 -14c-8 0 -15 6 -15 14zM504 532c0 9 6 15 14 15c7 0 14 -6 14 -15s-7 -14 -14 -14c-8 0 -14 5 -14 14zM436 532c0 9 6 15 14 15s15 -6 15 -15s-7 -14 -15 -14
s-14 5 -14 14zM410 594c0 9 7 14 15 14c7 0 13 -5 13 -14c0 -8 -6 -14 -13 -14c-8 0 -15 6 -15 14zM499 480c0 -8 -7 -13 -15 -13c-7 0 -14 5 -14 13c0 9 7 15 14 15c8 0 15 -6 15 -15z" />
    <glyph glyph-name="scaron" unicode="&#x161;" horiz-adv-x="518" 
d="M325 200c0 -40 -31 -71 -88 -71c-25 0 -50 7 -75 20s-43 20 -56 20c-47 0 -78 -33 -78 -76c0 -30 20 -56 59 -79s88 -34 147 -34c75 0 136 20 183 61c48 41 72 95 72 164c0 57 -15 101 -46 131c-30 30 -81 59 -154 86c-62 23 -93 50 -93 81c0 41 30 64 77 64
c24 0 44 -5 61 -16c17 -10 32 -15 45 -15c44 0 70 26 70 74c0 59 -70 102 -179 102c-69 0 -126 -19 -171 -57c-45 -37 -67 -88 -67 -152c0 -101 62 -164 182 -207c43 -16 73 -30 88 -42c15 -11 23 -29 23 -54zM85 93c0 12 10 18 19 18c11 0 19 -6 19 -18
c0 -11 -8 -20 -19 -20c-9 0 -19 9 -19 20zM152 60c0 9 9 18 20 18c12 0 18 -9 18 -18c0 -11 -6 -20 -18 -20c-11 0 -20 9 -20 20zM227 52c0 12 8 18 19 18c12 0 19 -6 19 -18c0 -11 -7 -20 -19 -20c-11 0 -19 9 -19 20zM301 66c0 12 9 20 18 20c12 0 20 -8 20 -20
c0 -8 -8 -18 -20 -18c-9 0 -18 10 -18 18zM361 107c0 12 9 20 20 20s18 -8 18 -20c0 -8 -7 -18 -18 -18s-20 10 -20 18zM393 173c0 12 8 18 19 18c12 0 19 -6 19 -18c0 -11 -7 -20 -19 -20c-11 0 -19 9 -19 20zM389 248c0 12 8 19 19 19c12 0 19 -7 19 -19
c0 -11 -7 -19 -19 -19c-11 0 -19 8 -19 19zM342 304c0 11 9 18 18 18c12 0 20 -7 20 -18s-8 -20 -20 -20c-9 0 -18 9 -18 20zM276 342c0 11 9 18 20 18c12 0 18 -7 18 -18s-6 -20 -18 -20c-11 0 -20 9 -20 20zM207 371c0 12 10 19 19 19c11 0 19 -7 19 -19
c0 -11 -8 -19 -19 -19c-9 0 -19 8 -19 19zM140 411c0 12 7 19 18 19c12 0 20 -7 20 -19c0 -11 -8 -19 -20 -19c-11 0 -18 8 -18 19zM395 615c0 -12 -8 -19 -19 -19c-12 0 -20 7 -20 19c0 11 8 19 20 19c11 0 19 -8 19 -19zM320 643c0 -12 -9 -19 -18 -19c-12 0 -20 7 -20 19
c0 9 8 19 20 19c9 0 18 -10 18 -19zM240 640c0 -12 -9 -19 -18 -19c-12 0 -20 7 -20 19c0 9 8 19 20 19c9 0 18 -10 18 -19zM169 611c0 -11 -9 -19 -20 -19c-9 0 -18 8 -18 19s9 20 18 20c11 0 20 -9 20 -20zM128 549c0 -11 -9 -19 -20 -19c-9 0 -18 8 -18 19s9 19 18 19
c11 0 20 -8 20 -19zM131 472c0 -11 -9 -19 -20 -19s-18 8 -18 19c0 9 7 19 18 19s20 -10 20 -19zM251 835l-55 55c-25 24 -48 23 -69 -1c-19 -17 -21 -46 2 -69l85 -79c11 -11 24 -17 37 -17c13 1 26 6 37 17l85 80c24 23 23 46 4 69c-23 24 -45 25 -70 1zM268 778
c0 -9 -7 -15 -15 -15c-5 0 -13 6 -13 15c0 8 8 14 13 14c8 0 15 -6 15 -14zM222 813c0 -9 -8 -15 -13 -15c-8 0 -15 6 -15 15s7 14 15 14c5 0 13 -5 13 -14zM180 855c0 -9 -8 -15 -13 -15c-8 0 -15 6 -15 15c0 8 7 14 15 14c5 0 13 -6 13 -14zM316 813c0 -9 -7 -15 -15 -15
s-13 6 -13 15s5 14 13 14s15 -5 15 -14zM355 855c0 -9 -7 -15 -15 -15c-7 0 -13 6 -13 15c0 8 6 14 13 14c8 0 15 -6 15 -14z" />
    <glyph glyph-name="guilsinglright" unicode="&#x203a;" horiz-adv-x="337" 
d="M158 254l-96 -99c-32 -31 -31 -61 1 -93c24 -24 64 -27 93 4l129 139c15 15 23 31 23 49c-1 17 -8 34 -23 49l-129 136c-29 35 -60 33 -93 6c-32 -31 -33 -61 -1 -94zM138 389c0 -11 -9 -19 -20 -19c-12 0 -18 8 -18 19c0 9 6 19 18 19c11 0 20 -10 20 -19zM201 328
c0 -12 -10 -19 -18 -19c-12 0 -20 7 -20 19c0 11 8 19 20 19c8 0 18 -8 18 -19zM205 185c0 -11 -10 -19 -19 -19c-11 0 -19 8 -19 19c0 9 8 19 19 19c9 0 19 -10 19 -19zM139 121c0 -12 -9 -19 -20 -19c-12 0 -18 7 -18 19c0 11 6 20 18 20c11 0 20 -9 20 -20zM260 256
c0 -12 -9 -20 -20 -20c-12 0 -18 8 -18 20c0 11 6 18 18 18c11 0 20 -7 20 -18z" />
    <glyph glyph-name="oe" unicode="&#x153;" horiz-adv-x="1185" 
d="M756 276h186c48 0 72 23 72 70c0 44 -24 67 -72 67h-186c5 31 22 62 52 93c31 31 71 47 122 47c33 0 62 -8 87 -23s47 -23 65 -22c37 1 64 40 64 81c0 33 -22 61 -65 84c-43 24 -94 36 -152 36c-112 0 -198 -44 -259 -132c-67 88 -157 132 -272 132
c-101 0 -187 -34 -256 -101s-104 -155 -104 -262s34 -194 103 -262c69 -67 155 -101 257 -101c115 0 206 42 272 125c61 -85 147 -128 259 -128c58 0 109 12 152 36s65 53 65 86c0 40 -27 79 -64 80c-18 1 -40 -7 -65 -22s-54 -23 -87 -23c-47 0 -87 15 -119 44
c-31 29 -50 61 -55 95zM398 141c-57 0 -104 19 -139 56c-35 38 -53 88 -53 150s18 112 53 150s82 57 139 57s104 -19 139 -57c36 -38 54 -88 54 -150s-18 -112 -54 -150c-35 -37 -82 -56 -139 -56zM135 347c0 -11 -9 -19 -20 -19c-12 0 -18 8 -18 19c0 9 6 19 18 19
c11 0 20 -10 20 -19zM764 138c0 -12 -8 -20 -19 -20c-12 0 -19 8 -19 20c0 9 7 18 19 18c11 0 19 -9 19 -18zM760 548c0 -12 -8 -20 -19 -20c-12 0 -19 8 -19 20c0 9 7 18 19 18c11 0 19 -9 19 -18zM216 549c0 -11 -9 -19 -20 -19c-12 0 -18 8 -18 19s6 19 18 19
c11 0 20 -8 20 -19zM171 490c0 -12 -9 -19 -20 -19s-18 7 -18 19c0 11 7 19 18 19s20 -8 20 -19zM143 422c0 -12 -8 -20 -19 -20c-12 0 -20 8 -20 20c0 9 8 18 20 18c11 0 19 -9 19 -18zM271 596c0 -11 -7 -19 -18 -19c-12 0 -20 8 -20 19s8 19 20 19c11 0 18 -8 18 -19z
M343 625c0 -12 -9 -20 -20 -20c-12 0 -18 8 -18 20c0 9 6 19 18 19c11 0 20 -10 20 -19zM812 602c0 -12 -8 -19 -19 -19s-19 7 -19 19c0 9 8 19 19 19s19 -10 19 -19zM881 631c0 -12 -8 -20 -19 -20s-19 8 -19 20c0 9 8 18 19 18s19 -9 19 -18zM816 86c0 -12 -8 -20 -19 -20
s-19 8 -19 20c0 11 8 18 19 18s19 -7 19 -18zM883 60c0 -12 -8 -20 -19 -20c-12 0 -19 8 -19 20c0 8 7 18 19 18c11 0 19 -10 19 -18zM935 619c-12 0 -20 10 -20 19c0 11 8 19 20 19c9 0 19 -8 19 -19c0 -9 -10 -19 -19 -19zM471 605c-11 0 -19 9 -19 20s8 19 19 19
s19 -8 19 -19s-8 -20 -19 -20zM542 579c-12 0 -20 8 -20 19s8 19 20 19c9 0 19 -8 19 -19s-10 -19 -19 -19zM399 612c-11 0 -18 10 -18 19c0 12 7 19 18 19s20 -7 20 -19c0 -9 -9 -19 -20 -19zM1072 82c-12 0 -19 9 -19 20c0 9 7 18 19 18c9 0 19 -9 19 -18
c0 -11 -10 -20 -19 -20zM125 290c12 0 19 -10 19 -19c0 -11 -7 -19 -19 -19c-11 0 -20 8 -20 19c0 9 9 19 20 19zM602 532c-12 0 -19 10 -19 19c0 12 7 19 19 19c9 0 19 -7 19 -19c0 -9 -10 -19 -19 -19zM327 89c12 0 19 -9 19 -20s-7 -18 -19 -18c-11 0 -19 7 -19 18
s8 20 19 20zM152 222c12 0 20 -9 20 -20c0 -12 -8 -19 -20 -19c-9 0 -18 7 -18 19c0 11 9 20 18 20zM1008 45c-12 0 -19 10 -19 18c0 12 7 20 19 20c11 0 19 -8 19 -20c0 -8 -8 -18 -19 -18zM257 115c11 0 18 -9 18 -18c0 -12 -7 -20 -18 -20s-20 8 -20 20c0 9 9 18 20 18z
M936 32c-12 0 -20 9 -20 20c0 12 8 18 20 18c9 0 19 -6 19 -18c0 -11 -10 -20 -19 -20zM1070 567c-11 0 -19 9 -19 20s8 18 19 18s19 -7 19 -18s-8 -20 -19 -20zM197 161c12 0 20 -10 20 -18c0 -12 -8 -20 -20 -20c-11 0 -18 8 -18 20c0 8 7 18 18 18zM1007 604
c-12 0 -19 9 -19 20s7 19 19 19c11 0 19 -8 19 -19s-8 -20 -19 -20zM582 145c0 11 8 19 19 19s19 -8 19 -19c0 -9 -8 -19 -19 -19s-19 10 -19 19zM455 69c0 12 10 20 19 20c11 0 19 -8 19 -20c0 -9 -8 -18 -19 -18c-9 0 -19 9 -19 18zM381 61c0 11 9 19 18 19
c12 0 20 -8 20 -19c0 -9 -8 -19 -20 -19c-9 0 -18 10 -18 19zM840 347c0 11 10 19 19 19c12 0 19 -8 19 -19c0 -9 -7 -19 -19 -19c-9 0 -19 10 -19 19zM922 347c0 11 10 19 19 19c12 0 19 -8 19 -19c0 -9 -7 -19 -19 -19c-9 0 -19 10 -19 19zM755 347c0 11 10 19 19 19
c12 0 19 -8 19 -19c0 -9 -7 -19 -19 -19c-9 0 -19 10 -19 19zM525 99c0 9 9 18 20 18s18 -9 18 -18c0 -11 -7 -20 -18 -20s-20 9 -20 20zM664 347c0 11 8 19 19 19s19 -8 19 -19c0 -9 -8 -19 -19 -19s-19 10 -19 19zM627 204c0 12 8 20 19 20s19 -8 19 -20
c0 -11 -8 -19 -19 -19s-19 8 -19 19zM654 272c0 12 10 20 19 20c12 0 19 -8 19 -20c0 -9 -7 -18 -19 -18c-9 0 -19 9 -19 18zM646 475c-11 0 -18 8 -18 19c0 12 6 19 18 19c11 0 20 -7 20 -19c0 -11 -9 -19 -20 -19zM675 404c-11 0 -19 9 -19 20s8 18 19 18s19 -7 19 -18
s-8 -20 -19 -20z" />
    <glyph glyph-name="zcaron" unicode="&#x17e;" horiz-adv-x="598" 
d="M263 146l263 427c9 19 14 29 14 49c0 47 -28 72 -76 72h-329c-48 0 -76 -25 -76 -73c0 -47 28 -72 76 -72h187l-272 -434c-8 -11 -12 -25 -12 -43c0 -47 28 -72 76 -72h370c48 0 76 25 76 73c0 47 -28 73 -76 73h-221zM102 73c0 12 8 20 19 20c12 0 20 -8 20 -20
c0 -11 -8 -18 -20 -18c-11 0 -19 7 -19 18zM461 73c0 12 10 20 19 20c12 0 19 -8 19 -20c0 -11 -7 -18 -19 -18c-9 0 -19 7 -19 18zM372 73c0 12 9 20 20 20s18 -8 18 -20c0 -11 -7 -18 -18 -18s-20 7 -20 18zM282 73c0 12 9 20 20 20s18 -8 18 -20c0 -11 -7 -18 -18 -18
s-20 7 -20 18zM194 73c0 12 9 20 20 20c12 0 18 -8 18 -20c0 -11 -6 -18 -18 -18c-11 0 -20 7 -20 18zM117 622c0 12 9 19 20 19s18 -7 18 -19c0 -11 -7 -19 -18 -19s-20 8 -20 19zM444 622c0 12 9 19 20 19s18 -7 18 -19c0 -11 -7 -19 -18 -19s-20 8 -20 19zM367 622
c0 12 9 19 20 19s18 -7 18 -19c0 -11 -7 -19 -18 -19s-20 8 -20 19zM287 622c0 12 10 19 19 19c11 0 19 -7 19 -19c0 -11 -8 -19 -19 -19c-9 0 -19 8 -19 19zM202 622c0 12 9 19 20 19c9 0 18 -7 18 -19c0 -11 -9 -19 -18 -19c-11 0 -20 8 -20 19zM142 143c0 11 7 19 18 19
c12 0 20 -8 20 -19c0 -9 -8 -19 -20 -19c-11 0 -18 10 -18 19zM183 212c0 12 7 18 18 18c12 0 20 -6 20 -18c0 -11 -8 -20 -20 -20c-11 0 -18 9 -18 20zM227 279c0 12 8 20 19 20c12 0 19 -8 19 -20c0 -11 -7 -18 -19 -18c-11 0 -19 7 -19 18zM270 348c0 11 8 19 19 19
c12 0 19 -8 19 -19c0 -9 -7 -19 -19 -19c-11 0 -19 10 -19 19zM315 418c0 12 9 19 20 19c12 0 19 -7 19 -19c0 -11 -7 -20 -19 -20c-11 0 -20 9 -20 20zM360 483c0 12 9 20 20 20s18 -8 18 -20c0 -9 -7 -18 -18 -18s-20 9 -20 18zM402 551c0 12 9 19 20 19s18 -7 18 -19
c0 -9 -7 -19 -18 -19s-20 10 -20 19zM287 831l-55 55c-25 24 -48 23 -69 -1c-19 -17 -21 -46 2 -69l85 -79c11 -11 24 -17 37 -17c13 1 26 6 37 17l85 80c24 23 23 46 4 69c-23 24 -45 25 -70 1zM304 774c0 -9 -7 -15 -15 -15c-5 0 -13 6 -13 15c0 8 8 14 13 14
c8 0 15 -6 15 -14zM258 809c0 -9 -8 -15 -13 -15c-8 0 -15 6 -15 15s7 14 15 14c5 0 13 -5 13 -14zM216 851c0 -9 -8 -15 -13 -15c-8 0 -15 6 -15 15c0 8 7 14 15 14c5 0 13 -6 13 -14zM352 809c0 -9 -7 -15 -15 -15s-13 6 -13 15s5 14 13 14s15 -5 15 -14zM391 851
c0 -9 -7 -15 -15 -15c-7 0 -13 6 -13 15c0 8 6 14 13 14c8 0 15 -6 15 -14z" />
    <glyph glyph-name="Ydieresis" unicode="&#x178;" horiz-adv-x="631" 
d="M315 404l-150 248c-39 55 -85 57 -120 29c-36 -28 -44 -71 -7 -124l198 -311v-150c0 -68 34 -96 79 -96c47 0 80 28 80 96v152l198 309c39 53 30 96 -6 124s-81 26 -120 -29zM296 295c0 12 7 20 16 20c15 -3 22 -8 22 -20c0 -11 -8 -20 -20 -20c-9 0 -18 9 -18 20z
M298 224c0 11 9 19 18 19c12 0 20 -8 20 -19c0 -9 -8 -19 -20 -19c-9 0 -18 10 -18 19zM298 152c0 12 9 20 18 20c12 0 20 -8 20 -20c0 -9 -8 -18 -20 -18c-9 0 -18 9 -18 18zM298 80c0 12 9 20 18 20c12 0 20 -8 20 -20c0 -11 -8 -19 -20 -19c-9 0 -18 8 -18 19zM348 354
c0 11 8 19 19 19c12 0 20 -8 20 -19s-8 -19 -20 -19c-11 0 -19 8 -19 19zM247 354c0 12 10 20 19 20c11 0 19 -8 19 -20c0 -9 -8 -18 -19 -18c-9 0 -19 9 -19 18zM203 419c0 11 9 18 20 18c9 0 18 -7 18 -18s-9 -20 -18 -20c-11 0 -20 9 -20 20zM157 489c0 12 9 20 20 20
s18 -8 18 -20c0 -11 -7 -19 -18 -19s-20 8 -20 19zM115 553c0 12 9 19 20 19s18 -7 18 -19c0 -9 -7 -19 -18 -19s-20 10 -20 19zM75 618c0 12 9 19 20 19s18 -7 18 -19c0 -11 -7 -19 -18 -19s-20 8 -20 19zM394 420c0 11 8 18 19 18c12 0 19 -7 19 -18s-7 -20 -19 -20
c-11 0 -19 9 -19 20zM436 489c0 12 8 20 19 20c12 0 19 -8 19 -20c0 -11 -7 -19 -19 -19c-11 0 -19 8 -19 19zM478 553c0 12 8 19 19 19c12 0 19 -7 19 -19c0 -9 -7 -19 -19 -19c-11 0 -19 10 -19 19zM519 618c0 12 8 19 19 19c12 0 19 -7 19 -19c0 -11 -7 -19 -19 -19
c-11 0 -19 8 -19 19zM292 800c0 39 -26 72 -67 72s-68 -33 -68 -72c0 -37 27 -70 68 -70s67 33 67 70zM477 800c0 39 -25 72 -68 72s-69 -33 -69 -72c0 -37 26 -70 69 -70s68 33 68 70zM205 800c0 12 9 20 20 20c12 0 19 -8 19 -20c0 -11 -7 -19 -19 -19c-11 0 -20 8 -20 19
zM391 800c0 12 10 20 19 20c11 0 19 -8 19 -20c0 -11 -8 -19 -19 -19c-9 0 -19 8 -19 19z" />
    <glyph glyph-name="exclamdown" unicode="&#xa1;" horiz-adv-x="284" 
d="M224 618c0 47 -37 86 -84 86c-48 0 -85 -39 -85 -86s37 -85 85 -85c47 0 84 37 84 85zM140 -12c45 0 79 28 79 96v312c0 68 -34 96 -79 96c-48 0 -79 -28 -79 -96v-312c0 -68 31 -96 79 -96zM163 618c0 -15 -13 -25 -25 -25c-15 0 -26 10 -26 25s11 26 26 26
c12 0 25 -11 25 -26zM119 410c0 12 9 19 20 19c9 0 18 -7 18 -19c0 -11 -9 -19 -18 -19c-11 0 -20 8 -20 19zM119 323c0 12 9 20 20 20c9 0 18 -8 18 -20c0 -11 -9 -18 -18 -18c-11 0 -20 7 -20 18zM119 237c0 12 9 20 20 20c9 0 18 -8 18 -20c0 -11 -9 -18 -18 -18
c-11 0 -20 7 -20 18zM119 151c0 12 9 20 20 20c9 0 18 -8 18 -20c0 -9 -9 -18 -18 -18c-11 0 -20 9 -20 18zM119 64c0 12 9 20 20 20c9 0 18 -8 18 -20c0 -8 -9 -18 -18 -18c-11 0 -20 10 -20 18z" />
    <glyph glyph-name="cent" unicode="&#xa2;" horiz-adv-x="518" 
d="M244 83v-54c0 -24 16 -39 41 -39c28 0 43 15 43 39v50c11 1 21 3 32 6c19 5 36 11 52 19c33 19 51 42 52 70c0 32 -23 65 -55 66h-3c-13 0 -29 -6 -48 -17c-16 -10 -35 -15 -57 -15c-69 0 -114 56 -114 141c0 88 45 145 114 145c21 0 41 -7 57 -16c18 -11 34 -17 48 -17
h3c32 1 55 34 55 67c-1 27 -19 50 -52 69c-26 14 -54 22 -85 25v44c0 24 -15 38 -43 38c-25 0 -41 -14 -41 -38v-48c-46 -9 -88 -33 -125 -71c-47 -52 -71 -118 -71 -198c0 -79 24 -144 71 -195c37 -37 79 -61 126 -71zM115 433c0 8 7 14 15 14s14 -6 14 -14s-6 -14 -14 -14
s-15 6 -15 14zM331 552c0 9 7 14 15 14c7 0 13 -5 13 -14c0 -8 -6 -14 -13 -14c-8 0 -15 6 -15 14zM382 531c0 9 6 15 14 15c7 0 14 -6 14 -15s-7 -14 -14 -14c-8 0 -14 5 -14 14zM278 560c0 8 7 14 15 14s14 -6 14 -14c0 -9 -6 -14 -14 -14s-15 5 -15 14zM225 549
c0 9 6 14 14 14s15 -5 15 -14c0 -8 -7 -14 -15 -14s-14 6 -14 14zM177 523c0 9 6 15 13 15c8 0 15 -6 15 -15c0 -8 -7 -14 -15 -14c-7 0 -13 6 -13 14zM140 483c0 9 5 15 13 15s15 -6 15 -15c0 -8 -7 -14 -15 -14s-13 6 -13 14zM102 381c0 8 6 14 14 14s15 -6 15 -14
c0 -9 -7 -15 -15 -15s-14 6 -14 15zM102 320c0 9 6 15 14 15s15 -6 15 -15s-7 -14 -15 -14s-14 5 -14 14zM117 257c0 9 7 14 15 14s14 -5 14 -14s-6 -15 -14 -15s-15 6 -15 15zM146 207c0 9 6 15 14 15s15 -6 15 -15s-7 -15 -15 -15s-14 6 -14 15zM186 168c0 9 6 15 14 15
s15 -6 15 -15s-7 -15 -15 -15s-14 6 -14 15zM237 143c0 7 7 13 15 13s14 -6 14 -13c0 -9 -6 -15 -14 -15s-15 6 -15 15zM290 137c0 8 7 13 15 13c7 0 13 -5 13 -13c0 -9 -6 -15 -13 -15c-8 0 -15 6 -15 15zM339 143c0 8 6 14 14 14c7 0 14 -6 14 -14s-7 -14 -14 -14
c-8 0 -14 6 -14 14zM381 164c0 9 6 15 14 15c7 0 14 -6 14 -15s-7 -15 -14 -15c-8 0 -14 6 -14 15zM272 37c0 9 7 15 15 15s15 -6 15 -15s-7 -15 -15 -15s-15 6 -15 15zM271 659c0 9 7 14 15 14s15 -5 15 -14s-7 -14 -15 -14s-15 5 -15 14z" />
    </font>
</defs>
</svg>
